SplineFontDB: 3.0
FontName: Vazir-Medium
FullName: Vazir Medium
FamilyName: Vazir Medium
Weight: Medium
Copyright: Copyright (c) 2003 by Bitstream, Inc. All Rights Reserved.\nDejaVu changes are in public domain\nChanges by Saber Rastikerdar are in public domain.\nNon-Arabic(Latin) glyphs and data in extended version are imported from Roboto font under the Apache License, Version 2.0.
Version: 21.2.0
ItalicAngle: 0
UnderlinePosition: -500
UnderlineWidth: 100
Ascent: 1638
Descent: 410
InvalidEm: 0
LayerCount: 2
Layer: 0 0 "Back" 1
Layer: 1 0 "Fore" 0
PreferredKerning: 4
XUID: [1021 502 1027637223 12327712]
UniqueID: 4084990
UseUniqueID: 1
FSType: 0
OS2Version: 1
OS2_WeightWidthSlopeOnly: 0
OS2_UseTypoMetrics: 1
CreationTime: 1431850356
ModificationTime: 1574845930
PfmFamily: 33
TTFWeight: 500
TTFWidth: 5
LineGap: 0
VLineGap: 0
Panose: 2 11 6 3 3 8 4 2 2 4
OS2TypoAscent: 2100
OS2TypoAOffset: 0
OS2TypoDescent: -1100
OS2TypoDOffset: 0
OS2TypoLinegap: 0
OS2WinAscent: 2100
OS2WinAOffset: 0
OS2WinDescent: 1100
OS2WinDOffset: 0
HheadAscent: 2100
HheadAOffset: 0
HheadDescent: -1100
HheadDOffset: 0
OS2SubXSize: 1331
OS2SubYSize: 1433
OS2SubXOff: 0
OS2SubYOff: 286
OS2SupXSize: 1331
OS2SupYSize: 1433
OS2SupXOff: 0
OS2SupYOff: 983
OS2StrikeYSize: 102
OS2StrikeYPos: 530
OS2CapHeight: 1638
OS2XHeight: 1082
OS2Vendor: '    '
OS2CodePages: 00000041.20080000
OS2UnicodeRanges: 80002003.80000000.00000008.00000000
Lookup: 1 9 0 "Single Substitution 1" { "Single Substitution 1 subtable"  } []
Lookup: 1 9 0 "'fina' Terminal Forms in Arabic lookup 9" { "'fina' Terminal Forms in Arabic lookup 9 subtable"  } ['fina' ('DFLT' <'dflt' > 'arab' <'FAR ' 'KUR ' 'URD ' 'dflt' > ) ]
Lookup: 1 9 0 "'medi' Medial Forms in Arabic lookup 11" { "'medi' Medial Forms in Arabic lookup 11 subtable"  } ['medi' ('DFLT' <'dflt' > 'arab' <'FAR ' 'KUR ' 'URD ' 'dflt' > ) ]

StartChar: exclam
Encoding: 33 33 1
GlifName: exclam
Width: 632
VWidth: 2762
GlyphClass: 2
Flags: HW
LayerCount: 2
Fore
SplineSet
163 154 m 0
 163 237.948242188 231.70703125 308 316 308 c 0
 400.291992188 308 469 237.947265625 469 154 c 0
 469 69.908203125 400.091796875 1 316 1 c 0
 231.28515625 1 163 66.9619140625 163 154 c 0
200.439453125 1376 m 5
 435.538085938 1376 l 1
 419.475585938 448 l 1
 217.544921875 448 l 1
 200.439453125 1376 l 5
EndSplineSet
EndChar

StartChar: period
Encoding: 46 46 2
GlifName: period
Width: 632
VWidth: 2762
GlyphClass: 2
Flags: HW
LayerCount: 2
Fore
SplineSet
163 154 m 0
 163 237.948242188 231.70703125 308 316 308 c 0
 400.291992188 308 469 237.947265625 469 154 c 0
 469 69.908203125 400.091796875 1 316 1 c 0
 231.28515625 1 163 66.9619140625 163 154 c 0
EndSplineSet
EndChar

StartChar: colon
Encoding: 58 58 3
GlifName: colon
Width: 632
VWidth: 2762
GlyphClass: 2
Flags: HW
LayerCount: 2
Fore
SplineSet
163 774 m 0
 163 857.948242188 231.70703125 928 316 928 c 0
 400.291992188 928 469 857.947265625 469 774 c 0
 469 689.908203125 400.091796875 621 316 621 c 0
 231.28515625 621 163 686.961914062 163 774 c 0
163 154 m 0
 163 237.948242188 231.70703125 308 316 308 c 0
 400.291992188 308 469 237.947265625 469 154 c 0
 469 69.908203125 400.091796875 1 316 1 c 0
 231.28515625 1 163 66.9619140625 163 154 c 0
EndSplineSet
EndChar

StartChar: uni060C
Encoding: 1548 1548 5
GlifName: afii57388
Width: 669
VWidth: 2770
GlyphClass: 2
Flags: HW
LayerCount: 2
Fore
SplineSet
516.495117188 586.239257812 m 2
 422.862304688 500.631835938 367.754882812 430.478515625 361.536132812 324.34765625 c 1
 459.206054688 317.704101562 496 258.889648438 496 171 c 0
 496 75.357421875 440.151367188 9 341 9 c 0
 216.85546875 9 163 90.154296875 163 203 c 0
 163 403.563476562 267.528320312 560.31640625 416.758789062 675.81640625 c 2
 429.18359375 685.432617188 l 1
 441.467773438 675.637695312 l 1
 515.467773438 616.637695312 l 1
 533.77734375 602.040039062 l 1
 516.495117188 586.239257812 l 2
EndSplineSet
EndChar

StartChar: uni0615
Encoding: 1557 1557 6
GlifName: uni0615
Width: -29
VWidth: 2712
GlyphClass: 4
Flags: HW
AnchorPoint: "Anchor-10" 658.199 1622.46 mark 0
AnchorPoint: "Anchor-9" 658.199 1622.46 mark 0
AnchorPoint: "Anchor-1" 672.366 2445.86 basemark 0
AnchorPoint: "Anchor-1" 658.199 1622.46 mark 0
LayerCount: 2
Fore
SplineSet
910 1918 m 0
 910 1966.53600396 886.57882768 1990 837 1990 c 0
 768.649123993 1990 668.441160853 1920.58159396 547.877829757 1791 c 1
 678 1791 l 2
 788.285797385 1791 910 1826.27058392 910 1918 c 0
542.01822688 1899.8670436 m 1
 648.895512773 2018.54900907 748.425313895 2081 841 2081 c 0
 942.403359304 2081 994 2029.38050856 994 1927 c 0
 994 1781.66186828 883.471884756 1709 668 1709 c 2
 357 1709 l 1
 352 1709 l 1
 352 1714 l 1
 352 1786 l 1
 352 1791 l 1
 357 1791 l 1
 460 1791 l 1
 460 2317.97363281 l 1
 460 2323.03893847 l 1
 465.064879216 2322.97321186 l 1
 538.060972966 2322.02594624 l 1
 543.007676732 2321.96175318 l 1
 542.996080013 2317.01464651 l 1
 542.01822688 1899.8670436 l 1
EndSplineSet
EndChar

StartChar: uni061B
Encoding: 1563 1563 7
GlifName: uni061B_
Width: 669
VWidth: 2770
GlyphClass: 2
Flags: HW
LayerCount: 2
Fore
SplineSet
191 154 m 0
 191 237.948242188 259.70703125 308 344 308 c 0
 428.291992188 308 497 237.947265625 497 154 c 0
 497 69.908203125 428.091796875 1 344 1 c 0
 259.28515625 1 191 66.9619140625 191 154 c 0
516.4609375 1025.20800781 m 6
 422.599609375 939.793945312 367.733398438 869.8359375 361.53125 763.33984375 c 5
 459.048828125 756.609375 496 697.512695312 496 610 c 4
 496 514.357421875 440.151367188 448 341 448 c 4
 216.85546875 448 163 529.154296875 163 642 c 4
 163 842.563476562 267.528320312 999.31640625 416.758789062 1114.81640625 c 6
 429.18359375 1124.43261719 l 5
 441.467773438 1114.63769531 l 5
 515.467773438 1055.63769531 l 5
 533.8203125 1041.00585938 l 5
 516.4609375 1025.20800781 l 6
EndSplineSet
EndChar

StartChar: uni061F
Encoding: 1567 1567 8
GlifName: uni061F_
Width: 924
VWidth: 2762
GlyphClass: 2
Flags: HW
LayerCount: 2
Fore
SplineSet
372 154 m 0
 372 237.948242188 440.70703125 308 525 308 c 0
 609.291992188 308 678 237.947265625 678 154 c 0
 678 69.908203125 609.091796875 1 525 1 c 0
 440.28515625 1 372 66.9619140625 372 154 c 0
79 1011 m 0
 79 1236.93457031 274.067382812 1386 469 1386 c 0
 731.227539062 1386 844.97265625 1240.09960938 846 971.076171875 c 2
 846.076171875 961 l 5
 826 961 l 5
 670 961 l 5
 650.145507812 961 l 5
 650.000976562 970.854492188 l 2
 649.043945312 1101.8671875 605.80078125 1166 480 1166 c 0
 368.248046875 1166 300 1108.13183594 300 1002 c 0
 300 841.224609375 636.665039062 803.55078125 638 470.080078125 c 2
 638.080078125 450 l 1
 618 450 l 1
 433 450 l 1
 413.09765625 450 l 1
 413 469.90234375 l 2
 411.485351562 779.774414062 79 700.68359375 79 1011 c 0
EndSplineSet
EndChar

StartChar: uni0621
Encoding: 1569 1569 9
GlifName: uni0621
Width: 830
VWidth: 2950
GlyphClass: 2
Flags: HW
AnchorPoint: "Anchor-7" 445.326 14.3535 basechar 0
AnchorPoint: "Anchor-10" 441.848 1119.06 basechar 0
LayerCount: 2
Fore
SplineSet
456.182617188 404.015625 m 1
 537.46875 422.587890625 620.803710938 441.014648438 701.537109375 459.49609375 c 2
 722.498046875 464.293945312 l 1
 725.767578125 443.041015625 l 1
 751.767578125 274.041015625 l 1
 754.8984375 253.69140625 l 1
 734.465820312 251.15234375 l 2
 569.590820312 230.665039062 360.432617188 150.815429688 107.6015625 12.455078125 c 2
 78 -3.744140625 l 1
 78 30 l 1
 78 203 l 1
 78 213.498046875 l 1
 86.6396484375 219.4609375 l 2
 143.958007812 259.017578125 197.508789062 288.965820312 247.854492188 310.947265625 c 1
 151.745117188 369.966796875 98 449.127929688 98 554 c 0
 98 770.16015625 255.091796875 908 453 908 c 0
 567.524414062 908 657.48828125 876.719726562 722.022460938 813.260742188 c 2
 731.604492188 803.837890625 l 1
 726.501953125 791.40625 l 1
 671.501953125 657.40625 l 1
 662.022460938 634.309570312 l 1
 641.551757812 648.600585938 l 2
 591.946289062 683.23046875 535.461914062 701 466 701 c 0
 367.767578125 701 300 647.115234375 300 555 c 0
 300 506.825195312 347.11328125 455.026367188 456.182617188 404.015625 c 1
EndSplineSet
EndChar

StartChar: uni0627
Encoding: 1575 1575 15
GlifName: uni0627
Width: 465
VWidth: 2950
GlyphClass: 2
Flags: HW
AnchorPoint: "Anchor-10" 224.871 1495.46 basechar 0
AnchorPoint: "Anchor-7" 228.587 -218.365 basechar 0
LayerCount: 2
Fore
SplineSet
148 1386 m 1
 317 1386 l 1
 337 1386 l 1
 337 1366 l 1
 337 21 l 1
 337 1 l 1
 317 1 l 1
 148 1 l 1
 128 1 l 1
 128 21 l 1
 128 1366 l 1
 128 1386 l 1
 148 1386 l 1
EndSplineSet
Substitution2: "'fina' Terminal Forms in Arabic lookup 9 subtable" uniFE8E
EndChar

StartChar: uni062D
Encoding: 1581 1581 21
GlifName: uni062D_
Width: 1347
VWidth: 2950
GlyphClass: 2
Flags: HW
AnchorPoint: "Anchor-7" 690.833 -810.619 basechar 0
AnchorPoint: "Anchor-10" 601.478 1196.07 basechar 0
LayerCount: 2
Fore
SplineSet
770.912109375 574.755859375 m 1
 760.069335938 579.194335938 751.009765625 582.91015625 737.486328125 588.46484375 c 0
 602.603515625 642.41796875 515.822265625 676 477 676 c 0
 409.677734375 676 338.298828125 630.469726562 291.858398438 569.8125 c 2
 264.8359375 534.784179688 l 1
 254.807617188 521.784179688 l 1
 240.103515625 529.087890625 l 1
 89.103515625 604.087890625 l 1
 70.0390625 613.556640625 l 1
 80.6767578125 631.994140625 l 1
 95.8095703125 658.2265625 l 1
 182.755859375 800.03125 318.540039062 894 478 894 c 0
 568.013671875 894 671.056640625 853.319335938 789.734375 795.9921875 c 0
 996.206054688 695.25 1118.53125 653.73828125 1229.04199219 647.97265625 c 2
 1249.50390625 646.905273438 l 1
 1247.94140625 626.474609375 l 1
 1234.94140625 456.474609375 l 1
 1233.63867188 439.438476562 l 1
 1216.60839844 438.064453125 l 2
 683.75390625 395.076171875 285 166.078125 285 -115 c 0
 285 -348.021484375 446.796875 -466 798 -466 c 0
 938.918945312 -466 1074.91894531 -433.759765625 1204.49707031 -372.897460938 c 2
 1227.47070312 -362.106445312 l 1
 1232.58886719 -386.966796875 l 1
 1267.58886719 -556.966796875 l 1
 1270.74609375 -572.299804688 l 1
 1256.61914062 -579.046875 l 2
 1119.59570312 -644.491210938 964.384765625 -677 784 -677 c 0
 374.47265625 -677 79 -506.997070312 79 -131 c 0
 79 189.532226562 322.9921875 456.743164062 770.912109375 574.755859375 c 1
EndSplineSet
Substitution2: "'fina' Terminal Forms in Arabic lookup 9 subtable" uniFEA2
Substitution2: "'medi' Medial Forms in Arabic lookup 11 subtable" uniFEA4
Substitution2: "'init' Initial Forms in Arabic lookup 13 subtable" uniFEA3
EndChar

StartChar: uni062F
Encoding: 1583 1583 23
GlifName: uni062F_
Width: 963
VWidth: 2950
GlyphClass: 2
Flags: HW
AnchorPoint: "Anchor-10" 371.137 1229.03 basechar 0
AnchorPoint: "Anchor-7" 432.24 -221.316 basechar 0
LayerCount: 2
Fore
SplineSet
101.966796875 246.602539062 m 2
 185.142578125 229.76953125 255.904296875 221 317 221 c 0
 565.299804688 221 669 280.969726562 669 384 c 0
 669 496.918945312 537.483398438 645.987304688 264.338867188 818.078125 c 2
 247.029296875 828.984375 l 1
 258.32421875 846.041992188 l 1
 356.32421875 994.041992188 l 1
 366.8671875 1009.96386719 l 1
 383.258789062 1000.16796875 l 2
 712.627929688 803.349609375 885 600.780273438 885 387 c 0
 885 129.795898438 691.6015625 2 330 2 c 0
 244.5703125 2 165.180664062 11.150390625 93.8095703125 26.4443359375 c 2
 78 29.83203125 l 1
 78 46 l 1
 78 227 l 1
 78 251.453125 l 1
 101.966796875 246.602539062 l 2
EndSplineSet
Substitution2: "'fina' Terminal Forms in Arabic lookup 9 subtable" uniFEAA
EndChar

StartChar: uni0631
Encoding: 1585 1585 25
GlifName: uni0631
Width: 780
VWidth: 2142
GlyphClass: 2
Flags: HW
AnchorPoint: "Anchor-10" 493.256 868.2 basechar 0
AnchorPoint: "Anchor-7" 322.969 -609.998 basechar 0
LayerCount: 2
Fore
SplineSet
618.55078125 554.475585938 m 2
 673.500976562 418.1171875 702 272.149414062 702 155 c 0
 702 -217.27734375 481.306640625 -446.399414062 53.7333984375 -527.6484375 c 2
 37.400390625 -530.751953125 l 1
 31.3642578125 -515.260742188 l 1
 -28.6357421875 -361.260742188 l 1
 -37.373046875 -338.834960938 l 1
 -13.7265625 -334.350585938 l 2
 328.80859375 -269.38671875 493.084960938 -108.393554688 495 150.07421875 c 0
 495 237.353515625 469.543945312 363.647460938 419.59375 481.176757812 c 2
 411.302734375 500.684570312 l 1
 431.258789062 507.829101562 l 1
 593.258789062 565.829101562 l 1
 611.36328125 572.311523438 l 1
 618.55078125 554.475585938 l 2
EndSplineSet
PairPos2: "'kern' Horizontal Kerning lookup 15-1" uniFEE7 dx=-178 dy=0 dh=-178 dv=0 dx=0 dy=0 dh=0 dv=0
PairPos2: "'kern' Horizontal Kerning lookup 15-2" uniFE8B dx=-178 dy=0 dh=-178 dv=0 dx=0 dy=0 dh=0 dv=0
PairPos2: "'kern' Horizontal Kerning lookup 15-2" uni0640 dx=-178 dy=0 dh=-178 dv=0 dx=0 dy=0 dh=0 dv=0
PairPos2: "'kern' Horizontal Kerning lookup 15-2" uni067E dx=-178 dy=0 dh=-178 dv=0 dx=0 dy=0 dh=0 dv=0
PairPos2: "'kern' Horizontal Kerning lookup 15-2" uni06AF dx=-226 dy=0 dh=-226 dv=0 dx=0 dy=0 dh=0 dv=0
PairPos2: "'kern' Horizontal Kerning lookup 15-2" uniFB92 dx=-226 dy=0 dh=-226 dv=0 dx=0 dy=0 dh=0 dv=0
PairPos2: "'kern' Horizontal Kerning lookup 15-2" uniFB94 dx=-226 dy=0 dh=-226 dv=0 dx=0 dy=0 dh=0 dv=0
PairPos2: "'kern' Horizontal Kerning lookup 15-2" uni0621 dx=-178 dy=0 dh=-178 dv=0 dx=0 dy=0 dh=0 dv=0
PairPos2: "'kern' Horizontal Kerning lookup 15-2" uni0622 dx=-143 dy=0 dh=-143 dv=0 dx=0 dy=0 dh=0 dv=0
PairPos2: "'kern' Horizontal Kerning lookup 15-2" uni0623 dx=-143 dy=0 dh=-143 dv=0 dx=0 dy=0 dh=0 dv=0
PairPos2: "'kern' Horizontal Kerning lookup 15-2" uni0627 dx=-143 dy=0 dh=-143 dv=0 dx=0 dy=0 dh=0 dv=0
PairPos2: "'kern' Horizontal Kerning lookup 15-2" uni0628 dx=-178 dy=0 dh=-178 dv=0 dx=0 dy=0 dh=0 dv=0
PairPos2: "'kern' Horizontal Kerning lookup 15-2" uni0629 dx=-178 dy=0 dh=-178 dv=0 dx=0 dy=0 dh=0 dv=0
PairPos2: "'kern' Horizontal Kerning lookup 15-2" uni062A dx=-178 dy=0 dh=-178 dv=0 dx=0 dy=0 dh=0 dv=0
PairPos2: "'kern' Horizontal Kerning lookup 15-2" uniFE97 dx=-178 dy=0 dh=-178 dv=0 dx=0 dy=0 dh=0 dv=0
PairPos2: "'kern' Horizontal Kerning lookup 15-2" uni062B dx=-178 dy=0 dh=-178 dv=0 dx=0 dy=0 dh=0 dv=0
PairPos2: "'kern' Horizontal Kerning lookup 15-2" uniFE9B dx=-178 dy=0 dh=-178 dv=0 dx=0 dy=0 dh=0 dv=0
PairPos2: "'kern' Horizontal Kerning lookup 15-2" uniFE9F dx=-178 dy=0 dh=-178 dv=0 dx=0 dy=0 dh=0 dv=0
PairPos2: "'kern' Horizontal Kerning lookup 15-2" uniFEA3 dx=-178 dy=0 dh=-178 dv=0 dx=0 dy=0 dh=0 dv=0
PairPos2: "'kern' Horizontal Kerning lookup 15-2" uniFEA7 dx=-178 dy=0 dh=-178 dv=0 dx=0 dy=0 dh=0 dv=0
PairPos2: "'kern' Horizontal Kerning lookup 15-2" uni062F dx=-178 dy=0 dh=-178 dv=0 dx=0 dy=0 dh=0 dv=0
PairPos2: "'kern' Horizontal Kerning lookup 15-2" uni0630 dx=-178 dy=0 dh=-178 dv=0 dx=0 dy=0 dh=0 dv=0
PairPos2: "'kern' Horizontal Kerning lookup 15-2" uni0633 dx=-178 dy=0 dh=-178 dv=0 dx=0 dy=0 dh=0 dv=0
PairPos2: "'kern' Horizontal Kerning lookup 15-2" uniFEB3 dx=-178 dy=0 dh=-178 dv=0 dx=0 dy=0 dh=0 dv=0
PairPos2: "'kern' Horizontal Kerning lookup 15-2" uni0634 dx=-178 dy=0 dh=-178 dv=0 dx=0 dy=0 dh=0 dv=0
PairPos2: "'kern' Horizontal Kerning lookup 15-2" uniFEB7 dx=-178 dy=0 dh=-178 dv=0 dx=0 dy=0 dh=0 dv=0
PairPos2: "'kern' Horizontal Kerning lookup 15-2" uni0635 dx=-178 dy=0 dh=-178 dv=0 dx=0 dy=0 dh=0 dv=0
PairPos2: "'kern' Horizontal Kerning lookup 15-2" uniFEBB dx=-178 dy=0 dh=-178 dv=0 dx=0 dy=0 dh=0 dv=0
PairPos2: "'kern' Horizontal Kerning lookup 15-2" uni0636 dx=-178 dy=0 dh=-178 dv=0 dx=0 dy=0 dh=0 dv=0
PairPos2: "'kern' Horizontal Kerning lookup 15-2" uniFEBF dx=-178 dy=0 dh=-178 dv=0 dx=0 dy=0 dh=0 dv=0
PairPos2: "'kern' Horizontal Kerning lookup 15-2" uni0637 dx=-178 dy=0 dh=-178 dv=0 dx=0 dy=0 dh=0 dv=0
PairPos2: "'kern' Horizontal Kerning lookup 15-2" uniFEC3 dx=-178 dy=0 dh=-178 dv=0 dx=0 dy=0 dh=0 dv=0
PairPos2: "'kern' Horizontal Kerning lookup 15-2" uni0638 dx=-178 dy=0 dh=-178 dv=0 dx=0 dy=0 dh=0 dv=0
PairPos2: "'kern' Horizontal Kerning lookup 15-2" uniFEC7 dx=-178 dy=0 dh=-178 dv=0 dx=0 dy=0 dh=0 dv=0
PairPos2: "'kern' Horizontal Kerning lookup 15-2" uniFECB dx=-178 dy=0 dh=-178 dv=0 dx=0 dy=0 dh=0 dv=0
PairPos2: "'kern' Horizontal Kerning lookup 15-2" uniFECF dx=-178 dy=0 dh=-178 dv=0 dx=0 dy=0 dh=0 dv=0
PairPos2: "'kern' Horizontal Kerning lookup 15-2" uni0641 dx=-178 dy=0 dh=-178 dv=0 dx=0 dy=0 dh=0 dv=0
PairPos2: "'kern' Horizontal Kerning lookup 15-2" uniFED3 dx=-178 dy=0 dh=-178 dv=0 dx=0 dy=0 dh=0 dv=0
PairPos2: "'kern' Horizontal Kerning lookup 15-2" uni0642 dx=-60 dy=0 dh=-60 dv=0 dx=0 dy=0 dh=0 dv=0
PairPos2: "'kern' Horizontal Kerning lookup 15-2" uniFED7 dx=-178 dy=0 dh=-178 dv=0 dx=0 dy=0 dh=0 dv=0
PairPos2: "'kern' Horizontal Kerning lookup 15-2" uni0643 dx=-143 dy=0 dh=-143 dv=0 dx=0 dy=0 dh=0 dv=0
PairPos2: "'kern' Horizontal Kerning lookup 15-2" uniFEDB dx=-226 dy=0 dh=-226 dv=0 dx=0 dy=0 dh=0 dv=0
PairPos2: "'kern' Horizontal Kerning lookup 15-2" uni0644 dx=-60 dy=0 dh=-60 dv=0 dx=0 dy=0 dh=0 dv=0
PairPos2: "'kern' Horizontal Kerning lookup 15-2" uniFEDF dx=-143 dy=0 dh=-143 dv=0 dx=0 dy=0 dh=0 dv=0
PairPos2: "'kern' Horizontal Kerning lookup 15-2" uniFEFB dx=-143 dy=0 dh=-143 dv=0 dx=0 dy=0 dh=0 dv=0
PairPos2: "'kern' Horizontal Kerning lookup 15-2" uni0645 dx=-178 dy=0 dh=-178 dv=0 dx=0 dy=0 dh=0 dv=0
PairPos2: "'kern' Horizontal Kerning lookup 15-2" uniFEE3 dx=-178 dy=0 dh=-178 dv=0 dx=0 dy=0 dh=0 dv=0
PairPos2: "'kern' Horizontal Kerning lookup 15-2" uni0646 dx=-60 dy=0 dh=-60 dv=0 dx=0 dy=0 dh=0 dv=0
PairPos2: "'kern' Horizontal Kerning lookup 15-2" uni0647 dx=-178 dy=0 dh=-178 dv=0 dx=0 dy=0 dh=0 dv=0
PairPos2: "'kern' Horizontal Kerning lookup 15-2" uniFEEB dx=-178 dy=0 dh=-178 dv=0 dx=0 dy=0 dh=0 dv=0
PairPos2: "'kern' Horizontal Kerning lookup 15-2" uni0649 dx=-60 dy=0 dh=-60 dv=0 dx=0 dy=0 dh=0 dv=0
PairPos2: "'kern' Horizontal Kerning lookup 15-2" uni0626 dx=-60 dy=0 dh=-60 dv=0 dx=0 dy=0 dh=0 dv=0
PairPos2: "'kern' Horizontal Kerning lookup 15-2" uni064A dx=-60 dy=0 dh=-60 dv=0 dx=0 dy=0 dh=0 dv=0
PairPos2: "'kern' Horizontal Kerning lookup 15-2" uni06A9 dx=-226 dy=0 dh=-226 dv=0 dx=0 dy=0 dh=0 dv=0
PairPos2: "'kern' Horizontal Kerning lookup 15-2" uniFB8E dx=-226 dy=0 dh=-226 dv=0 dx=0 dy=0 dh=0 dv=0
PairPos2: "'kern' Horizontal Kerning lookup 15-2" uniFB90 dx=-226 dy=0 dh=-226 dv=0 dx=0 dy=0 dh=0 dv=0
PairPos2: "'kern' Horizontal Kerning lookup 15-2" uniFBFE dx=30 dy=0 dh=30 dv=0 dx=0 dy=0 dh=0 dv=0
PairPos2: "'kern' Horizontal Kerning lookup 15-2" uni0631 dx=-30 dy=0 dh=-30 dv=0 dx=0 dy=0 dh=0 dv=0
PairPos2: "'kern' Horizontal Kerning lookup 15-2" uni0632 dx=-30 dy=0 dh=-30 dv=0 dx=0 dy=0 dh=0 dv=0
PairPos2: "'kern' Horizontal Kerning lookup 15-2" uni0624 dx=-30 dy=0 dh=-30 dv=0 dx=0 dy=0 dh=0 dv=0
PairPos2: "'kern' Horizontal Kerning lookup 15-2" uni0648 dx=-30 dy=0 dh=-30 dv=0 dx=0 dy=0 dh=0 dv=0
PairPos2: "'kern' Horizontal Kerning lookup 15-2" uni0698 dx=-40 dy=0 dh=-40 dv=0 dx=0 dy=0 dh=0 dv=0
PairPos2: "'kern' Horizontal Kerning lookup 15-5" uni06C0 dx=-178 dy=0 dh=-178 dv=0 dx=0 dy=0 dh=0 dv=0
Substitution2: "'fina' Terminal Forms in Arabic lookup 9 subtable" uniFEAE
EndChar

StartChar: uni0633
Encoding: 1587 1587 27
GlifName: uni0633
Width: 2456
VWidth: 2068
GlyphClass: 2
Flags: HW
AnchorPoint: "Anchor-10" 1764.53 902.1 basechar 0
AnchorPoint: "Anchor-7" 710.902 -696.086 basechar 0
LayerCount: 2
Fore
SplineSet
1531 0 m 0
 1463.546875 0 1406.890625 14.09765625 1360.796875 41.0478515625 c 1
 1351.671875 -134.405273438 1294.16210938 -271.99609375 1186.82617188 -367.913085938 c 0
 1072.61035156 -469.978515625 916.295898438 -520 721 -520 c 0
 297.475585938 -520 78 -318.629882812 78 76 c 0
 78 218.879882812 108.649414062 364.529296875 169.500976562 512.602539062 c 2
 177.07421875 531.029296875 l 1
 195.530273438 523.528320312 l 1
 350.530273438 460.528320312 l 1
 368.611328125 453.178710938 l 1
 361.70703125 434.924804688 l 2
 313.712890625 308.037109375 290 190.087890625 290 81 c 0
 290 -179.796875 430.282226562 -307 728 -307 c 0
 1017.30273438 -307 1156.35449219 -168.50390625 1157 120.022460938 c 0
 1157 237.286132812 1127.88085938 357.28515625 1068.9609375 480.364257812 c 2
 1059.26074219 500.625 l 1
 1078.89648438 507.364257812 l 1
 1249.5078125 565.916992188 l 1
 1268.78222656 572.532226562 l 1
 1275.03515625 553.13671875 l 1
 1334.03515625 370.13671875 l 2
 1367.00488281 267.875 1425.22460938 220.9296875 1533.0859375 220 c 0
 1653.16894531 220 1698 280.090820312 1698 409 c 0
 1698 439.766601562 1694.70605469 499.053710938 1688.05859375 585.465820312 c 2
 1686.59082031 604.551757812 l 1
 1705.59375 606.854492188 l 1
 1870.59375 626.854492188 l 1
 1891.46484375 629.384765625 l 1
 1892.95019531 608.412109375 l 1
 1908.95117188 382.390625 l 2
 1915.63964844 284.930664062 1957.09277344 220 2047 220 c 0
 2121.421875 220 2166 277.068359375 2166 422 c 0
 2166 490.623046875 2151.75878906 577.0625 2122.7421875 680.602539062 c 2
 2117.28222656 700.083984375 l 1
 2136.82519531 705.319335938 l 1
 2304.82519531 750.319335938 l 1
 2323.34375 755.279296875 l 1
 2329.08300781 736.986328125 l 2
 2361.60644531 633.317382812 2378 533.27734375 2378 437 c 0
 2378 204.923828125 2292.20898438 1.0712890625 2048.04394531 0 c 0
 1938.37988281 0 1855.38378906 42.99609375 1803.24902344 126.790039062 c 1
 1732.37402344 42.0048828125 1641.20898438 0 1531 0 c 0
EndSplineSet
Substitution2: "'fina' Terminal Forms in Arabic lookup 9 subtable" uniFEB2
Substitution2: "'medi' Medial Forms in Arabic lookup 11 subtable" uniFEB4
Substitution2: "'init' Initial Forms in Arabic lookup 13 subtable" uniFEB3
EndChar

StartChar: uni0635
Encoding: 1589 1589 29
GlifName: uni0635
Width: 2575
VWidth: 2950
GlyphClass: 2
Flags: HW
AnchorPoint: "Anchor-7" 710.902 -696.086 basechar 0
AnchorPoint: "Anchor-10" 2052.53 1148.1 basechar 0
LayerCount: 2
Fore
SplineSet
1752.93261719 221 m 2
 2118.33398438 221 2279 298.90234375 2279 433 c 0
 2279 531.409179688 2209.33007812 605 2104 605 c 0
 1968.29492188 605 1811.73632812 475.818359375 1642.10253906 220.250976562 c 1
 1752.93261719 221 l 2
1157 120.033203125 m 0
 1157 239.55859375 1126.89941406 359.577148438 1068.96679688 480.350585938 c 2
 1059.24414062 500.619140625 l 1
 1080.5078125 507.916992188 l 1
 1249.5078125 565.916992188 l 1
 1268.78222656 572.532226562 l 1
 1275.03515625 553.13671875 l 1
 1334.02636719 370.1640625 l 2
 1357.97363281 296.612304688 1384.58398438 261.662109375 1409.26953125 251.840820312 c 1
 1634.55566406 630.78515625 1859.45898438 827 2098 827 c 0
 2327.28515625 827 2497 659.29296875 2497 441.96484375 c 0
 2495.9375 143.52734375 2238.34570312 0 1757 0 c 2
 1706 0 l 2
 1553.77539062 0 1440.94335938 16.1513671875 1361.13964844 46.97265625 c 1
 1344.04882812 -330.984375 1094.09375 -520 721 -520 c 0
 296.803710938 -520 78 -318.606445312 78 76 c 0
 78 218.879882812 108.649414062 364.529296875 169.500976562 512.602539062 c 2
 177.07421875 531.029296875 l 1
 195.530273438 523.528320312 l 1
 350.530273438 460.528320312 l 1
 368.606445312 453.180664062 l 1
 361.708007812 434.928710938 l 2
 314.349609375 309.625976562 290 193.072265625 290 81 c 0
 290 -179.783203125 430.612304688 -307 728 -307 c 0
 1015.63867188 -307 1156.03222656 -168.500976562 1157 120.033203125 c 0
EndSplineSet
Substitution2: "'fina' Terminal Forms in Arabic lookup 9 subtable" uniFEBA
Substitution2: "'medi' Medial Forms in Arabic lookup 11 subtable" uniFEBC
Substitution2: "'init' Initial Forms in Arabic lookup 13 subtable" uniFEBB
EndChar

StartChar: uni0637
Encoding: 1591 1591 31
GlifName: uni0637
Width: 1471
VWidth: 2950
GlyphClass: 2
Flags: HW
AnchorPoint: "Anchor-10" 476.36 1518.58 basechar 0
AnchorPoint: "Anchor-7" 636.602 -218.453 basechar 0
LayerCount: 2
Fore
SplineSet
648.932617188 222 m 2
 1014.33398438 222 1175 299.90234375 1175 434 c 0
 1175 532.409179688 1105.33007812 606 1000 606 c 0
 864.294921875 606 707.736328125 476.818359375 538.102539062 221.250976562 c 1
 648.932617188 222 l 2
308.842773438 220 m 1
 331.104492188 255.927734375 352.450195312 289.293945312 373 321.790039062 c 1
 373 1366 l 1
 373 1386 l 1
 393 1386 l 1
 562 1386 l 1
 582 1386 l 1
 582 1366 l 1
 582 610.391601562 l 1
 706.920898438 750.256835938 842.073242188 827 991 827 c 0
 1227.97851562 827 1393 664.200195312 1393 441.928710938 c 0
 1390.87597656 143.506835938 1133.39160156 0 653 0 c 2
 98 0 l 1
 78 0 l 1
 78 20 l 1
 78 200 l 1
 78 220 l 1
 98 220 l 1
 308.842773438 220 l 1
EndSplineSet
Substitution2: "'fina' Terminal Forms in Arabic lookup 9 subtable" uniFEC2
Substitution2: "'medi' Medial Forms in Arabic lookup 11 subtable" uniFEC4
Substitution2: "'init' Initial Forms in Arabic lookup 13 subtable" uniFEC3
EndChar

StartChar: uni0639
Encoding: 1593 1593 33
GlifName: uni0639
Width: 1306
VWidth: 2970
GlyphClass: 2
Flags: HW
AnchorPoint: "Anchor-7" 670.833 -810.619 basechar 0
AnchorPoint: "Anchor-10" 694.478 1384.07 basechar 0
LayerCount: 2
Fore
SplineSet
957.889648438 785.743164062 m 2
 860.377929688 842.872070312 779.333984375 871 715 871 c 0
 606.265625 871 515 800.8671875 515 690 c 0
 515 605.926757812 556.26171875 561.998046875 613.263671875 490.744140625 c 1
 729.971679688 510.833007812 827.740234375 521 912 521 c 0
 974.861328125 521 1035.55664062 516.9453125 1095.0234375 510.897460938 c 2
 1115.57519531 508.807617188 l 1
 1112.82128906 488.333984375 l 1
 1089.82128906 317.333984375 l 1
 1087.38085938 299.189453125 l 1
 1069.09179688 300.020507812 l 2
 1025.53417969 302.000976562 991.965820312 302 971 302 c 0
 495.385742188 302 284 137.274414062 284 -137 c 0
 284 -338.591796875 443.119140625 -462 766 -462 c 0
 900.788085938 -462 1034.89160156 -429.791015625 1164.61035156 -369.844726562 c 2
 1187.50390625 -359.265625 l 1
 1192.58886719 -383.966796875 l 1
 1227.58886719 -553.966796875 l 1
 1230.70703125 -569.111328125 l 1
 1216.83496094 -575.942382812 l 2
 1081.62792969 -642.522460938 927.409179688 -674 755 -674 c 0
 383.291015625 -674 78 -503.404296875 78 -144 c 0
 78 78.720703125 176.1328125 298.5703125 405.208984375 412.163085938 c 1
 333.53125 503.520507812 302 600.099609375 302 703 c 0
 302 908.138671875 491.383789062 1089 705 1089 c 0
 811.35546875 1089 926.091796875 1047.01171875 1045.2890625 965.509765625 c 2
 1059.1328125 956.043945312 l 1
 1052.22460938 940.76171875 l 1
 986.224609375 794.76171875 l 1
 977.068359375 774.5078125 l 1
 957.889648438 785.743164062 l 2
EndSplineSet
Substitution2: "'fina' Terminal Forms in Arabic lookup 9 subtable" uniFECA
Substitution2: "'medi' Medial Forms in Arabic lookup 11 subtable" uniFECC
Substitution2: "'init' Initial Forms in Arabic lookup 13 subtable" uniFECB
EndChar

StartChar: uni0640
Encoding: 1600 1600 35
GlifName: afii57440
Width: 286
VWidth: 2950
GlyphClass: 2
Flags: HW
AnchorPoint: "Anchor-10" 143.774 870.11 basechar 0
AnchorPoint: "Anchor-7" 147.7 -216.739 basechar 0
LayerCount: 2
Fore
SplineSet
-19 0 m 1
 -19 220 l 1
 305 220 l 1
 305 0 l 1
 -19 0 l 1
EndSplineSet
EndChar

StartChar: uni0643
Encoding: 1603 1603 38
GlifName: uni0643
Width: 1871
VWidth: 2950
GlyphClass: 2
Flags: HW
AnchorPoint: "Anchor-7" 900.268 -206.468 basechar 0
AnchorPoint: "Anchor-10" 948.11 1410.05 basechar 0
LayerCount: 2
Fore
SplineSet
690.244140625 677.874023438 m 2
 751.794921875 670.924804688 805.172851562 667 849 667 c 0
 956.137695312 667 1045 681.725585938 1045 740 c 0
 1045 795.3671875 1004.19628906 815.346679688 937.9609375 825.232421875 c 0
 793.065429688 848.165039062 713 922.762695312 713 1049 c 0
 713 1210.55371094 862.166015625 1289.91796875 1120.45410156 1309.94042969 c 2
 1142 1311.61035156 l 1
 1142 1290 l 1
 1142 1165 l 1
 1142 1146.78417969 l 1
 1123.86328125 1145.08691406 l 2
 948.44140625 1128.67285156 882 1087.58789062 882 1048 c 0
 882 1012.79492188 913.296875 984.729492188 1006.03222656 970.768554688 c 0
 1141.60546875 949.5859375 1213 871.522460938 1213 744 c 0
 1213 573.76953125 1051.7265625 499 866 499 c 0
 812.725585938 499 751.805664062 504.104492188 685.00390625 514.225585938 c 2
 668 516.801757812 l 1
 668 534 l 1
 668 658 l 1
 668 680.384765625 l 1
 690.244140625 677.874023438 l 2
978 220 m 2
 1450.55664062 220 1534 312 1534 490 c 2
 1534 1366 l 5
 1534 1386 l 5
 1554 1386 l 5
 1723 1386 l 5
 1743 1386 l 5
 1743 1366 l 5
 1743 492 l 2
 1743 163 1567.44433594 0 985 0 c 2
 840 0 l 2
 358.274414062 0 78 165.641601562 78 504 c 0
 78 596.009765625 98.67578125 684.692382812 133.62890625 765.90625 c 2
 141.151367188 783.384765625 l 1
 158.982421875 776.741210938 l 1
 311.982421875 719.741210938 l 1
 330.764648438 712.744140625 l 1
 323.7265625 693.977539062 l 2
 303.521484375 640.098632812 293 584.411132812 293 529.045898438 c 0
 293.920898438 326.485351562 463.388671875 220 830 220 c 2
 978 220 l 2
EndSplineSet
Substitution2: "'fina' Terminal Forms in Arabic lookup 9 subtable" uniFEDA
Substitution2: "'medi' Medial Forms in Arabic lookup 11 subtable" uniFEDC
Substitution2: "'init' Initial Forms in Arabic lookup 13 subtable" uniFEDB
EndChar

StartChar: uni0644
Encoding: 1604 1604 39
GlifName: uni0644
Width: 1377
VWidth: 2950
GlyphClass: 2
Flags: HW
AnchorPoint: "Anchor-7" 662.902 -688.086 basechar 0
AnchorPoint: "Anchor-10" 654.908 1025.66 basechar 0
LayerCount: 2
Fore
SplineSet
353.615234375 370.686523438 m 2
 310.18359375 260.134765625 289 168.33984375 289 56 c 0
 289 -188.657226562 413.51171875 -307 675 -307 c 0
 918.327148438 -307 1037 -180 1038 88.0224609375 c 2
 1041 1366.04589844 l 5
 1041.04589844 1386 l 5
 1061 1386 l 5
 1229 1386 l 5
 1249.015625 1386 l 5
 1249 1365.984375 l 5
 1248 127 l 2
 1248 -300 1054.29589844 -520 674 -520 c 0
 281.133789062 -520 78 -324.936523438 78 57 c 0
 78 194.771484375 105.836914062 313.995117188 161.517578125 448.642578125 c 2
 169.114257812 467.013671875 l 1
 187.530273438 459.528320312 l 1
 342.530273438 396.528320312 l 1
 360.842773438 389.084960938 l 1
 353.615234375 370.686523438 l 2
EndSplineSet
Substitution2: "'fina' Terminal Forms in Arabic lookup 9 subtable" uniFEDE
Substitution2: "'medi' Medial Forms in Arabic lookup 11 subtable" uniFEE0
Substitution2: "'init' Initial Forms in Arabic lookup 13 subtable" uniFEDF
EndChar

StartChar: uni0645
Encoding: 1605 1605 40
GlifName: uni0645
Width: 1240
VWidth: 2620
GlyphClass: 2
Flags: HW
AnchorPoint: "Anchor-10" 773.952 1040.2 basechar 0
AnchorPoint: "Anchor-7" 724.983 -318.909 basechar 0
LayerCount: 2
Fore
SplineSet
593.889648438 322.87109375 m 1
 707.729492188 236.305664062 795.756835938 195 852.877929688 195 c 0
 923.303710938 195.858398438 955 230.29296875 955 315 c 0
 955 431.309570312 891.771484375 516 791 516 c 0
 710.416992188 516 644.791992188 455.266601562 593.889648438 322.87109375 c 1
92.0361328125 -646.194335938 m 2
 85.0224609375 -528.978515625 81 -428.515625 81 -323 c 0
 81 17.3564453125 126.966796875 308.509765625 380.397460938 366.353515625 c 1
 479.59765625 611.348632812 615.314453125 739.94140625 789.939453125 741 c 0
 1018.2890625 741 1162 550.060546875 1162 327 c 0
 1162 127.229492188 1061.04296875 -23 853 -23 c 0
 779.416015625 -23 695.015625 6.521484375 598.71484375 61.8427734375 c 0
 566.782226562 81.80078125 534.005859375 99.1357421875 496.837890625 118.221679688 c 0
 470.020507812 132.092773438 445.588867188 138 429.095703125 138 c 0
 349.598632812 137.235351562 294 8.8232421875 294 -295 c 0
 294 -425.494140625 298.975585938 -536.872070312 307.9296875 -643.323242188 c 2
 309.752929688 -665 l 1
 288 -665 l 1
 112 -665 l 1
 93.1611328125 -665 l 1
 92.0361328125 -646.194335938 l 2
EndSplineSet
Substitution2: "'init' Initial Forms in Arabic lookup 13 subtable" uniFEE3
Substitution2: "'medi' Medial Forms in Arabic lookup 11 subtable" uniFEE4
Substitution2: "'fina' Terminal Forms in Arabic lookup 9 subtable" uniFEE2
EndChar

StartChar: uni0647
Encoding: 1607 1607 42
GlifName: uni0647
Width: 942
VWidth: 2950
GlyphClass: 2
Flags: HW
AnchorPoint: "Anchor-10" 419.775 1229.01 basechar 0
AnchorPoint: "Anchor-7" 445.63 -222.576 basechar 0
LayerCount: 2
Fore
SplineSet
457.60546875 638.739257812 m 1
 340.991210938 533.369140625 285 443.129882812 285 369 c 0
 285 269.352539062 339.493164062 220 470 220 c 0
 601.609375 220 657 269.451171875 657 370 c 0
 657 436.759765625 591.063476562 529.044921875 457.60546875 638.739257812 c 1
390.81640625 978.13671875 m 2
 701.493164062 750.640625 864 546.973632812 864 364 c 0
 864 157.1875 707.272460938 7.12109375 471.131835938 4 c 0
 230.682617188 4 78 134.387695312 78 364 c 0
 78 505.03125 156.52734375 649.1953125 297.6328125 791.985351562 c 1
 268.901367188 816.885742188 l 1
 254.853515625 829.061523438 l 1
 265.970703125 843.9609375 l 1
 362.970703125 973.9609375 l 1
 374.82421875 989.846679688 l 1
 390.81640625 978.13671875 l 2
EndSplineSet
Substitution2: "'fina' Terminal Forms in Arabic lookup 9 subtable" uniFEEA
Substitution2: "'medi' Medial Forms in Arabic lookup 11 subtable" uniFEEC
Substitution2: "'init' Initial Forms in Arabic lookup 13 subtable" uniFEEB
EndChar

StartChar: uni0648
Encoding: 1608 1608 43
GlifName: uni0648
Width: 880
VWidth: 2142
GlyphClass: 2
Flags: HW
AnchorPoint: "Anchor-7" 415.969 -619.998 basechar 0
AnchorPoint: "Anchor-10" 430.256 1050.2 basechar 0
LayerCount: 2
Fore
SplineSet
587.927734375 9.396484375 m 1
 522.668945312 1.63671875 480.327148438 -2 457 -2 c 0
 210.545898438 -2 78 103.7265625 78 316 c 0
 78 549.03515625 217.365234375 760 428 760 c 0
 691.3359375 760 802 465.08203125 802 186 c 0
 802 -195.120117188 588.724609375 -448.125 171.747070312 -527.645507812 c 2
 155.404296875 -530.762695312 l 1
 149.364257812 -515.260742188 l 1
 89.3642578125 -361.260742188 l 1
 80.59765625 -338.758789062 l 1
 104.338867188 -334.337890625 l 2
 374.625976562 -284.008789062 530.231445312 -160.112304688 587.927734375 9.396484375 c 1
594.931640625 233.678710938 m 1
 578.515625 446.1875 516.114257812 535 420 535 c 0
 344.700195312 535 283 441.862304688 283 331 c 0
 283 253.703125 333.231445312 212 458 212 c 0
 502.1640625 212 549.713867188 220.923828125 594.931640625 233.678710938 c 1
EndSplineSet
Substitution2: "'fina' Terminal Forms in Arabic lookup 9 subtable" uniFEEE
EndChar

StartChar: uni0649
Encoding: 1609 1609 44
GlifName: uni0649
Width: 1477
VWidth: 2950
GlyphClass: 2
Flags: HW
AnchorPoint: "Anchor-7" 716.902 -656.086 basechar 0
AnchorPoint: "Anchor-10" 644.6 966.22 basechar 0
LayerCount: 2
Fore
SplineSet
379.508789062 497.422851562 m 2
 319.173828125 350.045898438 289 219.557617188 289 102 c 0
 289 -158.9296875 428.829101562 -287.025390625 724.033203125 -288 c 0
 957.865234375 -288 1197 -184.825195312 1197 -22 c 0
 1197 2.0146484375 1185.2734375 15 1136.92578125 15 c 2
 1002.87597656 16 l 2
 832.422851562 17.0595703125 742 108.737304688 742 280 c 0
 742 554.708984375 1018.69726562 778.315429688 1358.66601562 783.997070312 c 2
 1379 784.336914062 l 1
 1379 764 l 1
 1379 587 l 1
 1379 567.802734375 l 1
 1359.81835938 567.016601562 l 2
 1145.578125 558.239257812 958 434.091796875 958 289 c 0
 958 248.022460938 972.002929688 235 1005 235 c 2
 1144 235 l 2
 1307.62207031 235 1399 162.123046875 1399 18 c 0
 1399 -316.16015625 1115.98339844 -499 719 -499 c 0
 296.7265625 -499 78 -297.528320312 78 99 c 0
 78 244.391601562 114.8046875 403.961914062 187.583984375 575.799804688 c 2
 195.270507812 593.950195312 l 1
 213.530273438 586.528320312 l 1
 368.530273438 523.528320312 l 1
 387.10546875 515.978515625 l 1
 379.508789062 497.422851562 l 2
EndSplineSet
Substitution2: "'fina' Terminal Forms in Arabic lookup 9 subtable" uniFEF0
Substitution2: "'medi' Medial Forms in Arabic lookup 11 subtable" uniFBE9
Substitution2: "'init' Initial Forms in Arabic lookup 13 subtable" uniFBE8
EndChar

StartChar: uni064B
Encoding: 1611 1611 46
GlifName: uni064B_
Width: -26
VWidth: 2316
GlyphClass: 4
Flags: HW
AnchorPoint: "Anchor-10" 583.551 1123.65 mark 0
AnchorPoint: "Anchor-9" 583.551 1123.65 mark 0
AnchorPoint: "Anchor-1" 553.285 1596.25 basemark 0
AnchorPoint: "Anchor-1" 583.551 1123.65 mark 0
LayerCount: 2
Fore
SplineSet
322 1076 m 1
 322 1180 l 1
 322 1183.35768781 l 1
 325.108024057 1184.62822072 l 1
 780.108024057 1370.62822072 l 1
 787 1373.4455999 l 1
 787 1366 l 1
 787 1263 l 1
 787 1259.64913344 l 1
 783.900681343 1258.37534753 l 1
 328.900681343 1071.37534753 l 1
 322 1068.53924333 l 1
 322 1076 l 1
322 1288 m 1
 322 1392 l 1
 322 1395.35768781 l 1
 325.108024057 1396.62822072 l 1
 780.108024057 1582.62822072 l 1
 787 1585.4455999 l 1
 787 1578 l 1
 787 1475 l 1
 787 1471.64913344 l 1
 783.900681343 1470.37534753 l 1
 328.900681343 1283.37534753 l 1
 322 1280.53924333 l 1
 322 1288 l 1
EndSplineSet
EndChar

StartChar: uni064C
Encoding: 1612 1612 47
GlifName: uni064C_
Width: -26
VWidth: 2316
GlyphClass: 4
Flags: HW
AnchorPoint: "Anchor-10" 680.906 1278.67 mark 0
AnchorPoint: "Anchor-9" 680.906 1278.67 mark 0
AnchorPoint: "Anchor-1" 637.739 1852.46 basemark 0
AnchorPoint: "Anchor-1" 680.906 1278.67 mark 0
LayerCount: 2
Fore
SplineSet
484 1629 m 0
 484 1729.05477917 555.037558591 1796 652 1796 c 0
 749.502659876 1796 819 1729.8986434 819 1628 c 0
 819 1590.00544811 809.654142839 1549.63055867 794.039458443 1510.90744928 c 1
 809.500362015 1508.58747262 820.343431184 1508 830 1508 c 2
 835 1508 l 1
 835 1503 l 1
 835 1427 l 1
 835 1421.7437539 l 1
 829.750311915 1422.00623831 l 2
 810.458808408 1422.97081348 787.094110607 1424.96729285 757.039851403 1430.35472982 c 1
 692.95842221 1280.59489422 598.90224861 1205.99202128 471.867219481 1205.99202128 c 0
 335.669957454 1205.99202128 266.001786813 1302.84851761 263.000643303 1489.91979642 c 2
 262.932300473 1494.17983279 l 1
 267.127518383 1494.92328913 l 1
 346.127518383 1508.92328913 l 1
 351.877288374 1509.94223571 l 1
 351.998915284 1504.10414407 l 2
 354.994350337 1360.32326153 396.408814955 1294 473 1294 c 0
 543.270059814 1294 608.316117917 1345.35399614 665.704146525 1445.27662736 c 1
 561.8454573 1482.48115835 484 1532.16480731 484 1629 c 0
706.093184249 1528.95257809 m 1
 719.74741739 1561.61527371 731 1596.97561208 731 1627 c 0
 731 1672.4518915 696.767194245 1706 656 1706 c 0
 608.243151317 1706 574 1674.37111037 574 1625 c 0
 574 1573.73614198 641.805531364 1546.37134787 706.093184249 1528.95257809 c 1
EndSplineSet
EndChar

StartChar: uni064D
Encoding: 1613 1613 48
GlifName: uni064D_
Width: -26
VWidth: 2316
GlyphClass: 4
Flags: HW
AnchorPoint: "Anchor-7" 542.278 32.7109 mark 0
AnchorPoint: "Anchor-6" 542.278 32.7109 mark 0
AnchorPoint: "Anchor-0" 592.022 -407.025 basemark 0
AnchorPoint: "Anchor-0" 542.278 32.7109 mark 0
LayerCount: 2
Fore
SplineSet
327 -446 m 1
 327 -342 l 1
 327 -338.639524341 l 1
 330.111580725 -337.37032694 l 1
 786.111580725 -151.37032694 l 1
 793 -148.560576973 l 1
 793 -156 l 1
 793 -260 l 1
 793 -263.360475659 l 1
 789.888419275 -264.62967306 l 1
 333.888419275 -450.62967306 l 1
 327 -453.439423027 l 1
 327 -446 l 1
327 -234 m 1
 327 -130 l 1
 327 -126.639524341 l 1
 330.111580725 -125.37032694 l 1
 786.111580725 60.6296730601 l 1
 793 63.4394230274 l 1
 793 56 l 1
 793 -48 l 1
 793 -51.3604756589 l 1
 789.888419275 -52.6296730601 l 1
 333.888419275 -238.62967306 l 1
 327 -241.439423027 l 1
 327 -234 l 1
EndSplineSet
EndChar

StartChar: uni064E
Encoding: 1614 1614 49
GlifName: uni064E_
Width: -26
VWidth: 2316
GlyphClass: 4
Flags: HW
AnchorPoint: "Anchor-10" 545.66 1397.63 mark 0
AnchorPoint: "Anchor-9" 545.66 1397.63 mark 0
AnchorPoint: "Anchor-1" 541.396 1651.77 basemark 0
AnchorPoint: "Anchor-1" 545.66 1397.63 mark 0
LayerCount: 2
Fore
SplineSet
291 1349 m 1
 291 1453 l 1
 291 1456.36047566 l 1
 294.111580725 1457.62967306 l 1
 750.111580725 1643.62967306 l 1
 757 1646.43942303 l 1
 757 1639 l 1
 757 1535 l 1
 757 1531.63952434 l 1
 753.888419275 1530.37032694 l 1
 297.888419275 1344.37032694 l 1
 291 1341.56057697 l 1
 291 1349 l 1
EndSplineSet
EndChar

StartChar: uni064F
Encoding: 1615 1615 50
GlifName: uni064F_
Width: -26
VWidth: 2316
GlyphClass: 4
Flags: HW
AnchorPoint: "Anchor-10" 591.295 1359.37 mark 0
AnchorPoint: "Anchor-9" 591.295 1359.37 mark 0
AnchorPoint: "Anchor-1" 542.134 1865.4 basemark 0
AnchorPoint: "Anchor-1" 591.295 1359.37 mark 0
LayerCount: 2
Fore
SplineSet
723 1422 m 2
 695.829878765 1422 670.420276666 1423.92501871 645.268367852 1427.60036012 c 1
 578.426915432 1336.20544509 463.513263976 1286.96576554 300.273977998 1278.00751204 c 2
 295 1277.71808642 l 1
 295 1283 l 1
 295 1361 l 1
 295 1365.56291871 l 1
 299.543894354 1365.97915331 l 2
 424.391853008 1377.41560753 509.070346385 1407.47884692 555.876924189 1451.90288526 c 1
 465.126303739 1471.52934086 375 1532.09199709 375 1626 c 0
 375 1726.48549335 446.259447738 1793 543 1793 c 0
 640.040078137 1793 711 1725.9877249 711 1625 c 0
 711 1587.07224029 702.155983978 1548.08466552 687.024745786 1510.00762978 c 1
 698.717778369 1508.33340963 710.693343945 1507 723 1507 c 2
 728 1507 l 1
 728 1502 l 1
 728 1427 l 1
 728 1422 l 1
 723 1422 l 2
597.093184249 1525.95257809 m 1
 610.74741739 1558.61527371 622 1593.97561208 622 1624 c 0
 622 1669.90534222 588.646496609 1702 547 1702 c 0
 498.751670299 1702 465 1671.64435205 465 1622 c 0
 465 1570.73614198 532.805531364 1543.37134787 597.093184249 1525.95257809 c 1
EndSplineSet
EndChar

StartChar: uni0650
Encoding: 1616 1616 51
GlifName: uni0650
Width: -26
VWidth: 2316
GlyphClass: 4
Flags: HW
AnchorPoint: "Anchor-7" 571.144 -44.8242 mark 0
AnchorPoint: "Anchor-6" 571.144 -44.8242 mark 0
AnchorPoint: "Anchor-0" 619.091 -324.624 basemark 0
AnchorPoint: "Anchor-0" 571.144 -44.8242 mark 0
LayerCount: 2
Fore
SplineSet
338 -346 m 1
 338 -242 l 1
 338 -238.642312191 l 1
 341.108024057 -237.37177928 l 1
 796.108024057 -51.3717792801 l 1
 803 -48.5544001035 l 1
 803 -56 l 1
 803 -159 l 1
 803 -162.350866557 l 1
 799.900681343 -163.624652466 l 1
 344.900681343 -350.624652466 l 1
 338 -353.460756666 l 1
 338 -346 l 1
EndSplineSet
EndChar

StartChar: uni0651
Encoding: 1617 1617 52
GlifName: uni0651
Width: -26
VWidth: 2393
GlyphClass: 4
Flags: HW
AnchorPoint: "Anchor-10" 598.801 1453.71 mark 0
AnchorPoint: "Anchor-9" 598.801 1453.71 mark 0
AnchorPoint: "Anchor-1" 570.087 1839.1 basemark 0
AnchorPoint: "Anchor-1" 598.801 1453.71 mark 0
LayerCount: 2
Fore
SplineSet
612.996814272 1758.17845765 m 2
 614.000971112 1730.06206613 614.004587142 1703.12300544 615.986340519 1676.36933484 c 0
 620.470748312 1615.82594199 641.34635892 1579 681 1579 c 0
 724.05315381 1579 743 1608.63609599 743 1675 c 0
 743 1699.26222254 737.071760902 1739.14084547 726.104330813 1791.98391772 c 2
 725.039469487 1797.11461319 l 1
 730.214424756 1797.93790153 l 1
 818.214424756 1811.93790153 l 1
 822.562078279 1812.62957368 l 1
 823.798687035 1808.40449377 l 2
 835.924815406 1766.97355517 842 1725.50040198 842 1685 c 0
 842 1548.85809616 791.592387537 1478.03639671 690.02550954 1477 c 0
 649.245973611 1477 604.695041619 1495.30738022 582.56488639 1526.6395246 c 1
 557.730953684 1453.72703234 490.941331312 1433 432 1433 c 0
 334.970559993 1433 288.873817788 1497.58668621 288.873817788 1616.0779836 c 0
 288.873817788 1652.67729872 293.821732821 1686.68261077 302.176180894 1717.31558703 c 2
 303.365055224 1721.6747929 l 1
 307.821994937 1720.93196962 l 1
 385.821994937 1707.93196962 l 1
 391.043065303 1707.06179122 l 1
 389.87720501 1701.89869564 l 2
 382.974742541 1671.33064756 381 1643.7216864 381 1620 c 0
 381 1565.55463135 402.168629097 1541 444 1541 c 0
 523.873006789 1541 526.4140625 1595.95464715 526.4140625 1719.33203125 c 0
 526.4140625 1731.62153421 526.293296642 1744.45790791 526.001181741 1757.89129853 c 2
 525.890090813 1763 l 1
 531 1763 l 1
 608 1763 l 1
 612.824616331 1763 l 1
 612.996814272 1758.17845765 l 2
EndSplineSet
EndChar

StartChar: uni0652
Encoding: 1618 1618 53
GlifName: uni0652
Width: -26
VWidth: 2316
GlyphClass: 4
Flags: HW
AnchorPoint: "Anchor-10" 595.219 1271.43 mark 0
AnchorPoint: "Anchor-9" 595.219 1271.43 mark 0
AnchorPoint: "Anchor-1" 589.537 1682.66 basemark 0
AnchorPoint: "Anchor-1" 595.219 1271.43 mark 0
LayerCount: 2
Fore
SplineSet
416.07421875 1461.82128906 m 0
 416.07421875 1560.76030278 495.4657259 1640.14941406 594.40234375 1640.14941406 c 0
 693.340478986 1640.14941406 772.731445312 1560.75744395 772.731445312 1461.82128906 c 0
 772.731445312 1412.15549173 755.391067338 1369.7242964 720.94565585 1335.27888491 c 0
 686.499675663 1300.83357319 644.068129378 1283.49316406 594.40234375 1283.49316406 c 0
 495.464346166 1283.49316406 416.07421875 1362.88561349 416.07421875 1461.82128906 c 0
507.66674466 1461.02251011 m 0
 506.830625134 1412.03350703 547.292995837 1372.0173805 596.749705634 1371.92870269 c 0
 646.017190111 1372.01820637 686.038451151 1411.88213804 685.851526284 1461.0224719 c 0
 686.03863592 1510.15475388 645.993639186 1549.97096421 596.773157877 1550.11427846 c 0
 547.270007803 1549.97201754 506.832033054 1509.87272171 507.66674466 1461.02251011 c 0
EndSplineSet
EndChar

StartChar: uni0653
Encoding: 1619 1619 54
GlifName: uni0653
Width: -30
VWidth: 2673
GlyphClass: 4
Flags: HW
AnchorPoint: "Anchor-10" 461.017 1539.11 mark 0
AnchorPoint: "Anchor-9" 461.017 1539.11 mark 0
AnchorPoint: "Anchor-1" 449.017 1883.25 basemark 0
AnchorPoint: "Anchor-1" 461.017 1539.11 mark 0
LayerCount: 2
Fore
SplineSet
373.235351562 1640.82714844 m 0
 313.234150559 1640.82714844 256.13716723 1601.29444761 203.138871709 1537.87025789 c 2
 197.529221531 1531.15706997 l 1
 191.343145751 1537.34314575 l 1
 90.3431457505 1638.34314575 l 1
 85.6000309751 1643.08626053 l 1
 89.4434051622 1648.58378273 l 2
 158.365042766 1747.16857171 241.398676076 1808.68457031 338.674804688 1808.68457031 c 0
 425.351773379 1808.68457031 493.284946928 1767.62207031 574.038085938 1767.62207031 c 0
 626.641053794 1767.62207031 684.767378001 1783.93553133 748.387121826 1816.13772452 c 2
 755.560058863 1819.76842609 l 1
 759.155417528 1812.57770876 l 1
 825.155417528 1680.57770876 l 1
 828.429214084 1674.03011565 l 1
 822.197196984 1670.18945395 l 2
 752.448963731 1627.20507764 678.433103079 1604.77568603 600.071557636 1604.77568603 c 0
 516.644285317 1604.77568603 449.083760735 1640.82714844 373.235351562 1640.82714844 c 0
EndSplineSet
EndChar

StartChar: uni0657
Encoding: 1623 1623 57
GlifName: uni0657
Width: -26
VWidth: 2316
GlyphClass: 4
Flags: HW
AnchorPoint: "Anchor-10" 513.285 1400.55 mark 0
AnchorPoint: "Anchor-9" 513.285 1400.55 mark 0
AnchorPoint: "Anchor-1" 537.285 2069.85 basemark 0
AnchorPoint: "Anchor-1" 513.285 1400.55 mark 0
LayerCount: 2
Fore
SplineSet
265.124960956 1809.99843823 m 2
 304.358787057 1809.01759258 347.71461718 1805.98683215 392.881103662 1801.25204894 c 1
 493.905044067 1943.85577726 623.584882781 2022.88925735 784.533296457 2037.97817113 c 2
 790 2038.49067459 l 1
 790 2033 l 1
 790 1955 l 1
 790 1950.74734112 l 1
 785.802468983 1950.06481576 l 2
 666.206216065 1930.61827057 569.005038794 1873.8586189 494.458981628 1780.66761205 c 1
 579.790004948 1754.05741094 663 1698.09475739 663 1599 c 0
 663 1505.19842535 595.891184632 1433 501 1433 c 0
 406.244339287 1433 327 1499.62395605 327 1603 c 0
 327 1631.44559175 334.060675802 1671.50397997 348.331140834 1717.47660332 c 1
 323.088518456 1719.3127248 296.195980529 1721 265 1721 c 2
 260 1721 l 1
 260 1726 l 1
 260 1805 l 1
 260 1810.12656226 l 1
 265.124960956 1809.99843823 l 2
501 1521 m 0
 546.12704559 1521 572 1551.08074682 572 1597 c 0
 572 1652.77624618 504.399179975 1686.98009098 439.977070212 1703.1286155 c 1
 422.748015945 1661.05605279 415 1630.36185962 415 1605 c 0
 415 1555.75238902 453.794716518 1521 501 1521 c 0
EndSplineSet
EndChar

StartChar: uni065A
Encoding: 1626 1626 58
GlifName: uni065A_
Width: 1135
VWidth: 2316
GlyphClass: 4
Flags: HW
AnchorPoint: "Anchor-10" 573.285 1350.55 mark 0
AnchorPoint: "Anchor-9" 573.285 1350.55 mark 0
AnchorPoint: "Anchor-1" 571.012 1862.38 basemark 0
AnchorPoint: "Anchor-1" 573.285 1350.55 mark 0
LayerCount: 2
Fore
SplineSet
497.704368254 1441.44118232 m 1
 304.704368254 1765.44118232 l 1
 300.201739206 1773 l 1
 309 1773 l 1
 433 1773 l 1
 435.871851662 1773 l 1
 437.318894504 1770.51935513 l 1
 573.01535582 1537.89685001 l 1
 709.688944267 1770.53274524 l 1
 711.138456437 1773 l 1
 714 1773 l 1
 838 1773 l 1
 846.821605559 1773 l 1
 842.289799352 1765.43141644 l 1
 648.289799352 1441.43141644 l 1
 646.833951238 1439 l 1
 644 1439 l 1
 502 1439 l 1
 499.158529329 1439 l 1
 497.704368254 1441.44118232 l 1
EndSplineSet
EndChar

StartChar: uni0660
Encoding: 1632 1632 59
GlifName: afii57392
Width: 902
VWidth: 2655
GlyphClass: 2
Flags: HW
LayerCount: 2
Fore
SplineSet
125.080078125 503 m 4
 125.080078125 682.450195312 271.549804688 828.919921875 451 828.919921875 c 4
 630.450195312 828.919921875 776.919921875 682.450195312 776.919921875 503 c 4
 776.919921875 323.549804688 630.450195312 177.080078125 451 177.080078125 c 4
 271.549804688 177.080078125 125.080078125 323.549804688 125.080078125 503 c 4
312 503 m 0
 312 426 375 363 451 363 c 0
 527 363 590 426 590 503 c 0
 590 579 528 641 451 641 c 0
 374 641 312 579 312 503 c 0
EndSplineSet
EndChar

StartChar: uni0661
Encoding: 1633 1633 60
GlifName: afii57393
Width: 651
VWidth: 2950
GlyphClass: 2
Flags: HW
LayerCount: 2
Fore
SplineSet
292.23828125 1328.20703125 m 6
 428.62109375 1025.13476562 497 672.103515625 497 245 c 6
 497 20 l 1
 497 0 l 1
 477 0 l 1
 307 0 l 1
 287 0 l 1
 287 20 l 1
 287 248 l 6
 287 672.112304688 224.185546875 1000.98339844 100.041992188 1254.1953125 c 6
 90.255859375 1274.15625 l 5
 111.135742188 1281.78515625 l 5
 267.135742188 1338.78515625 l 5
 284.60546875 1345.16894531 l 5
 292.23828125 1328.20703125 l 6
EndSplineSet
EndChar

StartChar: uni0662
Encoding: 1634 1634 61
GlifName: afii57394
Width: 1114
VWidth: 2950
GlyphClass: 2
Flags: HW
LayerCount: 2
Fore
SplineSet
287 248 m 6
 287 672.112304688 224.185546875 1000.98339844 100.041992188 1254.1953125 c 6
 90.220703125 1274.22851562 l 5
 111.204101562 1281.80957031 l 5
 266.204101562 1337.80957031 l 5
 284.788085938 1344.52441406 l 5
 291.7265625 1326.02246094 l 6
 321.641601562 1246.25 352.684570312 1167.13378906 382.705078125 1087.08105469 c 4
 427.569335938 969.668945312 491.927734375 915 624 915 c 4
 752.0859375 915 810 1000.36328125 810 1150 c 4
 810 1200.77832031 799.830078125 1266.32617188 793.258789062 1306.79394531 c 6
 789.891601562 1327.52832031 l 5
 810.765625 1329.875 l 5
 979.765625 1348.875 l 5
 999.321289062 1351.07324219 l 5
 1001.8359375 1331.55566406 l 6
 1007.5625 1287.11621094 1016 1220.67773438 1016 1160 c 4
 1016 881.146484375 878.857421875 702 626 702 c 4
 561.354492188 702 516.573242188 710.706054688 462.563476562 731.369140625 c 5
 486.455078125 553.395507812 497 395.520507812 497 245 c 6
 497 20 l 1
 497 0 l 1
 477 0 l 1
 307 0 l 1
 287 0 l 1
 287 20 l 1
 287 248 l 6
EndSplineSet
EndChar

StartChar: uni0663
Encoding: 1635 1635 62
GlifName: afii57395
Width: 1411
VWidth: 2950
GlyphClass: 2
Flags: HW
LayerCount: 2
Fore
SplineSet
287 248 m 6
 287 672.112304688 224.185546875 1000.98339844 100.041992188 1254.1953125 c 6
 90.220703125 1274.22851562 l 5
 111.204101562 1281.80957031 l 5
 266.204101562 1337.80957031 l 5
 285.094726562 1344.63476562 l 5
 291.838867188 1325.71484375 l 6
 327.779296875 1224.8828125 364.797851562 1124.83007812 400.829101562 1023.74121094 c 4
 426.946289062 950.795898438 479.698242188 915.928710938 566.107421875 915 c 4
 634.953125 915 676.9921875 983.720703125 678 1161.05664062 c 4
 678 1193.33496094 679 1226.44921875 679 1258 c 6
 679 1276.3828125 l 5
 697.317382812 1277.92871094 l 5
 851.317382812 1290.92871094 l 5
 872.370117188 1292.70605469 l 5
 872.991210938 1271.58789062 l 6
 873.978515625 1238.02148438 875.983398438 1202.84570312 876.98828125 1168.67871094 c 4
 884.034179688 985.501953125 929.581054688 915 999 915 c 4
 1083.00683594 915 1108 991.615234375 1108 1094 c 4
 1108 1187.35058594 1096.28417969 1254.63769531 1087.29296875 1306.58886719 c 6
 1083.69433594 1327.38183594 l 5
 1104.64941406 1329.86132812 l 5
 1273.64941406 1349.86132812 l 5
 1293.33691406 1352.19140625 l 5
 1295.83984375 1332.52539062 l 6
 1302.84082031 1277.515625 1313 1199.328125 1313 1100 c 4
 1313 875.143554688 1214.76660156 702 995 702 c 4
 912.452148438 702 836.704101562 735.068359375 772.209960938 802.912109375 c 5
 708.243164062 733.927734375 635.58984375 702 568 702 c 4
 534.1484375 702 498.325195312 707.19921875 464.801757812 720.502929688 c 5
 487.348632812 547.522460938 497 403.657226562 497 245 c 6
 497 20 l 5
 497 0 l 5
 477 0 l 5
 307 0 l 5
 287 0 l 5
 287 20 l 5
 287 248 l 6
EndSplineSet
EndChar

StartChar: uni0664
Encoding: 1636 1636 63
GlifName: afii57396
Width: 1006
VWidth: 2950
GlyphClass: 2
Flags: HW
LayerCount: 2
Fore
SplineSet
775.459960938 625.443359375 m 2
 471.868164062 503.401367188 334 413.341796875 334 331 c 0
 334 259.305664062 454.838867188 220 704 220 c 2
 896 220 l 1
 915.779296875 220 l 1
 915.999023438 200.22265625 l 1
 917.999023438 20.22265625 l 1
 918.223632812 0 l 1
 898 0 l 1
 696.973632812 0 l 2
 323.98046875 1 111 102.232421875 111 327 c 0
 111 482.58203125 243.557617188 592.567382812 469.090820312 702.19140625 c 1
 292.682617188 752.36328125 194 842.609375 194 1003 c 0
 194 1228.63085938 413.740234375 1335.94824219 655.874023438 1339 c 0
 701.0703125 1339 750.549804688 1335.95996094 800.430664062 1329.8515625 c 2
 819.333984375 1327.53710938 l 1
 817.947265625 1308.54296875 l 1
 804.947265625 1130.54296875 l 1
 803.418945312 1109.62109375 l 1
 782.59375 1112.14550781 l 2
 750.23828125 1116.06738281 721.045898438 1118 694 1118 c 0
 506.607421875 1118 429 1077.92773438 429 986 c 0
 429 911.41015625 529.1484375 865.229492188 767.696289062 844.927734375 c 2
 785.797851562 843.387695312 l 1
 785.999023438 825.220703125 l 1
 787.999023438 644.220703125 l 1
 788.149414062 630.544921875 l 1
 775.459960938 625.443359375 l 2
EndSplineSet
EndChar

StartChar: uni0665
Encoding: 1637 1637 64
GlifName: afii57397
Width: 1177
VWidth: 2950
GlyphClass: 2
Flags: HW
LayerCount: 2
Fore
SplineSet
564.008789062 951.650390625 m 1
 393.427734375 763.47265625 309 597.9609375 309 478 c 4
 309 331.481445312 397.901367188 218 595 218 c 0
 776.286132812 218 869 331.919921875 869 485 c 4
 869 626.034179688 757.119140625 792.884765625 564.008789062 951.650390625 c 1
481.62109375 1305.27734375 m 2
 878.0390625 1022.26464844 1081 792.665039062 1081 462 c 4
 1081 197.733398438 898.525390625 0 591 0 c 0
 265.267578125 0 97 204.244140625 97 461 c 4
 97 686.443359375 202.345703125 865.5859375 390.196289062 1088.03417969 c 1
 348.740234375 1120.19824219 l 1
 333.571289062 1131.96777344 l 1
 344.7109375 1147.60449219 l 1
 453.7109375 1300.60449219 l 1
 465.327148438 1316.91015625 l 1
 481.62109375 1305.27734375 l 2
EndSplineSet
EndChar

StartChar: uni0666
Encoding: 1638 1638 65
GlifName: afii57398
Width: 1215
VWidth: 2950
GlyphClass: 2
Flags: HW
LayerCount: 2
Fore
SplineSet
856.56640625 15.2734375 m 6
 776.909179688 342.754882812 732.95703125 643.877929688 723.556640625 1040.04980469 c 5
 620.2890625 1012.82910156 539.778320312 999 434 999 c 4
 300.1328125 999 206.868164062 1026.27246094 84.7236328125 1081.79296875 c 6
 73 1087.12207031 l 5
 73 1100 l 5
 73 1307 l 5
 73 1338.2578125 l 5
 101.380859375 1325.15917969 l 6
 230.084960938 1265.7578125 329.8828125 1236 480 1236 c 4
 623.9296875 1236 743.712890625 1267.02148438 896.634765625 1327.59472656 c 6
 923.594726562 1338.2734375 l 5
 923.998046875 1309.27832031 l 6
 931.983398438 735.296875 982.99609375 346.94140625 1079.16015625 25.736328125 c 6
 1086.86425781 0 l 5
 1060 0 l 5
 876 0 l 5
 860.28125 0 l 5
 856.56640625 15.2734375 l 6
EndSplineSet
EndChar

StartChar: uni0667
Encoding: 1639 1639 66
GlifName: afii57399
Width: 1246
VWidth: 2950
GlyphClass: 2
Flags: HW
LayerCount: 2
Fore
SplineSet
522.30078125 16.5439453125 m 2
 432.66015625 527.497070312 270.033203125 938.459960938 83.26171875 1224.05371094 c 6
 71.3720703125 1242.23339844 l 5
 90.470703125 1252.58398438 l 5
 245.470703125 1336.58398438 l 5
 262.420898438 1345.76953125 l 5
 272.22265625 1329.16796875 l 6
 407.84375 1099.44140625 546.646484375 765.526367188 623.765625 392.817382812 c 5
 699.727539062 767.387695312 838.029296875 1099.2265625 973.77734375 1329.16796875 c 6
 983.579101562 1345.76953125 l 5
 1000.52929688 1336.58398438 l 5
 1155.52929688 1252.58398438 l 5
 1174.62792969 1242.23339844 l 5
 1162.73828125 1224.05371094 l 6
 975.983398438 938.486328125 814.344726562 527.522460938 724.69921875 16.5439453125 c 2
 721.796875 -0 l 1
 705 0 l 1
 542 0 l 1
 525.203125 0 l 1
 522.30078125 16.5439453125 l 2
EndSplineSet
EndChar

StartChar: uni0668
Encoding: 1640 1640 67
GlifName: afii57400
Width: 1246
VWidth: 2950
GlyphClass: 2
Flags: HW
LayerCount: 2
Fore
SplineSet
542 1325 m 5
 705 1325 l 5
 721.796875 1325 l 5
 724.69921875 1308.45605469 l 6
 814.344726562 797.477539062 975.983398438 386.514648438 1162.73828125 100.946289062 c 2
 1174.62792969 82.7666015625 l 1
 1155.52929688 72.416015625 l 1
 1000.52929688 -11.583984375 l 1
 983.579101562 -20.76953125 l 1
 973.77734375 -4.16796875 l 2
 838.17578125 225.524414062 699.326171875 559.591796875 623.765625 932.182617188 c 1
 546.236328125 557.490234375 407.993164062 225.811523438 272.22265625 -4.16796875 c 2
 262.420898438 -20.76953125 l 1
 245.470703125 -11.583984375 l 1
 90.470703125 72.416015625 l 1
 71.3720703125 82.7666015625 l 1
 83.26171875 100.946289062 l 2
 270.033203125 386.540039062 432.66015625 797.502929688 522.30078125 1308.45605469 c 6
 525.203125 1325 l 5
 542 1325 l 5
EndSplineSet
EndChar

StartChar: uni0669
Encoding: 1641 1641 68
GlifName: afii57401
Width: 1026
GlyphClass: 2
Flags: HW
LayerCount: 2
Fore
SplineSet
87 927 m 4
 87 1127.8046875 247.026367188 1333 462 1333 c 4
 745.155273438 1333 819.36328125 1110.11425781 833.974609375 828.013671875 c 4
 849.31640625 519.166992188 860.321289062 276.724609375 866.993164062 20.5205078125 c 2
 867.52734375 -0 l 1
 847 0 l 1
 679 0 l 1
 659.514648438 0 l 1
 659.006835938 19.478515625 l 2
 655.650390625 148.14453125 645.758789062 459.748046875 641.6796875 612.973632812 c 5
 603.229492188 603.43359375 550.11328125 594 483 594 c 4
 227.580078125 594 87 690.279296875 87 927 c 4
461 1122 m 4
 368.975585938 1122 293 1024.79980469 293 927 c 4
 293 845.818359375 334.40234375 804 486 804 c 4
 526.500976562 804 590.438476562 815.171875 626.021484375 824.025390625 c 5
 619.278320312 929.29296875 608.717773438 1017.86425781 573.994140625 1068.72265625 c 4
 551.052734375 1102.32226562 518.153320312 1122 461 1122 c 4
EndSplineSet
EndChar

StartChar: uni066A
Encoding: 1642 1642 69
GlifName: afii57381
Width: 1033
VWidth: 4036
GlyphClass: 2
Flags: HW
LayerCount: 2
Fore
SplineSet
750 1350 m 1
 882 1290 l 1
 900 1282 l 1
 302 -1 l 1
 284 7 l 1
 152 67 l 1
 133 75 l 1
 732 1358 l 1
 750 1350 l 1
617 213 m 0
 617 297 686 367 770 367 c 0
 854 367 923 297 923 213 c 0
 923 129 854 60 770 60 c 0
 685 60 617 126 617 213 c 0
110 1139 m 0
 110 1223 179 1293 263 1293 c 0
 347 1293 416 1223 416 1139 c 0
 416 1055 347 986 263 986 c 0
 178 986 110 1052 110 1139 c 0
EndSplineSet
EndChar

StartChar: uni066B
Encoding: 1643 1643 70
GlifName: uni066B_
Width: 772
VWidth: 2950
GlyphClass: 2
Flags: HW
LayerCount: 2
Fore
SplineSet
541.826171875 751.405273438 m 1
 668.826171875 697.405273438 l 1
 687.352539062 689.52734375 l 1
 679.353515625 671.052734375 l 1
 217.353515625 -395.947265625 l 1
 209.421875 -414.265625 l 1
 191.087890625 -406.368164062 l 1
 61.087890625 -350.368164062 l 1
 42.62890625 -342.416992188 l 1
 50.6708984375 -323.997070312 l 1
 515.670898438 741.002929688 l 1
 523.596679688 759.15625 l 1
 541.826171875 751.405273438 l 1
EndSplineSet
PairPos2: "'kern' Horizontal Kerning lookup 15-4" uni06F2 dx=-130 dy=0 dh=-130 dv=0 dx=0 dy=0 dh=0 dv=0
PairPos2: "'kern' Horizontal Kerning lookup 15-4" uni06F3 dx=-130 dy=0 dh=-130 dv=0 dx=0 dy=0 dh=0 dv=0
PairPos2: "'kern' Horizontal Kerning lookup 15-4" uni06F4 dx=-110 dy=0 dh=-110 dv=0 dx=0 dy=0 dh=0 dv=0
EndChar

StartChar: uni066C
Encoding: 1644 1644 71
GlifName: uni066C_
Width: 560
GlyphClass: 2
Flags: HW
LayerCount: 2
Fore
SplineSet
165.919616125 -315.939395391 m 1
 70.9196161248 -243.939395391 l 1
 55.3911820575 -232.17047694 l 1
 66.7505615464 -216.33999357 l 2
 127.564294402 -131.589696464 164.276796031 -34.7891152609 167 52.2767907262 c 2
 167 219 l 1
 167 239 l 1
 187 239 l 1
 358 239 l 1
 378 239 l 1
 378 219 l 1
 378 74 l 2
 378 -85.668430415 283.441091168 -240.02056739 190.619699852 -315.515900736 c 2
 178.435931315 -325.425444798 l 1
 165.919616125 -315.939395391 l 1
EndSplineSet
EndChar

StartChar: uni066D
Encoding: 1645 1645 72
GlifName: afii63167
Width: 1436
VWidth: 2948
GlyphClass: 2
Flags: HW
LayerCount: 2
Fore
SplineSet
151 1059 m 1
 568.518065947 1059 l 1
 698.998777521 1456.24127746 l 1
 718 1514.08944367 l 1
 737.001222479 1456.24127746 l 1
 867.481934053 1059 l 1
 1285 1059 l 1
 1346.08003475 1059 l 1
 1296.82927642 1022.87336925 l 1
 959.511152077 775.442309559 l 1
 1089.01043316 379.213165958 l 1
 1108.08318443 320.856240412 l 1
 1058.29691896 356.781556978 l 1
 718 602.336720088 l 1
 377.703081044 356.781556978 l 1
 327.916815568 320.856240412 l 1
 346.989566844 379.213165958 l 1
 476.488847923 775.442309559 l 1
 139.170723577 1022.87336925 l 1
 89.9199652515 1059 l 1
 151 1059 l 1
EndSplineSet
EndChar

StartChar: uni066E
Encoding: 1646 1646 73
GlifName: uni066E_
Width: 1767
VWidth: 2950
GlyphClass: 2
Flags: HW
AnchorPoint: "Anchor-10" 973.36 1433.35 basechar 0
AnchorPoint: "Anchor-7" 923.36 -239.261 basechar 0
LayerCount: 2
Fore
SplineSet
965 0 m 2
 840 0 l 2
 358 0 78 166 78 504 c 0
 78 596 99 685 134 766 c 2
 141 783 l 5
 159 777 l 1
 312 720 l 1
 331 713 l 1
 324 694 l 2
 304 640 293 584 293 529 c 0
 294 326 463 220 830 220 c 2
 958 220 l 2
 1239 220 1476 222 1476 468 c 0
 1476 525 1463 608 1440 709 c 2
 1436 728 l 1
 1455 732 l 1
 1615 772 l 1
 1633 777 l 1
 1639 759 l 2
 1673 657 1689 566 1689 483 c 0
 1689 61 1375 0 965 0 c 2
EndSplineSet
Substitution2: "'fina' Terminal Forms in Arabic lookup 9 subtable" uni066E.fina
EndChar

StartChar: uni066F
Encoding: 1647 1647 74
GlifName: uni066F_
Width: 1437
VWidth: 2950
GlyphClass: 2
Flags: HW
AnchorPoint: "Anchor-10" 115.809 1380.22 basechar 0
AnchorPoint: "Anchor-7" 329.219 -743.353 basechar 0
LayerCount: 2
Fore
SplineSet
1140.98632812 310.58984375 m 1
 1122.58007812 445.911132812 1073.95703125 584 971 584 c 0
 902.315429688 584 831 504.983398438 831 396 c 0
 831 326.567382812 875.409179688 289 987 289 c 0
 1038.2109375 289 1090.30273438 297.03515625 1140.98632812 310.58984375 c 1
361.708007812 494.928710938 m 2
 314.349609375 369.625976562 290 253.072265625 290 141 c 0
 290 -119.022460938 426.79296875 -247 725 -247 c 0
 1041.40332031 -247 1147.6796875 -120.822265625 1159.1171875 102.53125 c 1
 1100.58007812 87.5244140625 1039.50585938 79 971 79 c 0
 753.203125 79 631 177.826171875 631 369 c 0
 631 577.576171875 755.986328125 799 978 799 c 0
 1267.24316406 799 1359 478.268554688 1359 176 c 0
 1359 -247.9375 1160.36035156 -460 721 -460 c 0
 293.78125 -460 78 -258.510742188 78 136 c 0
 78 278.879882812 108.649414062 424.529296875 169.500976562 572.602539062 c 2
 177.07421875 591.029296875 l 1
 195.530273438 583.528320312 l 1
 350.530273438 520.528320312 l 1
 368.606445312 513.180664062 l 1
 361.708007812 494.928710938 l 2
EndSplineSet
Substitution2: "'fina' Terminal Forms in Arabic lookup 9 subtable" uni066F.fina
EndChar

StartChar: uni0670
Encoding: 1648 1648 75
GlifName: uni0670
Width: -29
VWidth: 2574
GlyphClass: 4
Flags: HW
AnchorPoint: "Anchor-10" 636.984 1500.61 mark 0
AnchorPoint: "Anchor-9" 636.984 1500.61 mark 0
AnchorPoint: "Anchor-1" 636.984 1957.18 basemark 0
AnchorPoint: "Anchor-1" 636.984 1500.61 mark 0
LayerCount: 2
Fore
SplineSet
588 1568 m 1
 588 1930 l 5
 588 1935 l 5
 593 1935 l 5
 681 1935 l 5
 686 1935 l 5
 686 1930 l 5
 686 1568 l 1
 686 1563 l 1
 681 1563 l 1
 593 1563 l 1
 588 1563 l 1
 588 1568 l 1
EndSplineSet
EndChar

StartChar: uni0674
Encoding: 1652 1652 76
GlifName: uni0674
Width: 551
VWidth: 2539
GlyphClass: 2
Flags: HW
LayerCount: 2
Fore
SplineSet
478.998506745 2172.1768504 m 1
 437.62568103 2197.01285538 394.640808474 2213 351 2213 c 0
 281.607701206 2213 236 2186.87535555 236 2120.00001562 c 0
 237.018251636 2079.28649219 259.502674417 2048.81364113 320.999795413 2025.99995763 c 0
 327.567635625 2023.81034153 333.371508304 2022.1953125 338.90234375 2022.1953125 c 0
 341.689318567 2022.1953125 341.527773158 2022.19875102 346.359186227 2023.26006191 c 0
 392.168865869 2032.04612374 439.673170836 2042.06393682 485 2051.00548459 c 1
 485 1925.00019181 l 1
 78 1827.00019182 l 1
 78 1949.99973449 l 1
 110.399871113 1957.34839054 142.799742226 1964.6970466 175.199613339 1972.04570265 c 1
 129.028745497 2013.07072556 111 2061.25749568 111 2133 c 0
 111 2263.95319071 209.093105425 2346 337 2346 c 0
 387.42818291 2346 435.116868906 2329.73635995 478.000353415 2303.01749067 c 1
 478.998506745 2172.1768504 l 1
EndSplineSet
EndChar

StartChar: uni06A1
Encoding: 1697 1697 80
GlifName: uni06A_1
Width: 1761
VWidth: 2950
GlyphClass: 2
Flags: HW
AnchorPoint: "Anchor-10" 637.853 1648.62 basechar 0
AnchorPoint: "Anchor-7" 620.182 -334.248 basechar 0
LayerCount: 2
Fore
SplineSet
1487.75390625 383.12890625 m 1
 1431.94726562 368.552734375 1371.40234375 361 1308 361 c 0
 1084.20800781 361 962 460.03125 962 658 c 0
 962 872.09765625 1090.59667969 1081 1308 1081 c 0
 1579.86621094 1081 1683 775.193359375 1683 480.947265625 c 0
 1680.93847656 87.119140625 1507.93554688 0 1107 0 c 2
 837 0 l 2
 347.118164062 0 78 165.9765625 78 504 c 0
 78 596.009765625 98.67578125 684.692382812 133.62890625 765.90625 c 2
 141.151367188 783.384765625 l 1
 158.982421875 776.741210938 l 1
 311.982421875 719.741210938 l 1
 330.764648438 712.744140625 l 1
 323.7265625 693.977539062 l 2
 303.513671875 640.076171875 293 584.465820312 293 529 c 0
 293 326.974609375 475.088867188 220 833 220 c 2
 1128 220 l 2
 1366.06445312 220 1474.95410156 254.186523438 1487.75390625 383.12890625 c 1
1471.82714844 592.610351562 m 1
 1452.23828125 727.258789062 1403.68164062 865 1302 865 c 0
 1233.1328125 865 1162 787.931640625 1162 677 c 0
 1162 607.743164062 1206.13085938 571 1319 571 c 0
 1369.30371094 571 1420.24023438 578.966796875 1471.82714844 592.610351562 c 1
EndSplineSet
Substitution2: "'init' Initial Forms in Arabic lookup 13 subtable" uni06A1.init
Substitution2: "'medi' Medial Forms in Arabic lookup 11 subtable" uni06A1.medi
Substitution2: "'fina' Terminal Forms in Arabic lookup 9 subtable" uni06A1.fina
EndChar

StartChar: uni06A9
Encoding: 1705 1705 81
GlifName: uni06A_9
Width: 1845
VWidth: 2950
GlyphClass: 2
Flags: HW
AnchorPoint: "Anchor-7" 900.268 -206.468 basechar 0
AnchorPoint: "Anchor-10" 1173.88 1384.67 basechar 0
LayerCount: 2
Fore
SplineSet
1149.24902344 1020.89160156 m 5
 1311.8203125 882.969726562 1434.23535156 770.967773438 1509.24023438 690.193359375 c 0
 1595.81835938 595.561523438 1642.06542969 489.615234375 1642.06542969 375.299804688 c 0
 1642.06542969 118.31640625 1418.31835938 0 1011 0 c 2
 840 0 l 2
 358.599609375 0 78 165.205078125 78 504 c 0
 78 596.108398438 98.2421875 685.313476562 133.737304688 766.477539062 c 2
 141.338867188 783.859375 l 1
 159.096679688 777.185546875 l 1
 312.442382812 719.559570312 l 1
 331.192382812 712.513671875 l 1
 324.118164062 693.774414062 l 2
 303.599609375 639.416992188 293 584.0703125 293 529.036132812 c 0
 293.927734375 326.739257812 463.26171875 220 830 220 c 2
 1010 220 l 2
 1301.52636719 220 1426.00488281 284.907226562 1426.00488281 391.697265625 c 0
 1426.00488281 451.418945312 1396.14453125 511.32421875 1328.69042969 574.866210938 c 0
 1227.12304688 669.463867188 1135.30273438 748.299804688 1055.90722656 810.823242188 c 0
 977.7578125 871.4921875 935 938.41796875 935 1012 c 0
 935 1106.08496094 987 1175 1087.14453125 1211.45410156 c 6
 1784.67871094 1469.39746094 l 5
 1784.67871094 1440.64453125 l 5
 1784.67871094 1269.64453125 l 5
 1784.67871094 1255.73144531 l 5
 1149.24902344 1020.89160156 l 5
EndSplineSet
Substitution2: "'init' Initial Forms in Arabic lookup 13 subtable" uniFB90
Substitution2: "'medi' Medial Forms in Arabic lookup 11 subtable" uniFB91
Substitution2: "'fina' Terminal Forms in Arabic lookup 9 subtable" uniFB8F
EndChar

StartChar: uni06BA
Encoding: 1722 1722 83
GlifName: afii57514
Width: 1447
VWidth: 2950
GlyphClass: 2
Flags: HW
LayerCount: 2
Fore
SplineSet
1080.5078125 577.916992188 m 1
 1249.5078125 635.916992188 l 1
 1267.62207031 642.133789062 l 1
 1274.61816406 624.305664062 l 2
 1337.37988281 464.365234375 1369 309.833007812 1369 160 c 0
 1369 -237.3125 1115.41796875 -450 721 -450 c 0
 296.771484375 -450 78 -247.6015625 78 146 c 0
 78 288.879882812 108.649414062 434.529296875 169.500976562 582.602539062 c 2
 177.07421875 601.029296875 l 1
 195.530273438 593.528320312 l 1
 350.530273438 530.528320312 l 1
 368.606445312 523.180664062 l 1
 361.708007812 504.928710938 l 2
 314.349609375 379.625976562 290 263.072265625 290 151 c 0
 290 -108.791992188 430.65625 -237 728 -237 c 0
 1015.59570312 -237 1156.03222656 -97.44921875 1157 190.033203125 c 0
 1157 309.55859375 1126.89941406 429.577148438 1068.96679688 550.350585938 c 2
 1059.24414062 570.619140625 l 1
 1080.5078125 577.916992188 l 1
EndSplineSet
Substitution2: "'fina' Terminal Forms in Arabic lookup 9 subtable" uniFB9F
EndChar

StartChar: uni06F4
Encoding: 1780 1780 90
GlifName: uni06F_4
Width: 1193
VWidth: 2950
GlyphClass: 2
Flags: HW
LayerCount: 2
Fore
SplineSet
1084.0625 674.697265625 m 2
 998.475585938 636.998046875 915.294921875 614 820 614 c 0
 663.421875 614 544.993164062 656.79296875 459.864257812 720.249023438 c 1
 481.056640625 538.0703125 492 383.6796875 492 245 c 2
 492 20 l 1
 492 0 l 1
 472 0 l 1
 302 0 l 1
 282 0 l 1
 282 20 l 1
 282 248 l 2
 282 672.112304688 219.185546875 1000.98339844 95.0419921875 1254.1953125 c 2
 85.2001953125 1274.27050781 l 1
 106.243164062 1281.82421875 l 1
 262.243164062 1337.82421875 l 1
 281.225585938 1344.63867188 l 1
 287.879882812 1325.59863281 l 1
 359.879882812 1119.59863281 l 2
 388.70703125 1037.12109375 407.337890625 992.797851562 420.012695312 969.34375 c 1
 444.822265625 1153.68652344 571.842773438 1347 796 1347 c 0
 946.9140625 1347 1034.65722656 1281.00683594 1048 1271 c 2
 1059.86425781 1262.10253906 l 1
 1054.79589844 1248.16503906 l 1
 998.795898438 1094.16503906 l 1
 991.126953125 1073.07617188 l 1
 942.564225023 1097.35635452 912.35866108 1126.40722656 807.034179688 1126.40722656 c 4
 689.877929688 1126.40722656 619.55859375 1029.3203125 608.771484375 919.052734375 c 0
 602.806640625 858.083984375 605.579101562 864.234375 652.549804688 847.953125 c 0
 690.161132812 834.916992188 737.578125 827 799 827 c 0
 887.301757812 827 966.552734375 850.961914062 1045.57226562 882.569335938 c 2
 1069.40039062 892.100585938 l 1
 1072.82128906 866.666015625 l 1
 1095.82128906 695.666015625 l 1
 1097.82617188 680.759765625 l 1
 1084.0625 674.697265625 l 2
EndSplineSet
PairPos2: "'kern' Horizontal Kerning lookup 15-4" uni06F0 dx=-64 dy=0 dh=-64 dv=0 dx=0 dy=0 dh=0 dv=0
PairPos2: "'kern' Horizontal Kerning lookup 15-4" uni06F5 dx=-40 dy=0 dh=-40 dv=0 dx=0 dy=0 dh=0 dv=0
PairPos2: "'kern' Horizontal Kerning lookup 15-4" uni06F8 dx=-64 dy=0 dh=-64 dv=0 dx=0 dy=0 dh=0 dv=0
PairPos2: "'kern' Horizontal Kerning lookup 15-4" uni06F1 dx=-64 dy=0 dh=-64 dv=0 dx=0 dy=0 dh=0 dv=0
PairPos2: "'kern' Horizontal Kerning lookup 15-4" uni06F9 dx=-64 dy=0 dh=-64 dv=0 dx=0 dy=0 dh=0 dv=0
EndChar

StartChar: uni06F5
Encoding: 1781 1781 91
GlifName: uni06F_5
Width: 1246
VWidth: 2950
GlyphClass: 2
Flags: HW
LayerCount: 2
Fore
SplineSet
396 210 m 0
 471 210 504 231 541 431 c 2
 544 447 l 1
 561 447 l 1
 685 447 l 1
 702 447 l 1
 705 430 l 2
 738 232 777 210 854 210 c 0
 910 210 946 252 946 344 c 0
 946 538 853 729 619 979 c 1
 400 686 300 505 300 344 c 0
 300 256 346 210 396 210 c 0
549 1348 m 2
 971 956 1150 659 1150 345 c 0
 1150 113 1040 0 854 0 c 0
 754 0 668 60 624 147 c 1
 584 60 505 0 397 0 c 0
 217 0 96 120 96 345 c 0
 96 610 268 858 465 1128 c 1
 416 1176 l 1
 404 1188 l 1
 414 1202 l 1
 519 1345 l 1
 532 1363 l 1
 549 1348 l 2
EndSplineSet
PairPos2: "'kern' Horizontal Kerning lookup 15-4" uni06F2 dx=-100 dy=0 dh=-100 dv=0 dx=0 dy=0 dh=0 dv=0
PairPos2: "'kern' Horizontal Kerning lookup 15-4" uni06F3 dx=-100 dy=0 dh=-100 dv=0 dx=0 dy=0 dh=0 dv=0
PairPos2: "'kern' Horizontal Kerning lookup 15-4" uni06F4 dx=-42 dy=0 dh=-42 dv=0 dx=0 dy=0 dh=0 dv=0
PairPos2: "'kern' Horizontal Kerning lookup 15-4" uni06F6 dx=-42 dy=0 dh=-42 dv=0 dx=0 dy=0 dh=0 dv=0
PairPos2: "'kern' Horizontal Kerning lookup 15-4" uni06F7 dx=-100 dy=0 dh=-100 dv=0 dx=0 dy=0 dh=0 dv=0
PairPos2: "'kern' Horizontal Kerning lookup 15-4" uni06F8 dx=-38 dy=0 dh=-38 dv=0 dx=0 dy=0 dh=0 dv=0
EndChar

StartChar: uni06F6
Encoding: 1782 1782 92
GlifName: uni06F_6
Width: 1009
VWidth: 2950
GlyphClass: 2
Flags: HW
LayerCount: 2
Fore
SplineSet
872.548828125 899.524414062 m 5
 879.208007812 876.572265625 l 1
 926.208007812 714.572265625 l 1
 931.029296875 697.953125 l 1
 644.258789062 563.0625 486.637773655 347.879727556 294.622070312 -44.6875 c 1
 275.8125 -36.2470703125 l 1
 119.8125 33.7529296875 l 1
 102.231445312 41.6416015625 l 1
 210.800731883 285.18216899 306.684570312 432.590820312 441.6484375 582.658203125 c 5
 225.774414062 627.067382812 113 759.189453125 113 909 c 4
 113 1122.01074219 272.106445312 1340 528 1340 c 4
 593.774414062 1340 677.900390625 1331.40429688 770.005859375 1270.69921875 c 6
 783.596679688 1261.74121094 l 5
 777.5859375 1246.61425781 l 5
 717.5859375 1095.61425781 l 5
 709.498046875 1075.25976562 l 5
 689.9609375 1085.15917969 l 6
 617.83203125 1121.70410156 574.975585938 1123 535 1123 c 4
 424.4609375 1123 327 1009.95214844 327 916 c 4
 327 858.389648438 389.344726562 778.81640625 621.505859375 758.288085938 c 5
 713.47265625 816.24609375 754 841 851.129882812 888.924804688 c 6
 872.548828125 899.524414062 l 5
EndSplineSet
PairPos2: "'kern' Horizontal Kerning lookup 15-4" uni06F7 dx=-40 dy=0 dh=-40 dv=0 dx=0 dy=0 dh=0 dv=0
PairPos2: "'kern' Horizontal Kerning lookup 15-4" uni06F8 dx=-40 dy=0 dh=-40 dv=0 dx=0 dy=0 dh=0 dv=0
PairPos2: "'kern' Horizontal Kerning lookup 15-4" uni06F9 dx=-30 dy=0 dh=-30 dv=0 dx=0 dy=0 dh=0 dv=0
EndChar

StartChar: uniFB8F
Encoding: 64399 64399 107
GlifName: uniF_B_8F_
Width: 1921
VWidth: 2950
GlyphClass: 2
Flags: HW
AnchorPoint: "Anchor-10" 1173.88 1384.67 basechar 0
AnchorPoint: "Anchor-7" 900.268 -206.468 basechar 0
LayerCount: 2
Fore
SplineSet
1149.24902344 1020.89160156 m 1
 1307.15136719 885.607421875 1432.56152344 774.450195312 1509.6796875 690.583007812 c 0
 1566.05371094 630.034179688 1608.22363281 552.431640625 1641.84179688 458.70703125 c 0
 1699.33496094 295.97265625 1789.59667969 220 1913 220 c 2
 1939 220 l 5
 1939 200 l 5
 1939 20 l 5
 1939 0 l 5
 1913 0 l 2
 1769.57519531 0 1654.22363281 58.6845703125 1564.62011719 166.099609375 c 1
 1471.90527344 52.021484375 1289.90234375 0 1010 0 c 2
 838 0 l 2
 357.231445312 0 78 165.689453125 78 504 c 0
 78 596.009765625 98.67578125 684.692382812 133.62890625 765.90625 c 2
 141.151367188 783.384765625 l 1
 158.982421875 776.741210938 l 1
 311.982421875 719.741210938 l 1
 330.764648438 712.744140625 l 1
 323.7265625 693.977539062 l 2
 303.521484375 640.098632812 293 584.411132812 293 529.045898438 c 0
 293.920898438 326.421875 462.4453125 220 828 220 c 2
 1010 220 l 2
 1301.69433594 220 1426 285.3984375 1426 393 c 0
 1426 451.252929688 1394.21582031 511.392578125 1327.31738281 574.413085938 c 0
 1221.64160156 673.109375 1130.91699219 752.836914062 1055.73535156 811.202148438 c 0
 977.235351562 872.142578125 935 938.599609375 935 1012 c 0
 935 1106.0078125 988 1175 1087.14453125 1211.45410156 c 2
 1784.67871094 1469.39746094 l 1
 1784.67871094 1440.64453125 l 1
 1784.67871094 1269.64453125 l 1
 1784.67871094 1255.73144531 l 1
 1149.24902344 1020.89160156 l 1
EndSplineSet
EndChar

StartChar: uniFB9F
Encoding: 64415 64415 115
GlifName: uniF_B_9F_
Width: 1513
VWidth: 2950
GlyphClass: 2
Flags: HW
AnchorPoint: "Anchor-10" 687.458 1384.61 basechar 0
AnchorPoint: "Anchor-7" 579.902 -782.086 basechar 0
LayerCount: 2
Fore
SplineSet
1157 120.034179688 m 0
 1157 239.318359375 1126.39257812 359.600585938 1068.73632812 480.22265625 c 2
 1059.08691406 500.411132812 l 1
 1080.22753906 507.743164062 l 1
 1249.16601562 566.333984375 l 1
 1268.52050781 573.046875 l 1
 1274.76757812 553.537109375 l 1
 1347.1328125 327.521484375 l 2
 1371.40527344 252.833984375 1406.75390625 220 1503 220 c 2
 1531 220 l 5
 1531 200 l 5
 1531 20 l 5
 1531 0 l 5
 1507 0 l 2
 1438.60449219 0 1395.51269531 13.5849609375 1360.50878906 37.697265625 c 1
 1338.16894531 -325.684570312 1091.76953125 -520 721 -520 c 0
 296.6171875 -520 77.99609375 -318.458984375 77.99609375 76.2255859375 c 0
 77.99609375 219.265625 108.83984375 365.239257812 169.5859375 513.000976562 c 2
 177.17578125 531.462890625 l 1
 195.65234375 523.909179688 l 1
 350.99609375 460.403320312 l 1
 369.092773438 453.004882812 l 1
 362.107421875 434.744140625 l 2
 314.306640625 309.793945312 290 192.916992188 290 81 c 0
 290 -179.890625 430.846679688 -307 728 -307 c 0
 1015.56933594 -307 1156.02832031 -168.455078125 1157 120.034179688 c 0
EndSplineSet
EndChar

StartChar: uniFBE8
Encoding: 64488 64488 118
GlifName: uniF_B_E_8
Width: 672
VWidth: 2950
GlyphClass: 2
Flags: HW
AnchorPoint: "Anchor-10" 311.384 1371 basechar 0
AnchorPoint: "Anchor-7" 303.422 -205.625 basechar 0
LayerCount: 2
Fore
SplineSet
545.166992188 764.712890625 m 2
 576.6953125 658.940429688 594 537.302734375 594 438 c 4
 594 133.33203125 441.659179688 0 129 0 c 2
 -19 0 l 1
 -19 20 l 1
 -19 200 l 1
 -19 220 l 1
 129 220 l 2
 320.008789062 220 383 251.391601562 383 435 c 4
 383 510.703125 369.232421875 620.653320312 346.561523438 714.293945312 c 2
 341.890625 733.587890625 l 1
 361.149414062 738.403320312 l 1
 521.149414062 778.403320312 l 1
 539.703125 783.041015625 l 1
 545.166992188 764.712890625 l 2
EndSplineSet
EndChar

StartChar: uniFBE9
Encoding: 64489 64489 119
GlifName: uniF_B_E_9
Width: 747
VWidth: 2950
GlyphClass: 2
Flags: HW
AnchorPoint: "Anchor-10" 315.665 1315.09 basechar 0
AnchorPoint: "Anchor-7" 380.537 -159.742 basechar 0
LayerCount: 2
Fore
SplineSet
743 0 m 6
 615.172851562 0 526.9765625 43.6611328125 470.807617188 127.825195312 c 5
 396.352539062 41.3662109375 283.5859375 0 126 0 c 2
 -19 0 l 1
 -19 20 l 1
 -19 200 l 1
 -19 220 l 1
 121 220 l 2
 314.422851562 220 362.071289062 258.51953125 363 407.0625 c 4
 363 471.399414062 359.229492188 544.89453125 355.043945312 607.669921875 c 6
 353.77734375 626.674804688 l 5
 372.698242188 628.8671875 l 5
 536.698242188 647.8671875 l 5
 557.59765625 650.288085938 l 5
 558.958007812 629.29296875 l 5
 574.956054688 382.319335938 l 6
 582.391601562 269.86328125 633.342773438 220 745 220 c 6
 766 220 l 5
 766 200 l 5
 766 20 l 5
 766 0 l 5
 743 0 l 6
EndSplineSet
EndChar

StartChar: uniFE73
Encoding: 65139 65139 127
GlifName: uniF_E_73
Width: 672
VWidth: 2950
GlyphClass: 2
Flags: HW
AnchorPoint: "Anchor-10" 342.943 1030.47 basechar 0
AnchorPoint: "Anchor-7" 416.943 -188.304 basechar 0
LayerCount: 2
Fore
SplineSet
318.336914062 444.018554688 m 2
 318.336914062 295.189453125 410.903320312 220.342773438 618.00390625 220.342773438 c 2
 684.674804688 220.342773438 l 1
 686.674804688 220.342773438 l 1
 696.674804688 220.342773438 l 5
 696.674804688 200.342773438 l 5
 696.674804688 198.342773438 l 5
 696.674804688 23.5537109375 l 5
 696.674804688 21.5537109375 l 5
 696.674804688 1.5537109375 l 5
 686.674804688 1.5537109375 l 1
 684.674804688 1.5537109375 l 1
 607.991210938 1.5537109375 l 2
 269.403320312 1.8564453125 91.544921875 151.5703125 91.544921875 446.563476562 c 2
 91.544921875 466.69140625 l 1
 91.544921875 468.69140625 l 1
 91.544921875 488.69140625 l 1
 111.544921875 488.69140625 l 1
 113.544921875 488.69140625 l 1
 296.336914062 488.69140625 l 1
 298.336914062 488.69140625 l 1
 318.336914062 488.69140625 l 1
 318.336914062 468.69140625 l 1
 318.336914062 466.69140625 l 1
 318.336914062 444.018554688 l 2
EndSplineSet
EndChar

StartChar: uniFE8E
Encoding: 65166 65166 153
GlifName: uniF_E_8E_
Width: 527
VWidth: 2950
GlyphClass: 2
Flags: HW
AnchorPoint: "Anchor-10" 230.697 1501.11 basechar 0
AnchorPoint: "Anchor-7" 292.078 -221.903 basechar 0
LayerCount: 2
Fore
SplineSet
522 0 m 2
 268.338867188 0 128 127 128 425 c 2
 128 1366 l 1
 128 1386 l 1
 148 1386 l 1
 317 1386 l 1
 337 1386 l 1
 337 1366 l 1
 337 424 l 2
 337 264 398.919921875 220 522 220 c 2
 546 220 l 5
 546 200 l 5
 546 20 l 5
 546 0 l 5
 522 0 l 2
EndSplineSet
EndChar

StartChar: uniFEA2
Encoding: 65186 65186 173
GlifName: uniF_E_A_2
Width: 1378
VWidth: 2950
GlyphClass: 2
Flags: HW
AnchorPoint: "Anchor-7" 690.833 -810.619 basechar 0
AnchorPoint: "Anchor-10" 601.478 1196.07 basechar 0
LayerCount: 2
Fore
SplineSet
1256.61914062 -579.046875 m 2
 1119.59570312 -644.491210938 964.384765625 -677 784 -677 c 0
 374.47265625 -677 79 -506.997070312 79 -131 c 0
 79 188.578125 322.961914062 456.65234375 770.918945312 574.752929688 c 1
 760.059570312 579.198242188 751.014648438 582.908203125 737.486328125 588.46484375 c 0
 602.603515625 642.41796875 515.822265625 676 477 676 c 0
 409.677734375 676 338.298828125 630.469726562 291.858398438 569.8125 c 2
 264.8359375 534.784179688 l 1
 254.807617188 521.784179688 l 1
 240.103515625 529.087890625 l 1
 89.103515625 604.087890625 l 1
 70.0390625 613.556640625 l 1
 80.6767578125 631.994140625 l 1
 95.8095703125 658.2265625 l 1
 182.755859375 800.03125 318.540039062 894 478 894 c 0
 568.013671875 894 671.056640625 853.319335938 789.734375 795.9921875 c 0
 996.206054688 695.25 1118.53125 653.73828125 1229.04199219 647.97265625 c 2
 1249.37597656 646.912109375 l 1
 1247.95117188 626.599609375 l 2
 1243.93359375 569.349609375 1238.93359375 513.349609375 1234.95117188 456.599609375 c 2
 1233.734375 439.26953125 l 1
 1216.40527344 438.049804688 l 2
 1153.12109375 433.592773438 1093.90429688 426.434570312 1040.36328125 419.48828125 c 1
 1046.58105469 257.268554688 1117.51953125 220 1300 220 c 2
 1397 220 l 5
 1397 200 l 5
 1397 20 l 5
 1397 0 l 5
 1303 0 l 2
 1009.875 0 859.817382812 97.9208984375 850.465820312 380.587890625 c 1
 468.366210938 267.912109375 285 75.3251953125 285 -115 c 0
 285 -348.021484375 446.796875 -466 798 -466 c 0
 938.918945312 -466 1074.91894531 -433.759765625 1204.49707031 -372.897460938 c 2
 1227.47070312 -362.106445312 l 1
 1232.58886719 -386.966796875 l 1
 1267.58886719 -556.966796875 l 1
 1270.74609375 -572.299804688 l 1
 1256.61914062 -579.046875 l 2
EndSplineSet
EndChar

StartChar: uniFEA3
Encoding: 65187 65187 174
GlifName: uniF_E_A_3
Width: 1334
VWidth: 2950
GlyphClass: 2
Flags: HW
AnchorPoint: "Anchor-10" 591.825 1150.07 basechar 0
AnchorPoint: "Anchor-7" 553.524 -216.745 basechar 0
LayerCount: 2
Fore
SplineSet
-19 20 m 1
 -19 200 l 1
 -19 220 l 1
 163 220 l 2
 255.173828125 220 370.06640625 233.104492188 447.649414062 258.96484375 c 0
 555.149414062 295.124023438 674.831054688 357.774414062 860.760742188 453.73828125 c 2
 899.7890625 474.252929688 l 1
 872.688476562 485.817382812 832.28515625 503.624023438 755.5 534.458984375 c 0
 620.447265625 589.48046875 534.084960938 622 495 622 c 0
 427.677734375 622 356.298828125 576.469726562 309.858398438 515.8125 c 2
 282.8359375 480.784179688 l 1
 272.807617188 467.784179688 l 1
 258.103515625 475.087890625 l 1
 107.103515625 550.087890625 l 1
 88.0390625 559.556640625 l 1
 98.6767578125 577.994140625 l 1
 113.809570312 604.2265625 l 1
 200.755859375 746.03125 336.540039062 840 496 840 c 0
 586.013671875 840 689.056640625 799.319335938 807.734375 741.9921875 c 0
 1014.20605469 641.25 1136.53125 599.73828125 1247.04199219 593.97265625 c 2
 1266.22460938 592.971679688 l 1
 1265.99902344 573.764648438 l 1
 1263.99902344 403.764648438 l 1
 1263.79003906 386.076171875 l 1
 1246.20898438 384.122070312 l 2
 1170.65917969 375.727539062 1074.27539062 334.280273438 870.330078125 226.309570312 c 0
 724.287109375 149.287109375 613.649414062 91.8427734375 506.626953125 54.1298828125 c 0
 403.465820312 18.0234375 267.067382812 0 151 0 c 2
 -19 0 l 1
 -19 20 l 1
EndSplineSet
EndChar

StartChar: uniFEA4
Encoding: 65188 65188 175
GlifName: uniF_E_A_4
Width: 1351
VWidth: 2950
GlyphClass: 2
Flags: HW
AnchorPoint: "Anchor-10" 591.825 1150.07 basechar 0
AnchorPoint: "Anchor-7" 553.524 -216.745 basechar 0
LayerCount: 2
Fore
SplineSet
1246.20898438 384.122070312 m 2
 1197.20800781 378.677734375 1136.36816406 364.66015625 1063.06835938 330.827148438 c 1
 1073.03125 257.15625 1143.07714844 220 1317 220 c 2
 1370 220 l 5
 1370 200 l 5
 1370 20 l 5
 1370 0 l 5
 1313 0 l 2
 1077.44921875 0 932.217773438 69.8125 897.681640625 242.198242188 c 1
 762.2265625 170.168945312 615.735351562 92.751953125 506.640625 54.134765625 c 0
 403.44921875 18.017578125 267.075195312 0 151 0 c 2
 -19 0 l 1
 -19 20 l 1
 -19 200 l 1
 -19 220 l 1
 163 220 l 2
 255.173828125 220 370.06640625 233.104492188 447.649414062 258.96484375 c 0
 555.149414062 295.124023438 674.831054688 357.774414062 860.760742188 453.73828125 c 2
 899.7890625 474.252929688 l 1
 872.688476562 485.817382812 832.28515625 503.624023438 755.5 534.458984375 c 0
 620.447265625 589.48046875 534.084960938 622 495 622 c 0
 427.677734375 622 356.298828125 576.469726562 309.858398438 515.8125 c 2
 282.8359375 480.784179688 l 1
 272.807617188 467.784179688 l 1
 258.103515625 475.087890625 l 1
 107.103515625 550.087890625 l 1
 88.0390625 559.556640625 l 1
 98.6767578125 577.994140625 l 1
 113.809570312 604.2265625 l 1
 200.755859375 746.03125 336.540039062 840 496 840 c 0
 586.013671875 840 689.056640625 799.319335938 807.734375 741.9921875 c 0
 1014.20605469 641.25 1136.53125 599.73828125 1247.04199219 593.97265625 c 2
 1266.22460938 592.971679688 l 1
 1265.99902344 573.764648438 l 1
 1263.99902344 403.764648438 l 1
 1263.79003906 386.076171875 l 1
 1246.20898438 384.122070312 l 2
EndSplineSet
EndChar

StartChar: uniFEAA
Encoding: 65194 65194 181
GlifName: uniF_E_A_A_
Width: 1045
VWidth: 2950
GlyphClass: 2
Flags: HW
AnchorPoint: "Anchor-10" 506.848 1153.53 basechar 0
AnchorPoint: "Anchor-7" 401.24 -221.316 basechar 0
LayerCount: 2
Fore
SplineSet
102.758789062 248.86328125 m 2
 180.922851562 229.71484375 242.442382812 221 307 221 c 0
 538.549804688 221 634.006835938 275.8984375 634.006835938 366.581054688 c 0
 634.006835938 391.010742188 605.741210938 475.239257812 544.440429688 618.944335938 c 2
 424.202148438 901.158203125 l 1
 416.5859375 919.034179688 l 1
 434.234375 927.163085938 l 1
 595.548828125 1001.46484375 l 1
 614.75 1010.30859375 l 1
 622.516601562 990.647460938 l 1
 813.749023438 506.592773438 l 2
 892.244140625 306.328125 969.328125 220 1033 220 c 2
 1084 220 l 1
 1084 200 l 1
 1084 20 l 1
 1084 0 l 1
 1033 0 l 2
 920.877929688 0 832.43359375 54.47265625 768.463867188 149.541992188 c 1
 672.103515625 49.859375 526.287109375 1 322 1 c 0
 229.458007812 1 158.456054688 10.4306640625 93.3154296875 26.1240234375 c 2
 78 29.8134765625 l 1
 78 45.5673828125 l 1
 78 229.4375 l 1
 78 254.928710938 l 1
 102.758789062 248.86328125 l 2
EndSplineSet
EndChar

StartChar: uniFEAE
Encoding: 65198 65198 185
GlifName: uniF_E_A_E_
Width: 860
VWidth: 2142
GlyphClass: 2
Flags: HW
AnchorPoint: "Anchor-7" 322.969 -609.998 basechar 0
AnchorPoint: "Anchor-10" 493.256 868.2 basechar 0
LayerCount: 2
Fore
SplineSet
495 150.07421875 m 0
 495 237.213867188 469.612304688 362.985351562 419.282226562 480.995117188 c 2
 410.981445312 500.45703125 l 1
 430.879882812 507.649414062 l 1
 592.928710938 566.221679688 l 1
 612.45703125 573.280273438 l 1
 618.778320312 553.500976562 l 1
 680.140625 361.4921875 l 2
 711.958007812 262.186523438 758.323242188 220 841 220 c 2
 879 220 l 1
 879 200 l 1
 879 20 l 1
 879 0 l 1
 852 0 l 2
 774.72265625 0 726.3125 10.8076171875 692.80078125 33.814453125 c 1
 654.2421875 -262.48046875 433.875976562 -456.552734375 53.9189453125 -527.380859375 c 2
 37.6728515625 -530.409179688 l 1
 31.6357421875 -515.025390625 l 1
 -28.87109375 -360.830078125 l 1
 -37.6767578125 -338.389648438 l 1
 -13.99609375 -333.877929688 l 2
 329.049804688 -268.522460938 493.077148438 -108.594726562 495 150.07421875 c 0
EndSplineSet
PairPos2: "'kern' Horizontal Kerning lookup 15-1" uniFEE7 dx=-178 dy=0 dh=-178 dv=0 dx=0 dy=0 dh=0 dv=0
PairPos2: "'kern' Horizontal Kerning lookup 15-2" uniFE8B dx=-178 dy=0 dh=-178 dv=0 dx=0 dy=0 dh=0 dv=0
PairPos2: "'kern' Horizontal Kerning lookup 15-2" uni0640 dx=-178 dy=0 dh=-178 dv=0 dx=0 dy=0 dh=0 dv=0
PairPos2: "'kern' Horizontal Kerning lookup 15-2" uni067E dx=-178 dy=0 dh=-178 dv=0 dx=0 dy=0 dh=0 dv=0
PairPos2: "'kern' Horizontal Kerning lookup 15-2" uni06AF dx=-226 dy=0 dh=-226 dv=0 dx=0 dy=0 dh=0 dv=0
PairPos2: "'kern' Horizontal Kerning lookup 15-2" uniFB92 dx=-226 dy=0 dh=-226 dv=0 dx=0 dy=0 dh=0 dv=0
PairPos2: "'kern' Horizontal Kerning lookup 15-2" uniFB94 dx=-226 dy=0 dh=-226 dv=0 dx=0 dy=0 dh=0 dv=0
PairPos2: "'kern' Horizontal Kerning lookup 15-2" uni0621 dx=-178 dy=0 dh=-178 dv=0 dx=0 dy=0 dh=0 dv=0
PairPos2: "'kern' Horizontal Kerning lookup 15-2" uni0622 dx=-143 dy=0 dh=-143 dv=0 dx=0 dy=0 dh=0 dv=0
PairPos2: "'kern' Horizontal Kerning lookup 15-2" uni0623 dx=-143 dy=0 dh=-143 dv=0 dx=0 dy=0 dh=0 dv=0
PairPos2: "'kern' Horizontal Kerning lookup 15-2" uni0627 dx=-143 dy=0 dh=-143 dv=0 dx=0 dy=0 dh=0 dv=0
PairPos2: "'kern' Horizontal Kerning lookup 15-2" uni0628 dx=-178 dy=0 dh=-178 dv=0 dx=0 dy=0 dh=0 dv=0
PairPos2: "'kern' Horizontal Kerning lookup 15-2" uni0629 dx=-178 dy=0 dh=-178 dv=0 dx=0 dy=0 dh=0 dv=0
PairPos2: "'kern' Horizontal Kerning lookup 15-2" uni062A dx=-178 dy=0 dh=-178 dv=0 dx=0 dy=0 dh=0 dv=0
PairPos2: "'kern' Horizontal Kerning lookup 15-2" uniFE97 dx=-178 dy=0 dh=-178 dv=0 dx=0 dy=0 dh=0 dv=0
PairPos2: "'kern' Horizontal Kerning lookup 15-2" uni062B dx=-178 dy=0 dh=-178 dv=0 dx=0 dy=0 dh=0 dv=0
PairPos2: "'kern' Horizontal Kerning lookup 15-2" uniFE9B dx=-178 dy=0 dh=-178 dv=0 dx=0 dy=0 dh=0 dv=0
PairPos2: "'kern' Horizontal Kerning lookup 15-2" uniFE9F dx=-178 dy=0 dh=-178 dv=0 dx=0 dy=0 dh=0 dv=0
PairPos2: "'kern' Horizontal Kerning lookup 15-2" uniFEA3 dx=-178 dy=0 dh=-178 dv=0 dx=0 dy=0 dh=0 dv=0
PairPos2: "'kern' Horizontal Kerning lookup 15-2" uniFEA7 dx=-178 dy=0 dh=-178 dv=0 dx=0 dy=0 dh=0 dv=0
PairPos2: "'kern' Horizontal Kerning lookup 15-2" uni062F dx=-178 dy=0 dh=-178 dv=0 dx=0 dy=0 dh=0 dv=0
PairPos2: "'kern' Horizontal Kerning lookup 15-2" uni0630 dx=-178 dy=0 dh=-178 dv=0 dx=0 dy=0 dh=0 dv=0
PairPos2: "'kern' Horizontal Kerning lookup 15-2" uni0633 dx=-178 dy=0 dh=-178 dv=0 dx=0 dy=0 dh=0 dv=0
PairPos2: "'kern' Horizontal Kerning lookup 15-2" uniFEB3 dx=-178 dy=0 dh=-178 dv=0 dx=0 dy=0 dh=0 dv=0
PairPos2: "'kern' Horizontal Kerning lookup 15-2" uni0634 dx=-178 dy=0 dh=-178 dv=0 dx=0 dy=0 dh=0 dv=0
PairPos2: "'kern' Horizontal Kerning lookup 15-2" uniFEB7 dx=-178 dy=0 dh=-178 dv=0 dx=0 dy=0 dh=0 dv=0
PairPos2: "'kern' Horizontal Kerning lookup 15-2" uni0635 dx=-178 dy=0 dh=-178 dv=0 dx=0 dy=0 dh=0 dv=0
PairPos2: "'kern' Horizontal Kerning lookup 15-2" uniFEBB dx=-178 dy=0 dh=-178 dv=0 dx=0 dy=0 dh=0 dv=0
PairPos2: "'kern' Horizontal Kerning lookup 15-2" uni0636 dx=-178 dy=0 dh=-178 dv=0 dx=0 dy=0 dh=0 dv=0
PairPos2: "'kern' Horizontal Kerning lookup 15-2" uniFEBF dx=-178 dy=0 dh=-178 dv=0 dx=0 dy=0 dh=0 dv=0
PairPos2: "'kern' Horizontal Kerning lookup 15-2" uni0637 dx=-178 dy=0 dh=-178 dv=0 dx=0 dy=0 dh=0 dv=0
PairPos2: "'kern' Horizontal Kerning lookup 15-2" uniFEC3 dx=-178 dy=0 dh=-178 dv=0 dx=0 dy=0 dh=0 dv=0
PairPos2: "'kern' Horizontal Kerning lookup 15-2" uni0638 dx=-178 dy=0 dh=-178 dv=0 dx=0 dy=0 dh=0 dv=0
PairPos2: "'kern' Horizontal Kerning lookup 15-2" uniFEC7 dx=-178 dy=0 dh=-178 dv=0 dx=0 dy=0 dh=0 dv=0
PairPos2: "'kern' Horizontal Kerning lookup 15-2" uniFECB dx=-178 dy=0 dh=-178 dv=0 dx=0 dy=0 dh=0 dv=0
PairPos2: "'kern' Horizontal Kerning lookup 15-2" uniFECF dx=-178 dy=0 dh=-178 dv=0 dx=0 dy=0 dh=0 dv=0
PairPos2: "'kern' Horizontal Kerning lookup 15-2" uni0641 dx=-178 dy=0 dh=-178 dv=0 dx=0 dy=0 dh=0 dv=0
PairPos2: "'kern' Horizontal Kerning lookup 15-2" uniFED3 dx=-178 dy=0 dh=-178 dv=0 dx=0 dy=0 dh=0 dv=0
PairPos2: "'kern' Horizontal Kerning lookup 15-2" uni0642 dx=-60 dy=0 dh=-60 dv=0 dx=0 dy=0 dh=0 dv=0
PairPos2: "'kern' Horizontal Kerning lookup 15-2" uniFED7 dx=-178 dy=0 dh=-178 dv=0 dx=0 dy=0 dh=0 dv=0
PairPos2: "'kern' Horizontal Kerning lookup 15-2" uni0643 dx=-143 dy=0 dh=-143 dv=0 dx=0 dy=0 dh=0 dv=0
PairPos2: "'kern' Horizontal Kerning lookup 15-2" uniFEDB dx=-226 dy=0 dh=-226 dv=0 dx=0 dy=0 dh=0 dv=0
PairPos2: "'kern' Horizontal Kerning lookup 15-2" uni0644 dx=-60 dy=0 dh=-60 dv=0 dx=0 dy=0 dh=0 dv=0
PairPos2: "'kern' Horizontal Kerning lookup 15-2" uniFEDF dx=-143 dy=0 dh=-143 dv=0 dx=0 dy=0 dh=0 dv=0
PairPos2: "'kern' Horizontal Kerning lookup 15-2" uniFEFB dx=-143 dy=0 dh=-143 dv=0 dx=0 dy=0 dh=0 dv=0
PairPos2: "'kern' Horizontal Kerning lookup 15-2" uni0645 dx=-178 dy=0 dh=-178 dv=0 dx=0 dy=0 dh=0 dv=0
PairPos2: "'kern' Horizontal Kerning lookup 15-2" uniFEE3 dx=-178 dy=0 dh=-178 dv=0 dx=0 dy=0 dh=0 dv=0
PairPos2: "'kern' Horizontal Kerning lookup 15-2" uni0646 dx=-60 dy=0 dh=-60 dv=0 dx=0 dy=0 dh=0 dv=0
PairPos2: "'kern' Horizontal Kerning lookup 15-2" uni0647 dx=-178 dy=0 dh=-178 dv=0 dx=0 dy=0 dh=0 dv=0
PairPos2: "'kern' Horizontal Kerning lookup 15-2" uniFEEB dx=-178 dy=0 dh=-178 dv=0 dx=0 dy=0 dh=0 dv=0
PairPos2: "'kern' Horizontal Kerning lookup 15-2" uni0649 dx=-60 dy=0 dh=-60 dv=0 dx=0 dy=0 dh=0 dv=0
PairPos2: "'kern' Horizontal Kerning lookup 15-2" uni0626 dx=-60 dy=0 dh=-60 dv=0 dx=0 dy=0 dh=0 dv=0
PairPos2: "'kern' Horizontal Kerning lookup 15-2" uni064A dx=-60 dy=0 dh=-60 dv=0 dx=0 dy=0 dh=0 dv=0
PairPos2: "'kern' Horizontal Kerning lookup 15-2" uni06A9 dx=-226 dy=0 dh=-226 dv=0 dx=0 dy=0 dh=0 dv=0
PairPos2: "'kern' Horizontal Kerning lookup 15-2" uniFB8E dx=-226 dy=0 dh=-226 dv=0 dx=0 dy=0 dh=0 dv=0
PairPos2: "'kern' Horizontal Kerning lookup 15-2" uniFB90 dx=-226 dy=0 dh=-226 dv=0 dx=0 dy=0 dh=0 dv=0
PairPos2: "'kern' Horizontal Kerning lookup 15-2" uniFBFE dx=30 dy=0 dh=30 dv=0 dx=0 dy=0 dh=0 dv=0
PairPos2: "'kern' Horizontal Kerning lookup 15-2" uni0631 dx=-30 dy=0 dh=-30 dv=0 dx=0 dy=0 dh=0 dv=0
PairPos2: "'kern' Horizontal Kerning lookup 15-2" uni0632 dx=-30 dy=0 dh=-30 dv=0 dx=0 dy=0 dh=0 dv=0
PairPos2: "'kern' Horizontal Kerning lookup 15-2" uni0624 dx=-30 dy=0 dh=-30 dv=0 dx=0 dy=0 dh=0 dv=0
PairPos2: "'kern' Horizontal Kerning lookup 15-2" uni0648 dx=-30 dy=0 dh=-30 dv=0 dx=0 dy=0 dh=0 dv=0
PairPos2: "'kern' Horizontal Kerning lookup 15-2" uni0698 dx=-40 dy=0 dh=-40 dv=0 dx=0 dy=0 dh=0 dv=0
PairPos2: "'kern' Horizontal Kerning lookup 15-5" uni06C0 dx=-178 dy=0 dh=-178 dv=0 dx=0 dy=0 dh=0 dv=0
EndChar

StartChar: uniFEB2
Encoding: 65202 65202 189
GlifName: uniF_E_B_2
Width: 2553
VWidth: 2068
GlyphClass: 2
Flags: HW
AnchorPoint: "Anchor-7" 710.902 -696.086 basechar 0
AnchorPoint: "Anchor-10" 1764.53 902.1 basechar 0
LayerCount: 2
Fore
SplineSet
1531 0 m 0
 1463.546875 0 1406.890625 14.09765625 1360.796875 41.0478515625 c 1
 1351.671875 -134.405273438 1294.16210938 -271.99609375 1186.82617188 -367.913085938 c 0
 1072.61035156 -469.978515625 916.295898438 -520 721 -520 c 0
 297.475585938 -520 78 -318.629882812 78 76 c 0
 78 218.879882812 108.649414062 364.529296875 169.500976562 512.602539062 c 2
 177.07421875 531.029296875 l 1
 195.530273438 523.528320312 l 1
 350.530273438 460.528320312 l 1
 368.611328125 453.178710938 l 1
 361.70703125 434.924804688 l 2
 313.712890625 308.037109375 290 190.087890625 290 81 c 0
 290 -179.796875 430.282226562 -307 728 -307 c 0
 1017.30273438 -307 1156.35449219 -168.50390625 1157 120.022460938 c 0
 1157 237.286132812 1127.88085938 357.28515625 1068.9609375 480.364257812 c 2
 1059.26074219 500.625 l 1
 1078.89648438 507.364257812 l 1
 1249.5078125 565.916992188 l 1
 1268.78222656 572.532226562 l 1
 1275.03515625 553.13671875 l 1
 1334.02734375 370.161132812 l 2
 1367.26171875 267.94921875 1425.25878906 220.9296875 1533.0859375 220 c 0
 1653.16894531 220 1698 280.090820312 1698 409 c 0
 1698 439.766601562 1694.70605469 499.053710938 1688.05859375 585.465820312 c 2
 1686.59082031 604.551757812 l 1
 1705.59375 606.854492188 l 1
 1870.59375 626.854492188 l 1
 1891.46484375 629.384765625 l 1
 1892.95019531 608.412109375 l 1
 1908.95117188 382.390625 l 2
 1915.62792969 285.111328125 1957.98730469 220 2048 220 c 0
 2125.10253906 220 2167 272.93359375 2167 407 c 0
 2167 450.71875 2163.70214844 517.450195312 2157.05566406 606.51171875 c 2
 2155.63378906 625.556640625 l 1
 2174.59375 627.854492188 l 1
 2339.59375 647.854492188 l 1
 2360.59082031 650.399414062 l 1
 2361.95800781 629.29296875 l 1
 2377.95605469 382.323242188 l 2
 2385.40234375 270.01171875 2437.40625 220 2543 220 c 2
 2571 220 l 1
 2571 200 l 1
 2571 20 l 1
 2571 0 l 1
 2545 0 l 2
 2426.2578125 0 2332.30566406 36.943359375 2283.99316406 119.940429688 c 1
 2230.2890625 38.4853515625 2154.80957031 0 2049 0 c 0
 1939.42578125 0 1855.54199219 42.994140625 1803.26269531 126.806640625 c 1
 1732.36035156 41.98828125 1641.21386719 0 1531 0 c 0
EndSplineSet
EndChar

StartChar: uniFEB3
Encoding: 65203 65203 190
GlifName: uniF_E_B_3
Width: 1562
VWidth: 2068
GlyphClass: 2
Flags: HW
AnchorPoint: "Anchor-7" 758.902 -220.086 basechar 0
AnchorPoint: "Anchor-10" 852.53 930.1 basechar 0
LayerCount: 2
Fore
SplineSet
1153 220 m 0
 1227.390625 220 1272 277.389648438 1272 422 c 0
 1272 490.221679688 1257.43261719 576.723632812 1228.72167969 680.67578125 c 2
 1223.35546875 700.103515625 l 1
 1242.82519531 705.319335938 l 1
 1410.82519531 750.319335938 l 1
 1429.34375 755.279296875 l 1
 1435.08300781 736.986328125 l 2
 1467.60644531 633.317382812 1484 533.27734375 1484 437 c 0
 1484 205 1398.32714844 1.0712890625 1154.04394531 0 c 0
 1044.07226562 0 960.182617188 43.30078125 908.188476562 126.866210938 c 1
 837.141601562 42.2958984375 746.573242188 0 636 0 c 0
 512.390625 0 421.278320312 41.2392578125 370.004882812 124.139648438 c 1
 304.809570312 39.068359375 195.561523438 0 49 0 c 2
 -19 0 l 1
 -19 20 l 1
 -19 200 l 1
 -19 220 l 1
 51 220 l 2
 207.4765625 220 273 262.936523438 273 409 c 0
 273 441.916015625 270.040039062 500.689453125 263.067382812 585.358398438 c 2
 261.48828125 604.5390625 l 1
 280.59375 606.854492188 l 1
 445.59375 626.854492188 l 1
 466.46484375 629.384765625 l 1
 467.950195312 608.412109375 l 1
 483.947265625 382.458984375 l 2
 491.446289062 283.08984375 540.267578125 220 638 220 c 0
 758.131835938 220 803 280.549804688 803 409 c 0
 803 439.873046875 800.0390625 498.71484375 793.064453125 585.395507812 c 2
 791.5234375 604.54296875 l 1
 810.59375 606.854492188 l 1
 975.59375 626.854492188 l 1
 996.46484375 629.384765625 l 1
 997.950195312 608.412109375 l 1
 1013.95117188 382.390625 l 2
 1020.62695312 285.119140625 1063.04882812 220 1153 220 c 0
EndSplineSet
EndChar

StartChar: uniFEB4
Encoding: 65204 65204 191
GlifName: uniF_E_B_4
Width: 1658
VWidth: 2068
GlyphClass: 2
Flags: HW
AnchorPoint: "Anchor-10" 852.53 930.1 basechar 0
AnchorPoint: "Anchor-7" 758.902 -220.086 basechar 0
LayerCount: 2
Fore
SplineSet
369.934570312 124.037109375 m 1
 304.958984375 39.1796875 195.826171875 0 49 0 c 2
 -19 0 l 1
 -19 20 l 1
 -19 200 l 1
 -19 220 l 1
 51 220 l 2
 207.52734375 220 273 263.256835938 273 409 c 0
 273 441.8125 269.708007812 501.02734375 263.061523438 585.4296875 c 2
 261.556640625 604.546875 l 1
 280.59375 606.854492188 l 1
 445.59375 626.854492188 l 1
 466.46484375 629.384765625 l 1
 467.950195312 608.412109375 l 1
 483.947265625 382.458984375 l 2
 491.44921875 283.05078125 539.913085938 220 638 220 c 0
 758.240234375 220 803 280.090820312 803 409 c 0
 803 439.766601562 799.706054688 499.0546875 793.05859375 585.465820312 c 2
 791.590820312 604.551757812 l 1
 810.59375 606.854492188 l 1
 975.59375 626.854492188 l 1
 996.46484375 629.384765625 l 1
 997.950195312 608.412109375 l 1
 1013.95117188 382.390625 l 2
 1020.62792969 285.111328125 1062.98730469 220 1153 220 c 0
 1230.10253906 220 1272 272.932617188 1272 407 c 0
 1272 450.717773438 1268.70214844 517.450195312 1262.05566406 606.51171875 c 2
 1260.63378906 625.556640625 l 1
 1279.59375 627.854492188 l 1
 1444.59375 647.854492188 l 1
 1465.59082031 650.399414062 l 1
 1466.95800781 629.29296875 l 1
 1482.95605469 382.323242188 l 2
 1490.40234375 270.01171875 1542.40527344 220 1648 220 c 2
 1676 220 l 1
 1676 200 l 1
 1676 20 l 1
 1676 0 l 1
 1650 0 l 2
 1531.25878906 0 1437.30566406 36.943359375 1388.99316406 119.940429688 c 1
 1335.2890625 38.4853515625 1259.80957031 0 1154 0 c 0
 1044.42578125 0 960.541992188 42.994140625 908.262695312 126.806640625 c 1
 837.353515625 41.98046875 746.259765625 0 635.950195312 0 c 0
 512.162109375 0.619140625 420.940429688 41.076171875 369.934570312 124.037109375 c 1
EndSplineSet
EndChar

StartChar: uniFEBA
Encoding: 65210 65210 197
GlifName: uniF_E_B_A_
Width: 2610
VWidth: 2970
GlyphClass: 2
Flags: HW
AnchorPoint: "Anchor-10" 2052.53 1148.1 basechar 0
AnchorPoint: "Anchor-7" 710.902 -696.086 basechar 0
LayerCount: 2
Fore
SplineSet
1752.93261719 221 m 2
 2118.33398438 221 2279 298.90234375 2279 433 c 0
 2279 531.409179688 2209.33007812 605 2104 605 c 0
 1968.29492188 605 1811.73632812 475.818359375 1642.10253906 220.250976562 c 1
 1752.93261719 221 l 2
1157 120.033203125 m 0
 1157 239.55859375 1126.89941406 359.577148438 1068.96679688 480.350585938 c 2
 1059.24414062 500.619140625 l 1
 1080.5078125 507.916992188 l 1
 1249.5078125 565.916992188 l 1
 1268.78222656 572.532226562 l 1
 1275.03515625 553.13671875 l 1
 1334.05859375 370.064453125 l 2
 1357.26855469 296.135742188 1384.94238281 261.146484375 1409.3046875 251.811523438 c 1
 1635.69140625 629.935546875 1862.265625 827 2096 827 c 0
 2331.05566406 827 2497 663.155273438 2497 442 c 0
 2497 365.1953125 2468.44238281 290.13671875 2429.51269531 229.334960938 c 1
 2464.56542969 223.770507812 2517.2734375 220 2600 220 c 2
 2628 220 l 5
 2628 200 l 5
 2628 20 l 5
 2628 0 l 5
 2601 0 l 2
 2445.35839844 0 2332.12890625 32.9833984375 2256.92871094 89.236328125 c 1
 2145.39550781 32.0673828125 1975.99511719 0 1757 0 c 2
 1706 0 l 2
 1553.77539062 0 1440.94335938 16.1513671875 1361.13964844 46.97265625 c 1
 1344.04882812 -330.984375 1094.09375 -520 721 -520 c 0
 296.803710938 -520 78 -318.606445312 78 76 c 0
 78 218.879882812 108.649414062 364.529296875 169.500976562 512.602539062 c 2
 177.07421875 531.029296875 l 1
 195.530273438 523.528320312 l 1
 350.530273438 460.528320312 l 1
 368.606445312 453.180664062 l 1
 361.708007812 434.928710938 l 2
 314.349609375 309.625976562 290 193.072265625 290 81 c 0
 290 -179.783203125 430.612304688 -307 728 -307 c 0
 1015.63867188 -307 1156.03222656 -168.500976562 1157 120.033203125 c 0
EndSplineSet
EndChar

StartChar: uniFEBB
Encoding: 65211 65211 198
GlifName: uniF_E_B_B_
Width: 1654
VWidth: 2950
GlyphClass: 2
Flags: HW
AnchorPoint: "Anchor-10" 1112.53 1148.1 basechar 0
AnchorPoint: "Anchor-7" 679.209 -222.348 basechar 0
LayerCount: 2
Fore
SplineSet
831.932617188 221 m 2
 1197.33398438 221 1358 298.90234375 1358 433 c 0
 1358 531.409179688 1288.33007812 605 1183 605 c 0
 1047.29492188 605 890.736328125 475.818359375 721.102539062 220.250976562 c 1
 831.932617188 221 l 2
489.40234375 253.606445312 m 1
 715.912109375 630.235351562 941.600585938 827 1175 827 c 0
 1410.05566406 827 1576 663.185546875 1576 441.96484375 c 0
 1574.9375 143.52734375 1317.34570312 0 836 0 c 2
 785 0 l 2
 550.725585938 0 401.51171875 41.966796875 327.32421875 133.541015625 c 1
 255.1796875 45.3662109375 169.670898438 0 20 0 c 2
 -19.111328125 0 l 5
 -19 20.111328125 l 5
 -18 200.111328125 l 5
 -17.8896484375 220 l 5
 20 220 l 2
 188.39453125 220 223 273.020507812 223 408 c 0
 223 466.9765625 218.032226562 545.845703125 215.024414062 607.017578125 c 2
 214.110351562 625.600585938 l 1
 232.579101562 627.852539062 l 1
 396.579101562 647.852539062 l 1
 417.420898438 650.39453125 l 1
 418.947265625 629.454101562 l 1
 436.943359375 382.501953125 l 2
 442.946289062 305.325195312 462.500976562 267.91796875 489.40234375 253.606445312 c 1
EndSplineSet
EndChar

StartChar: uniFEBC
Encoding: 65212 65212 199
GlifName: uniF_E_B_C_
Width: 1689
VWidth: 2970
GlyphClass: 2
Flags: HW
AnchorPoint: "Anchor-10" 1112.53 1148.1 basechar 0
AnchorPoint: "Anchor-7" 679.209 -222.348 basechar 0
LayerCount: 2
Fore
SplineSet
831.932617188 221 m 2
 1197.33398438 221 1358 298.90234375 1358 433 c 0
 1358 531.409179688 1288.33007812 605 1183 605 c 0
 1047.29492188 605 890.736328125 475.818359375 721.102539062 220.250976562 c 1
 831.932617188 221 l 2
489.413085938 253.600585938 m 1
 716.946289062 631.266601562 942.627929688 827 1176 827 c 0
 1412.21484375 827 1576 661.942382812 1576 440 c 0
 1576 363.620117188 1546.35253906 289.180664062 1507.88476562 228.755859375 c 1
 1540.95898438 223.662109375 1599.17675781 220 1679 220 c 2
 1707 220 l 1
 1707 200 l 1
 1707 20 l 1
 1707 0 l 1
 1679 0 l 2
 1523.36816406 0 1411.03808594 32.994140625 1335.92578125 89.234375 c 1
 1224.39941406 32.0703125 1054.99316406 0 836 0 c 2
 785 0 l 2
 553.334960938 0 403.500976562 38.4638671875 327.533203125 129.859375 c 1
 255.633789062 42.2216796875 169.506835938 0 20 0 c 2
 -19 0 l 5
 -19 20 l 5
 -19 200 l 5
 -19 220 l 5
 19 220 l 2
 188.411132812 220 223 274.102539062 223 407 c 0
 223 468 218.033203125 545.82421875 215.024414062 607.017578125 c 2
 214.110351562 625.600585938 l 1
 232.579101562 627.852539062 l 1
 396.579101562 647.852539062 l 1
 417.420898438 650.39453125 l 1
 418.947265625 629.454101562 l 1
 436.943359375 382.501953125 l 2
 442.946289062 305.322265625 462.491210938 267.923828125 489.413085938 253.600585938 c 1
EndSplineSet
EndChar

StartChar: uniFEC2
Encoding: 65218 65218 205
GlifName: uniF_E_C_2
Width: 1510
VWidth: 2970
GlyphClass: 2
Flags: HW
AnchorPoint: "Anchor-7" 636.602 -218.453 basechar 0
AnchorPoint: "Anchor-10" 470.36 1536.78 basechar 0
LayerCount: 2
Fore
SplineSet
648.932617188 222 m 2
 1014.33398438 222 1175 299.90234375 1175 434 c 0
 1175 532.55078125 1106.23242188 606 1001 606 c 0
 865.26953125 606 707.739257812 476.71875 538.106445312 221.250976562 c 1
 648.932617188 222 l 2
1323.83984375 227.329101562 m 1
 1356.24707031 222.873046875 1416.78808594 220 1500 220 c 2
 1528 220 l 5
 1528 200 l 5
 1528 20 l 5
 1528 0 l 5
 1501 0 l 2
 1330.46582031 0 1229.25292969 35.689453125 1158.67480469 88.4755859375 c 1
 1047.06152344 34.8505859375 864.701171875 0 653 0 c 2
 98 0 l 1
 78 0 l 1
 78 20 l 1
 78 200 l 1
 78 220 l 1
 98 220 l 1
 308.861328125 220 l 1
 331.439453125 256.211914062 353.255859375 289.263671875 373 321.6015625 c 1
 373 1406 l 1
 373 1426 l 1
 393 1426 l 1
 562 1426 l 1
 582 1426 l 1
 582 1406 l 1
 582 610.66015625 l 1
 706.720703125 750.903320312 841.438476562 827 992 827 c 0
 1226.09472656 827 1392 663.131835938 1392 442 c 0
 1392 368.319335938 1362.99414062 291.325195312 1323.83984375 227.329101562 c 1
EndSplineSet
EndChar

StartChar: uniFEC3
Encoding: 65219 65219 206
GlifName: uniF_E_C_3
Width: 1293
VWidth: 2950
GlyphClass: 2
Flags: HW
AnchorPoint: "Anchor-7" 481.602 -218.453 basechar 0
AnchorPoint: "Anchor-10" 292.36 1535.78 basechar 0
LayerCount: 2
Fore
SplineSet
470.932617188 222 m 2
 836.333984375 222 997 299.90234375 997 434 c 0
 997 532.409179688 927.330078125 606 822 606 c 0
 686.294921875 606 529.736328125 476.818359375 360.102539062 221.250976562 c 1
 470.932617188 222 l 2
404 610.0546875 m 1
 530.377929688 750.302734375 668.228515625 827 819 827 c 0
 1050.41015625 827 1215 659.958984375 1215 442 c 0
 1215 143.587890625 958.327148438 0 476 0 c 2
 -19 0 l 5
 -19 20 l 5
 -19 200 l 5
 -19 220 l 5
 129.092773438 220 l 1
 151.49609375 254.615234375 174.903320312 289.206054688 195 320.803710938 c 1
 195 1366 l 1
 195 1386 l 1
 215 1386 l 1
 384 1386 l 1
 404 1386 l 1
 404 1366 l 1
 404 610.0546875 l 1
EndSplineSet
EndChar

StartChar: uniFEC4
Encoding: 65220 65220 207
GlifName: uniF_E_C_4
Width: 1332
VWidth: 2970
GlyphClass: 2
Flags: HW
AnchorPoint: "Anchor-10" 289.36 1533.78 basechar 0
AnchorPoint: "Anchor-7" 481.602 -218.453 basechar 0
LayerCount: 2
Fore
SplineSet
470.932617188 222 m 2
 836.333984375 222 997 299.90234375 997 434 c 0
 997 532.409179688 927.330078125 606 822 606 c 0
 686.294921875 606 529.736328125 476.818359375 360.102539062 221.250976562 c 1
 470.932617188 222 l 2
1145.85546875 227.297851562 m 1
 1179.27050781 222.749023438 1238.375 220 1322 220 c 2
 1351 220 l 1
 1351 200 l 1
 1351 20 l 1
 1351 0 l 1
 1321 0 l 2
 1150.39550781 0 1050.87597656 36.7333984375 980.666015625 89.466796875 c 1
 869.213867188 35.8212890625 687.74609375 0 476 0 c 2
 -19 0 l 5
 -19 20 l 5
 -19 200 l 5
 -19 220 l 5
 130.842773438 220 l 1
 153.104492188 255.927734375 174.450195312 289.293945312 195 321.790039062 c 1
 195 1406 l 1
 195 1426 l 1
 215 1426 l 1
 384 1426 l 1
 404 1426 l 1
 404 1406 l 1
 404 609.840820312 l 1
 531.500976562 750.733398438 666.860351562 827 816 827 c 0
 1048.21972656 827 1215 661.135742188 1215 442 c 0
 1215 368.17578125 1185.12402344 291.186523438 1145.85546875 227.297851562 c 1
EndSplineSet
EndChar

StartChar: uniFECA
Encoding: 65226 65226 213
GlifName: uniF_E_C_A_
Width: 1199
VWidth: 2970
GlyphClass: 2
Flags: HW
AnchorPoint: "Anchor-7" 610.833 -810.619 basechar 0
AnchorPoint: "Anchor-10" 574.833 1186.24 basechar 0
LayerCount: 2
Fore
SplineSet
1077.20019531 -588.241210938 m 2
 965.133789062 -638.620117188 836.182617188 -663 689 -663 c 0
 340.7421875 -663 78 -500.7734375 78 -178 c 0
 78 34.392578125 211.439453125 204.64453125 408.2890625 336.32421875 c 1
 240.336914062 439.811523438 148 541.595703125 148 649 c 0
 148 825.784179688 415.466796875 886 616 886 c 0
 820.015625 886 1074 838.362304688 1074 653 c 0
 1074 553.092773438 971.288085938 444.841796875 785.9609375 324.805664062 c 1
 897.28515625 254.954101562 1002.64550781 220 1159 220 c 2
 1217 220 l 5
 1217 200 l 5
 1217 20 l 5
 1217 0 l 5
 1159 0 l 2
 964.146484375 0 793.893554688 71.8212890625 600.90625 205.389648438 c 1
 405.0625 93.2578125 285 -34.0029296875 285 -178 c 0
 285 -338.436523438 422.524414062 -451.016601562 691.073242188 -452 c 0
 800.09765625 -452.399414062 912.4453125 -428.653320312 1026.35253906 -381.51953125 c 2
 1048.70996094 -372.268554688 l 1
 1053.58886719 -395.966796875 l 1
 1088.58886719 -565.966796875 l 1
 1091.82226562 -581.668945312 l 1
 1077.20019531 -588.241210938 l 2
603.939453125 459.806640625 m 1
 781.084960938 557.823242188 858.130859375 623.529296875 859 638.01171875 c 0
 858.861328125 646.775390625 799.635742188 672 615 672 c 0
 431.28515625 672 371 644.147460938 371 627 c 0
 371 611.19921875 443.361328125 547.615234375 603.939453125 459.806640625 c 1
EndSplineSet
EndChar

StartChar: uniFECB
Encoding: 65227 65227 214
GlifName: uniF_E_C_B_
Width: 1057
VWidth: 2950
GlyphClass: 2
Flags: HW
AnchorPoint: "Anchor-10" 550.493 1207.05 basechar 0
AnchorPoint: "Anchor-7" 484.511 -217.021 basechar 0
LayerCount: 2
Fore
SplineSet
964.9453125 147.904296875 m 2
 645.400390625 48.4228515625 352.420898438 0 85 0 c 2
 -19 0 l 5
 -19 20 l 5
 -19 200 l 5
 -19 220 l 5
 236.571289062 220 l 1
 189.626953125 284.259765625 151 357.809570312 151 466 c 0
 151 705.490234375 318.21875 909 585 909 c 0
 730.5625 909 848.501953125 860.823242188 942.219726562 766.063476562 c 2
 951.861328125 756.315429688 l 1
 946.245117188 743.80859375 l 1
 880.245117188 596.80859375 l 1
 869.62109375 573.14453125 l 1
 849.4375 589.4375 l 2
 768.696289062 654.614257812 692.98828125 686.072265625 616.877929688 687 c 0
 466.25390625 687 361 585.5546875 361 460 c 0
 361 426.860351562 377.250976562 320.189453125 502.5625 264.079101562 c 0
 509.646484375 260.538085938 522.068359375 257.46484375 526.3046875 258.442382812 c 2
 954.106445312 366.392578125 l 1
 979 372.673828125 l 1
 979 347 l 1
 979 167 l 1
 979 152.279296875 l 1
 964.9453125 147.904296875 l 2
EndSplineSet
EndChar

StartChar: uniFEDA
Encoding: 65242 65242 229
GlifName: uniF_E_D_A_
Width: 1931
VWidth: 2950
GlyphClass: 2
Flags: HW
AnchorPoint: "Anchor-10" 948.11 1410.05 basechar 0
AnchorPoint: "Anchor-7" 900.268 -206.468 basechar 0
LayerCount: 2
Fore
SplineSet
690.244140625 677.874023438 m 2
 751.794921875 670.924804688 805.172851562 667 849 667 c 0
 956.137695312 667 1045 681.725585938 1045 740 c 0
 1045 795.3671875 1004.19628906 815.346679688 937.9609375 825.232421875 c 0
 793.065429688 848.165039062 713 922.762695312 713 1049 c 0
 713 1210.55371094 862.166015625 1289.91796875 1120.45410156 1309.94042969 c 2
 1142 1311.61035156 l 1
 1142 1290 l 1
 1142 1165 l 1
 1142 1146.78417969 l 1
 1123.86328125 1145.08691406 l 2
 948.44140625 1128.67285156 882 1087.58789062 882 1048 c 0
 882 1012.79492188 913.296875 984.729492188 1006.03222656 970.768554688 c 0
 1141.60546875 949.5859375 1213 871.522460938 1213 744 c 0
 1213 573.76953125 1051.7265625 499 866 499 c 0
 812.725585938 499 751.805664062 504.104492188 685.00390625 514.225585938 c 2
 668 516.801757812 l 1
 668 534 l 1
 668 658 l 1
 668 680.384765625 l 1
 690.244140625 677.874023438 l 2
978 220 m 2
 1450.55664062 220 1534 312 1534 490 c 2
 1534 1366 l 1
 1534 1386 l 1
 1554 1386 l 1
 1723 1386 l 1
 1743 1386 l 1
 1743 1366 l 1
 1743 492 l 2
 1743 298 1761.10546875 220 1916 220 c 2
 1950 220 l 5
 1950 200 l 5
 1950 20 l 5
 1950 0 l 5
 1918 0 l 2
 1742.43554688 0 1657.64160156 54.0947265625 1614.71484375 162.900390625 c 1
 1480.72070312 33.62109375 1307.48632812 0 985 0 c 2
 840 0 l 2
 358.274414062 0 78 165.641601562 78 504 c 0
 78 596.009765625 98.67578125 684.692382812 133.62890625 765.90625 c 2
 141.151367188 783.384765625 l 1
 158.982421875 776.741210938 l 1
 311.982421875 719.741210938 l 1
 330.764648438 712.744140625 l 1
 323.7265625 693.977539062 l 2
 303.521484375 640.098632812 293 584.411132812 293 529.045898438 c 0
 293.920898438 326.485351562 463.388671875 220 830 220 c 2
 978 220 l 2
EndSplineSet
EndChar

StartChar: uniFEDB
Encoding: 65243 65243 230
GlifName: uniF_E_D_B_
Width: 950
VWidth: 2950
GlyphClass: 2
Flags: HW
AnchorPoint: "Anchor-10" 327.533 1410.15 basechar 0
AnchorPoint: "Anchor-7" 310.991 -213.935 basechar 0
LayerCount: 2
Fore
SplineSet
254.0703125 1021.16015625 m 1
 414.16796875 885.422851562 536.571289062 774.477539062 614.6640625 690.600585938 c 0
 702.505859375 595.524414062 746 490.325195312 746 376 c 0
 746 120.435546875 561.62109375 0 166 0 c 2
 -19 0 l 5
 -19 20 l 5
 -19 200 l 5
 -19 220 l 5
 165 220 l 2
 440.620117188 220 531 282.724609375 531 393 c 0
 531 451.25 499.20703125 511.400390625 432.327148438 574.403320312 c 0
 330.704101562 669.052734375 239.856445312 748.893554688 160.680664062 811.244140625 c 0
 82.287109375 872.102539062 40 938.616210938 40 1012 c 0
 40 1106.0078125 93.9253610846 1175.46796631 191.965820312 1211.72265625 c 2
 889.5 1469.66601562 l 1
 889.5 1440.91308594 l 1
 889.5 1269.91308594 l 1
 889.5 1256 l 1
 254.0703125 1021.16015625 l 1
EndSplineSet
EndChar

StartChar: uniFEDC
Encoding: 65244 65244 231
GlifName: uniF_E_D_C_
Width: 1027
VWidth: 2950
GlyphClass: 2
Flags: HW
AnchorPoint: "Anchor-10" 327.533 1410.15 basechar 0
AnchorPoint: "Anchor-7" 310.991 -213.935 basechar 0
LayerCount: 2
Fore
SplineSet
254.0703125 1021.16015625 m 1
 413.1484375 885.438476562 536.60546875 774.44140625 614.637695312 690.627929688 c 0
 671.055664062 630.03125 714.231445312 551.442382812 746.857421875 458.662109375 c 0
 804.321289062 296.01171875 894.6015625 220 1018 220 c 2
 1045 220 l 5
 1045 200 l 5
 1045 20 l 5
 1045 0 l 5
 1018 0 l 2
 873.946289062 0 759 58.111328125 669.821289062 165.653320312 c 1
 582.440429688 52.6357421875 433.302734375 0 166 0 c 2
 -19 0 l 1
 -19 20 l 1
 -19 200 l 1
 -19 220 l 1
 165 220 l 2
 440.620117188 220 531 282.724609375 531 393 c 0
 531 451.25 499.20703125 511.400390625 432.327148438 574.403320312 c 0
 330.704101562 669.052734375 239.856445312 748.893554688 160.680664062 811.244140625 c 0
 82.287109375 872.102539062 40 938.616210938 40 1012 c 0
 40 1106.0078125 93 1175 191.965820312 1211.72265625 c 2
 889.5 1469.66601562 l 1
 889.5 1440.91308594 l 1
 889.5 1269.91308594 l 1
 889.5 1256 l 1
 254.0703125 1021.16015625 l 1
EndSplineSet
EndChar

StartChar: uniFEDE
Encoding: 65246 65246 233
GlifName: uniF_E_D_E_
Width: 1439
VWidth: 2950
GlyphClass: 2
Flags: HW
AnchorPoint: "Anchor-7" 662.902 -688.086 basechar 0
AnchorPoint: "Anchor-10" 654.908 1025.66 basechar 0
LayerCount: 2
Fore
SplineSet
353.615234375 370.686523438 m 2
 310.18359375 260.134765625 289 168.33984375 289 56 c 0
 289 -188.657226562 413.51171875 -307 675 -307 c 0
 919.364257812 -307 1039 -180 1039 88.0302734375 c 2
 1041 1364 l 1
 1041 1366 l 1
 1041 1386 l 1
 1061 1386 l 1
 1229 1386 l 1
 1249.02050781 1386 l 1
 1249 1365.97949219 l 1
 1248 413 l 2
 1248 278 1285.79101562 220 1428 220 c 2
 1458 220 l 5
 1458 200 l 5
 1458 20 l 5
 1458 0 l 5
 1430 0 l 2
 1340.98339844 0 1290.06933594 20.037109375 1246.70703125 54.595703125 c 1
 1228.97753906 -316.354492188 1039.57617188 -520 674 -520 c 0
 280.192382812 -520 78 -325.9609375 78 55 c 0
 78 193.747070312 105.821289062 313.958007812 161.517578125 448.642578125 c 2
 169.114257812 467.013671875 l 1
 187.530273438 459.528320312 l 1
 342.530273438 396.528320312 l 1
 360.842773438 389.084960938 l 1
 353.615234375 370.686523438 l 2
EndSplineSet
EndChar

StartChar: uniFEDF
Encoding: 65247 65247 234
GlifName: uniF_E_D_F_
Width: 608
VWidth: 2950
GlyphClass: 2
Flags: HW
AnchorPoint: "Anchor-10" 365.751 1540.65 basechar 0
AnchorPoint: "Anchor-7" 259.812 -218.234 basechar 0
LayerCount: 2
Fore
SplineSet
-19 20 m 5
 -19 200 l 5
 -19 220 l 5
 61 220 l 2
 230.479492188 220 271 283 271 423 c 2
 271 1366 l 1
 271 1386 l 1
 291 1386 l 1
 460 1386 l 1
 480 1386 l 1
 480 1366 l 1
 480 424 l 2
 480 151 366.09375 0 60 0 c 2
 -19 0 l 5
 -19 20 l 5
EndSplineSet
EndChar

StartChar: uniFEE0
Encoding: 65248 65248 235
GlifName: uniF_E_E_0
Width: 670
VWidth: 2950
GlyphClass: 2
Flags: HW
AnchorPoint: "Anchor-7" 259.812 -218.234 basechar 0
AnchorPoint: "Anchor-10" 364.751 1540.65 basechar 0
LayerCount: 2
Fore
SplineSet
368.259765625 129.916015625 m 5
 300.0625 44.177734375 203.774414062 0 43 0 c 2
 -19 0 l 1
 -19 20 l 1
 -19 200 l 1
 -19 220 l 1
 45 220 l 2
 215.672851562 220 271 281 271 409.072265625 c 2
 271 1366 l 1
 271 1386 l 1
 291 1386 l 1
 460 1386 l 1
 480 1386 l 1
 480 1366 l 1
 480 409 l 2
 480 277 523.541992188 220 658 220 c 2
 688 220 l 1
 688 200 l 1
 688 20 l 1
 688 0 l 1
 660 0 l 2
 520.043945312 0 436.114257812 46.69921875 368.259765625 129.916015625 c 5
EndSplineSet
EndChar

StartChar: uniFEE2
Encoding: 65250 65250 237
GlifName: uniF_E_E_2
Width: 1306
VWidth: 2620
GlyphClass: 2
Flags: HW
AnchorPoint: "Anchor-10" 773.952 1040.2 basechar 0
AnchorPoint: "Anchor-7" 724.983 -318.909 basechar 0
LayerCount: 2
Fore
SplineSet
92.0361328125 -646.194335938 m 2
 85.0224609375 -528.978515625 81 -428.515625 81 -323 c 0
 81 17.3583984375 126.9453125 308.50390625 380.423828125 366.359375 c 1
 480.606445312 612.350585938 616.313476562 741 790 741 c 0
 1004.32128906 741 1114.67675781 588.479492188 1154.57128906 394.122070312 c 0
 1180.97460938 271.881835938 1230.04199219 220 1298 220 c 2
 1325 220 l 5
 1325 200 l 5
 1325 20 l 5
 1325 0 l 5
 1298 0 l 2
 1219.16992188 0 1147.39746094 27.291015625 1095.34277344 88.94921875 c 1
 1040.71875 10.8857421875 965.434570312 -23 856 -23 c 0
 773.127929688 -23 690.59375 5.7119140625 597.526367188 61.9609375 c 0
 566.043945312 81.6376953125 532.858398438 99.2119140625 495.837890625 118.221679688 c 0
 468.965820312 132.122070312 444.553710938 138 429.095703125 138 c 0
 349.598632812 137.235351562 294 8.8232421875 294 -295 c 0
 294 -425.494140625 298.975585938 -536.872070312 307.9296875 -643.323242188 c 2
 309.752929688 -665 l 1
 288 -665 l 1
 112 -665 l 1
 93.1611328125 -665 l 1
 92.0361328125 -646.194335938 l 2
592.889648438 322.87109375 m 1
 706.729492188 236.305664062 794.756835938 195 851.877929688 195 c 0
 922.303710938 195.858398438 954 230.29296875 954 315 c 0
 954 431.309570312 890.771484375 516 790 516 c 0
 709.416992188 516 643.791992188 455.266601562 592.889648438 322.87109375 c 1
EndSplineSet
EndChar

StartChar: uniFEE3
Encoding: 65251 65251 238
GlifName: uniF_E_E_3
Width: 1038
VWidth: 2950
GlyphClass: 2
Flags: HW
AnchorPoint: "Anchor-10" 573.952 1040.2 basechar 0
AnchorPoint: "Anchor-7" 504.594 -217.063 basechar 0
LayerCount: 2
Fore
SplineSet
400.861328125 330.325195312 m 1
 484.979492188 236.469726562 561.13671875 193 631 193 c 0
 716.821289062 193 753 229.686523438 753 312 c 0
 753 436.403320312 690.03125 515 591 515 c 0
 512.469726562 515 448.357421875 457.12109375 400.861328125 330.325195312 c 1
294.1953125 135.453125 m 1
 212.232421875 47.640625 119.676757812 0 13 0 c 2
 -18 0 l 5
 -18 20 l 5
 -18 200 l 5
 -18 220 l 5
 8 220 l 2
 113.716796875 220 177.131835938 327.823242188 227.786132812 439.26171875 c 0
 317.10546875 636.169921875 434.995117188 741 587 741 c 0
 814.313476562 741 960 547.15625 960 327 c 0
 960 111.177734375 848.713867188 -22 645 -22 c 0
 514.291015625 -22 403.815429688 34.5732421875 294.1953125 135.453125 c 1
EndSplineSet
EndChar

StartChar: uniFEE4
Encoding: 65252 65252 239
GlifName: uniF_E_E_4
Width: 1102
VWidth: 2950
GlyphClass: 2
Flags: HW
AnchorPoint: "Anchor-10" 573.952 1040.2 basechar 0
AnchorPoint: "Anchor-7" 524.594 -217.063 basechar 0
LayerCount: 2
Fore
SplineSet
400.853515625 330.236328125 m 1
 483.739257812 236.719726562 559.991210938 193 635 193 c 0
 720.12890625 193 756 229.056640625 756 308 c 0
 756 430.0546875 689.012695312 515 587 515 c 0
 510.831054688 515 448.446289062 456.661132812 400.853515625 330.236328125 c 1
896.440429688 89.91796875 m 1
 835.982421875 10.9423828125 756.5390625 -22 643 -22 c 0
 518.146484375 -22 401.799804688 33.5986328125 293.981445312 135.223632812 c 1
 212.440429688 47.8623046875 119.591796875 0 13 0 c 2
 -18 0 l 1
 -18 20 l 1
 -18 200 l 1
 -18 220 l 1
 8 220 l 2
 115.688476562 220 179.0859375 329.688476562 227.745117188 439.170898438 c 0
 316.126953125 635.237304688 434.95703125 741 587 741 c 0
 801.640625 741 915.612304688 579.688476562 954.577148438 394.090820312 c 0
 980.052734375 271.612304688 1029.25097656 220 1095 220 c 2
 1120 220 l 5
 1120 200 l 5
 1120 20 l 5
 1120 0 l 5
 1094 0 l 2
 1017.1953125 0 947.422851562 28.162109375 896.440429688 89.91796875 c 1
EndSplineSet
EndChar

StartChar: uniFEEA
Encoding: 65258 65258 245
GlifName: uniF_E_E_A_
Width: 1038
VWidth: 2970
GlyphClass: 2
Flags: HW
AnchorPoint: "Anchor-10" 662.464 1242.36 basechar 0
AnchorPoint: "Anchor-7" 469.642 -216.09 basechar 0
LayerCount: 2
Fore
SplineSet
78 432 m 0
 78 638.908203125 250.252929688 792.053710938 582.592773438 897.931640625 c 1
 578.237304688 925.92578125 l 1
 575.314453125 944.717773438 l 1
 593.935546875 948.583007812 l 1
 752.935546875 981.583007812 l 1
 773.862304688 985.92578125 l 1
 776.80859375 964.7578125 l 1
 858.8125 375.73046875 l 2
 872.759765625 273.452148438 927.998046875 220 1027 220 c 2
 1057 220 l 5
 1057 200 l 5
 1057 20 l 5
 1057 0 l 5
 1023 0 l 2
 842.223632812 0 732.041992188 80.7626953125 689.512695312 221.891601562 c 1
 612.362304688 162.939453125 526.624023438 132 431 132 c 0
 242.393554688 132 78 223.634765625 78 432 c 0
615.081054688 695.680664062 m 1
 391.184570312 610.2578125 292 528.809570312 292 444 c 0
 292 375.162109375 333.090820312 340 425 340 c 0
 531.051757812 340 641 404.962890625 641 502 c 0
 641 520.2578125 640.041015625 537.234375 637.233398438 555.951171875 c 2
 615.081054688 695.680664062 l 1
EndSplineSet
EndChar

StartChar: uniFEEB
Encoding: 65259 65259 246
GlifName: uniF_E_E_B_
Width: 1369
VWidth: 2950
GlyphClass: 2
Flags: HW
AnchorPoint: "Anchor-10" 609.134 1242.79 basechar 0
AnchorPoint: "Anchor-7" 510.852 -219.953 basechar 0
LayerCount: 2
Fore
SplineSet
502.802734375 281.560546875 m 1
 604.024414062 325.19140625 654.1171875 424.526367188 655 503.112304688 c 0
 655 603.275390625 596.145507812 662 504 662 c 0
 406.149414062 662 343 597.017578125 343 508 c 0
 343 425.240234375 396.640625 324.931640625 502.802734375 281.560546875 c 1
593.754882812 1018.98144531 m 2
 1050.99121094 796.353515625 1291 583.915039062 1291 383 c 0
 1291 143.51171875 1121.47070312 10 879 10 c 0
 747.153320312 10 579.811523438 44.9638671875 485.327148438 75.806640625 c 1
 372.006835938 34.6201171875 213.681640625 0 75 0 c 2
 -19 0 l 1
 -19 20 l 1
 -19 200 l 1
 -19 220 l 1
 63 220 l 2
 133.791015625 220 180.606445312 220.1328125 233.040039062 225.59375 c 5
 163.260742188 298.15234375 133 387.873046875 133 496 c 0
 133 703.353515625 293.775390625 850.26171875 482.754882812 856.803710938 c 1
 491.481445312 872.6484375 l 1
 567.481445312 1010.6484375 l 1
 576.65625 1027.30761719 l 1
 593.754882812 1018.98144531 l 2
817.811523438 671.149414062 m 1
 844.57421875 623.482421875 858 570.411132812 858 513 c 0
 858 403.311523438 821.765625 294.831054688 751.301757812 220.83984375 c 1
 791.536132812 216.907226562 826.848632812 215 862 215 c 0
 1009.00292969 215 1076 273.248046875 1076 380 c 0
 1076 447.537109375 993.756835938 555.666015625 817.811523438 671.149414062 c 1
EndSplineSet
EndChar

StartChar: uniFEEC
Encoding: 65260 65260 247
GlifName: uniF_E_E_C_
Width: 1002
VWidth: 2950
GlyphClass: 2
Flags: HW
AnchorPoint: "Anchor-7" 597.16 -689.603 basechar 0
AnchorPoint: "Anchor-10" 551.648 1155.04 basechar 0
LayerCount: 2
Fore
SplineSet
607.407226562 -538.060546875 m 6
 379.645507812 -429.697265625 246.213867188 -249.635742188 200.19140625 0 c 5
 -19 0 l 1
 -19 20 l 1
 -19 200 l 1
 -19 220 l 1
 185.040039062 220 l 5
 204.125 551.775390625 275.40234375 836 548 836 c 4
 725.21875 836 830 695.942382812 830 507 c 4
 830 274.327148438 630.291992188 43.7890625 399.98046875 0.53515625 c 5
 424.787109375 -114.012695312 478.888671875 -197.951171875 565.583007812 -263.118164062 c 5
 575.802734375 -6.2734375 726.583984375 220 988 220 c 6
 1021 220 l 5
 1021 200 l 5
 1021 20 l 5
 1021 0 l 5
 986 0 l 6
 830.5078125 0 753 -95.27734375 753 -310 c 4
 753 -337.51953125 753.99609375 -369.993164062 756.907226562 -400.073242188 c 6
 757.831054688 -409.62109375 l 5
 750.963867188 -416.318359375 l 5
 629.963867188 -534.318359375 l 5
 619.989257812 -544.045898438 l 5
 607.407226562 -538.060546875 l 6
388.16015625 220.678710938 m 5
 524.1875 237.638671875 631 357.6953125 631 507 c 4
 631 590.6875 593.51171875 622 546 622 c 4
 457.228515625 622 404.502929688 504.576171875 388.16015625 220.678710938 c 5
EndSplineSet
EndChar

StartChar: uniFEEE
Encoding: 65262 65262 249
GlifName: uniF_E_E_E_
Width: 876
VWidth: 2142
GlyphClass: 2
Flags: HW
AnchorPoint: "Anchor-10" 430.256 1050.2 basechar 0
AnchorPoint: "Anchor-7" 415.969 -609.998 basechar 0
LayerCount: 2
Fore
SplineSet
432 760 m 0
 654.110351562 760 770.677734375 568.907226562 797.623046875 219 c 1
 894 219 l 1
 894 199 l 1
 894 20 l 1
 894 -0.158203125 l 1
 783.405273438 0.8701171875 l 1
 725.677734375 -273.9296875 520.822265625 -460.823242188 171.760742188 -527.643554688 c 2
 155.408203125 -530.7734375 l 1
 149.364257812 -515.260742188 l 1
 89.3642578125 -361.260742188 l 1
 80.6083984375 -338.787109375 l 1
 104.314453125 -334.342773438 l 2
 373.836914062 -283.806640625 528.34765625 -162.0703125 583.953125 0 c 1
 462 0 l 2
 212.829101562 0 78 105.397460938 78 316 c 0
 78 549.354492188 221.573242188 760 432 760 c 0
594.514648438 220 m 1
 576.940429688 440.46484375 514.877929688 535 418 535 c 0
 345.89453125 535 283 441.892578125 283 331 c 0
 283 259.130859375 330.768554688 220 452 220 c 2
 594.514648438 220 l 1
EndSplineSet
EndChar

StartChar: uniFEFB
Encoding: 65275 65275 262
GlifName: uniF_E_F_B_
Width: 1212
VWidth: 2950
GlyphClass: 3
Flags: HW
AnchorPoint: "Anchor-9" 221.642 1486.64 baselig 1
AnchorPoint: "Anchor-6" 288.021 -224.333 baselig 1
AnchorPoint: "Anchor-6" 925.078 -220.55 baselig 0
AnchorPoint: "Anchor-9" 975.01 1537.81 baselig 0
LayerCount: 2
Fore
SplineSet
177.54296875 235.837890625 m 2
 254.818359375 225.930664062 326.916015625 221 399 221 c 0
 424.803710938 221 452.515625 221.592773438 476.721679688 222.643554688 c 1
 407.397460938 457.923828125 287.466796875 766.53515625 91.6640625 1216.01269531 c 6
 84.34375 1232.81738281 l 5
 100.448242188 1241.57128906 l 5
 249.448242188 1322.57128906 l 5
 268.969726562 1333.18359375 l 5
 277.4765625 1312.65722656 l 6
 473.228515625 840.319335938 605.91796875 518.467773438 675.640625 264.170898438 c 1
 807.965820312 316.817382812 875 441 875 658 c 2
 875 1366 l 5
 875 1386 l 5
 895 1386 l 5
 1064 1386 l 5
 1084 1386 l 5
 1084 1366 l 5
 1084 657 l 2
 1084 224 849.5859375 3 396 3 c 0
 304.118164062 3 230.0546875 9.0361328125 171.543945312 19.30078125 c 2
 155 22.203125 l 1
 155 39 l 1
 155 216 l 1
 155 238.727539062 l 1
 177.54296875 235.837890625 l 2
EndSplineSet
PairPos2: "'kern' Horizontal Kerning lookup 15-6" uni0639 dx=-60 dy=0 dh=-60 dv=0 dx=0 dy=0 dh=0 dv=0
PairPos2: "'kern' Horizontal Kerning lookup 15-6" uni063A dx=-60 dy=0 dh=-60 dv=0 dx=0 dy=0 dh=0 dv=0
LCarets2: 1 0
Ligature2: "'rlig' Required Ligatures in Arabic lookup 16 subtable" uniFEDF uniFE8E
EndChar

StartChar: uniFEFC
Encoding: 65276 65276 263
GlifName: uniF_E_F_C_
Width: 1273
VWidth: 2950
GlyphClass: 3
Flags: HW
AnchorPoint: "Anchor-9" 974.01 1537.81 baselig 0
AnchorPoint: "Anchor-9" 221.642 1488.64 baselig 1
AnchorPoint: "Anchor-6" 925.078 -220.55 baselig 0
AnchorPoint: "Anchor-6" 288.021 -224.333 baselig 1
LayerCount: 2
Fore
SplineSet
277.4765625 1312.65722656 m 2
 473.228515625 840.319335938 605.91796875 518.467773438 675.640625 264.170898438 c 1
 807.965820312 316.817382812 875 441 875 658 c 2
 875 1366 l 1
 875 1386 l 1
 895 1386 l 1
 1064 1386 l 1
 1084 1386 l 1
 1084 1366 l 1
 1084 567 l 2
 1084 323 1134.08984375 220 1257 220 c 2
 1291 220 l 5
 1291 200 l 5
 1291 20 l 5
 1291 0 l 5
 1259 0 l 2
 1099.47363281 0 999.041015625 71.986328125 948.6328125 207.653320312 c 1
 830.366210938 69.9296875 649.700195312 3 396 3 c 0
 304.118164062 3 230.0546875 9.0361328125 171.543945312 19.30078125 c 2
 155 22.203125 l 1
 155 39 l 1
 155 216 l 1
 155 238.803710938 l 1
 177.609375 235.829101562 l 2
 252.799804688 225.935546875 325.9140625 221 398 221 c 0
 423.936523438 221 451.557617188 221.58984375 476.55859375 222.661132812 c 1
 406.530273438 455.494140625 286.403320312 764.833984375 91.6376953125 1216.07421875 c 2
 84.3984375 1232.84667969 l 1
 100.448242188 1241.57128906 l 1
 249.448242188 1322.57128906 l 1
 268.969726562 1333.18359375 l 1
 277.4765625 1312.65722656 l 2
EndSplineSet
PairPos2: "'kern' Horizontal Kerning lookup 15-6" uni0639 dx=-60 dy=0 dh=-60 dv=0 dx=0 dy=0 dh=0 dv=0
PairPos2: "'kern' Horizontal Kerning lookup 15-6" uni063A dx=-60 dy=0 dh=-60 dv=0 dx=0 dy=0 dh=0 dv=0
LCarets2: 1 0
Ligature2: "'rlig' Required Ligatures in Arabic lookup 16 subtable" uniFEE0 uniFE8E
EndChar

StartChar: arabic_dot
Encoding: 65536 -1 264
GlifName: arabic_dot
Width: 189
VWidth: 2682
GlyphClass: 2
Flags: HW
LayerCount: 2
Fore
SplineSet
-61.2426360573 104.920681817 m 1
 84.1291275006 250.292445376 l 1
 91.2001953125 257.363513188 l 1
 98.2712631244 250.292445376 l 1
 244.592254721 103.971453777 l 1
 251.663299235 96.900409263 l 1
 244.592278018 89.8293414512 l 1
 97.9718309859 -56.7920717412 l 1
 92.1504277822 -62.6135133052 l 1
 85.079336673 -55.5424684939 l 1
 -61.2426129082 90.778523044 l 1
 -68.3137270181 97.8495908557 l 1
 -61.2426360573 104.920681817 l 1
EndSplineSet
EndChar

StartChar: arabic_2dots
Encoding: 65537 -1 265
GlifName: arabic_2dots
Width: 504
VWidth: 2682
GlyphClass: 2
Flags: HW
LayerCount: 2
Fore
SplineSet
263.928932188 105.071067812 m 1
 403.928932188 245.071067812 l 1
 410.974880833 252.117016457 l 1
 418.045859254 245.09618682 l 1
 559.045859254 105.09618682 l 1
 566.142224542 98.050150363 l 1
 559.096009617 90.9539622821 l 1
 418.096009617 -51.0460377179 l 1
 410.974702682 -58.2178503755 l 1
 403.87896186 -51.0207418278 l 1
 263.87896186 90.9792581722 l 1
 256.907835961 98.0499715845 l 1
 263.928932188 105.071067812 l 1
-68.0710678119 105.071067812 m 1
 71.9289321881 245.071067812 l 1
 78.9748808332 252.117016457 l 1
 86.0458592535 245.09618682 l 1
 227.045859254 105.09618682 l 1
 234.142224542 98.050150363 l 1
 227.096009617 90.9539622821 l 1
 86.0960096166 -51.0460377179 l 1
 78.9747026819 -58.2178503755 l 1
 71.8789618603 -51.0207418278 l 1
 -68.1210381397 90.9792581722 l 1
 -75.0921640392 98.0499715845 l 1
 -68.0710678119 105.071067812 l 1
EndSplineSet
EndChar

StartChar: arabic_3dots
Encoding: 65538 -1 266
GlifName: arabic_3dots
Width: 504
VWidth: 2675
GlyphClass: 2
Flags: HW
LayerCount: 2
Fore
SplineSet
103.928932188 332.071067812 m 1
 235.928932188 464.071067812 l 1
 242.973367071 471.115502695 l 1
 250.044334382 464.097700551 l 1
 383.044334382 332.097700551 l 1
 390.168869244 325.02673362 l 1
 383.071067812 317.928932188 l 1
 250.071067812 184.928932188 l 1
 242.97326638 177.831130756 l 1
 235.902299449 184.955665618 l 1
 103.902299449 317.955665618 l 1
 96.8844973054 325.026632929 l 1
 103.928932188 332.071067812 l 1
275.928932188 70.0710678119 m 1
 407.928932188 202.071067812 l 1
 414.973367071 209.115502695 l 1
 422.044334382 202.097700551 l 1
 555.044334382 70.0977005514 l 1
 562.168869244 63.0267336204 l 1
 555.071067812 55.9289321881 l 1
 422.071067812 -77.0710678119 l 1
 414.97326638 -84.1688692441 l 1
 407.902299449 -77.0443343818 l 1
 275.902299449 55.9556656182 l 1
 268.884497305 63.0266329291 l 1
 275.928932188 70.0710678119 l 1
-64.0710678119 70.0710678119 m 1
 67.9289321881 202.071067812 l 1
 74.9733670709 209.115502695 l 1
 82.0443343818 202.097700551 l 1
 215.044334382 70.0977005514 l 1
 222.168869244 63.0267336204 l 1
 215.071067812 55.9289321881 l 1
 82.0710678119 -77.0710678119 l 1
 74.9732663796 -84.1688692441 l 1
 67.9022994486 -77.0443343818 l 1
 -64.0977005514 55.9556656182 l 1
 -71.1155026946 63.0266329291 l 1
 -64.0710678119 70.0710678119 l 1
EndSplineSet
EndChar

StartChar: arabic_3dots_a
Encoding: 65539 -1 267
GlifName: arabic_3dots_a
Width: 504
VWidth: 2689
GlyphClass: 2
Flags: HW
LayerCount: 2
Fore
SplineSet
104.902299449 -126.955665618 m 1
 236.902299449 6.04433438182 l 1
 243.97326638 13.1688692441 l 1
 251.071067812 6.07106781187 l 1
 384.071067812 -126.928932188 l 1
 391.168869244 -134.02673362 l 1
 384.044334382 -141.097700551 l 1
 251.044334382 -273.097700551 l 1
 243.973367071 -280.115502695 l 1
 236.928932188 -273.071067812 l 1
 104.928932188 -141.071067812 l 1
 97.8844973054 -134.026632929 l 1
 104.902299449 -126.955665618 l 1
276.902299449 135.044334382 m 1
 408.902299449 268.044334382 l 1
 415.97326638 275.168869244 l 1
 423.071067812 268.071067812 l 1
 556.071067812 135.071067812 l 1
 563.168869244 127.97326638 l 1
 556.044334382 120.902299449 l 1
 423.044334382 -11.0977005514 l 1
 415.973367071 -18.1155026946 l 1
 408.928932188 -11.0710678119 l 1
 276.928932188 120.928932188 l 1
 269.884497305 127.973367071 l 1
 276.902299449 135.044334382 l 1
-63.0977005514 135.044334382 m 1
 68.9022994486 268.044334382 l 1
 75.9732663796 275.168869244 l 1
 83.0710678119 268.071067812 l 1
 216.071067812 135.071067812 l 1
 223.168869244 127.97326638 l 1
 216.044334382 120.902299449 l 1
 83.0443343818 -11.0977005514 l 1
 75.9733670709 -18.1155026946 l 1
 68.9289321881 -11.0710678119 l 1
 -63.0710678119 120.928932188 l 1
 -70.1155026946 127.973367071 l 1
 -63.0977005514 135.044334382 l 1
EndSplineSet
EndChar

StartChar: uni066E.fina
Encoding: 65540 -1 268
GlifName: uni066E_.fina
Width: 1858
VWidth: 2970
GlyphClass: 2
Flags: HW
AnchorPoint: "Anchor-10" 892.51 1445.59 basechar 0
AnchorPoint: "Anchor-7" 795.357 -239.261 basechar 0
LayerCount: 2
Fore
SplineSet
965 0 m 2
 840 0 l 2
 358.274414062 0 78 165.641601562 78 504 c 0
 78 596.009765625 98.67578125 684.692382812 133.62890625 765.90625 c 2
 141.151367188 783.384765625 l 1
 158.982421875 776.741210938 l 1
 311.982421875 719.741210938 l 1
 330.764648438 712.744140625 l 1
 323.7265625 693.977539062 l 2
 303.521484375 640.098632812 293 584.411132812 293 529.045898438 c 0
 293.920898438 326.485351562 463.388671875 220 830 220 c 2
 960 220 l 2
 1216.36914062 220 1379.06054688 262.754882812 1444.60742188 341.76953125 c 0
 1462.82226562 363.727539062 1475 397.83984375 1475 452 c 0
 1475 504.001953125 1471.04882812 556.591796875 1468.03613281 606.801757812 c 2
 1466.91210938 625.534179688 l 1
 1485.53417969 627.84765625 l 1
 1646.53417969 647.84765625 l 1
 1667.59277344 650.462890625 l 1
 1668.95898438 629.288085938 l 1
 1684.95703125 381.30859375 l 2
 1692.4140625 269.451171875 1739.52734375 220 1853 220 c 2
 1876 220 l 5
 1876 200 l 5
 1876 20 l 5
 1876 0 l 5
 1853 0 l 2
 1713.28320312 0 1614.68066406 56.9501953125 1551.1328125 165.1796875 c 1
 1427.98144531 51.947265625 1223.24414062 0 965 0 c 2
EndSplineSet
EndChar

StartChar: uni06A1.fina
Encoding: 65543 -1 269
GlifName: uni06A_1.fina
Width: 1962
VWidth: 2970
GlyphClass: 2
Flags: HW
AnchorPoint: "Anchor-10" 713.816 1591.03 basechar 0
AnchorPoint: "Anchor-7" 590.121 -291.592 basechar 0
LayerCount: 2
Fore
SplineSet
1501 681 m 0
 1452.94238281 681 1349 565.448242188 1349 510 c 0
 1349 454.630859375 1463.80175781 310 1506 310 c 0
 1552.81347656 310 1665 457.79296875 1665 518 c 0
 1665 561.873046875 1571.31542969 681 1501 681 c 0
960 220 m 2
 1153.84472656 220 1235.15820312 221.915039062 1278.44824219 226.987304688 c 1
 1189.91796875 320.862304688 1141 404.379882812 1141 516 c 0
 1141 664.005859375 1307.31445312 896 1503 896 c 0
 1707.02734375 896 1874 685.075195312 1874 531 c 0
 1874 408.01953125 1821.81054688 325.889648438 1731.89550781 225.790039062 c 1
 1762.56054688 221.407226562 1806.56835938 220 1888 220 c 2
 1980 220 l 5
 1980 200 l 5
 1980 20 l 5
 1980 0 l 5
 1890 0 l 2
 1718.59863281 0 1601.23730469 35.802734375 1502.44921875 104.786132812 c 1
 1384.74511719 31.1845703125 1206.26660156 0 965 0 c 2
 840 0 l 2
 358.288085938 0 78 165.212890625 78 504 c 0
 78 596.108398438 98.2421875 685.313476562 133.737304688 766.477539062 c 2
 141.338867188 783.859375 l 1
 159.096679688 777.185546875 l 1
 312.442382812 719.559570312 l 1
 331.192382812 712.513671875 l 1
 324.118164062 693.774414062 l 2
 303.599609375 639.416992188 293 584.0703125 293 529.036132812 c 0
 293.927734375 326.744140625 463.400390625 220 830 220 c 2
 960 220 l 2
EndSplineSet
EndChar

StartChar: uni06A1.init
Encoding: 65544 -1 270
GlifName: uni06A_1.init
Width: 918
VWidth: 2950
GlyphClass: 2
Flags: HW
AnchorPoint: "Anchor-10" 447.443 1624.02 basechar 0
AnchorPoint: "Anchor-7" 367.886 -227.023 basechar 0
LayerCount: 2
Fore
SplineSet
645.358398438 384.107421875 m 1
 589.038085938 369.525390625 529.408203125 362 466 362 c 0
 243.5390625 362 121.137695312 458.485351562 119 650.888671875 c 0
 119 878.862304688 244.731445312 1082 466 1082 c 0
 736.819335938 1082 840 779.154296875 840 482 c 0
 840 88.18359375 665.956054688 0 265 0 c 2
 -19 0 l 5
 -19 20 l 5
 -19 200 l 5
 -19 220 l 5
 276 220 l 2
 513.908203125 220 630.076171875 254.275390625 645.358398438 384.107421875 c 1
628.99609375 593.512695312 m 1
 610.580078125 728.825195312 562.0234375 866 459 866 c 0
 389.341796875 866 320 788.215820312 320 678 c 0
 320 607.962890625 364.822265625 572 479 572 c 0
 528.336914062 572 578.943359375 579.921875 628.99609375 593.512695312 c 1
EndSplineSet
EndChar

StartChar: uni06A1.medi
Encoding: 65545 -1 271
GlifName: uni06A_1.medi
Width: 972
VWidth: 2970
GlyphClass: 2
Flags: HW
AnchorPoint: "Anchor-10" 532.544 1406.06 basechar 0
AnchorPoint: "Anchor-7" 507.517 -227.023 basechar 0
LayerCount: 2
Fore
SplineSet
511 681 m 0
 462.942382812 681 359 565.448242188 359 510 c 0
 359 454.630859375 473.801757812 310 516 310 c 0
 562.813476562 310 675 457.79296875 675 518 c 0
 675 561.77734375 580.33203125 681 511 681 c 0
743.106445312 225.467773438 m 1
 776.793945312 220.954101562 824.943359375 220 898 220 c 2
 990 220 l 1
 990 200 l 1
 990 20 l 1
 990 0 l 1
 900 0 l 2
 741.189453125 0 613.607421875 35.1142578125 513.010742188 104.432617188 c 1
 409.995117188 33.37890625 278.250976562 0 114 0 c 2
 -19 0 l 5
 -19 20 l 5
 -19 200 l 5
 -19 220 l 5
 114 220 l 2
 200.514648438 220 257.490234375 221.6640625 289.41015625 225.91796875 c 1
 200.19921875 319.986328125 151 403.639648438 151 516 c 0
 151 663.923828125 316.259765625 896 512 896 c 0
 715.971679688 896 884 685.155273438 884 531 c 0
 884 417.861328125 833.115234375 321.544921875 743.106445312 225.467773438 c 1
EndSplineSet
EndChar

StartChar: uni066F.fina
Encoding: 65546 -1 272
GlifName: uni066F_.fina
Width: 1450
VWidth: 2950
GlyphClass: 2
Flags: HW
AnchorPoint: "Anchor-10" 758.297 1019.41 basechar 0
AnchorPoint: "Anchor-7" 713.744 -678.409 basechar 0
LayerCount: 2
Fore
SplineSet
361.708007812 434.928710938 m 2
 314.349609375 309.625976562 290 193.072265625 290 81 c 0
 290 -179.954101562 426.659179688 -307 728 -307 c 0
 1022.95800781 -307 1125.82910156 -205.252929688 1151.68847656 1 c 1
 1023 1 l 2
 773.829101562 1 639 106.397460938 639 317 c 0
 639 551.317382812 781.610351562 761 993 761 c 0
 1208.6484375 761 1324.96875 568.881835938 1358.27148438 220 c 1
 1468 220 l 5
 1468 200 l 5
 1468 20 l 5
 1468 -0.154296875 l 5
 1355.72363281 0.86328125 l 1
 1311.56640625 -342.915039062 1130.63574219 -520 721 -520 c 0
 293.78125 -520 78 -318.510742188 78 76 c 0
 78 218.879882812 108.649414062 364.529296875 169.500976562 512.602539062 c 2
 177.07421875 531.029296875 l 1
 195.530273438 523.528320312 l 1
 350.530273438 460.528320312 l 1
 368.606445312 453.180664062 l 1
 361.708007812 434.928710938 l 2
1154.51757812 221 m 1
 1136.98144531 441.635742188 1075.8046875 536 979 536 c 0
 906.89453125 536 844 442.892578125 844 332 c 0
 844 260.130859375 891.768554688 221 1013 221 c 2
 1154.51757812 221 l 1
EndSplineSet
EndChar

StartChar: arabic_gaf_bar
Encoding: 65550 -1 273
GlifName: arabic_gaf_bar
Width: 751
VWidth: 2769
GlyphClass: 2
Flags: HW
LayerCount: 2
Fore
SplineSet
735 1831.37207031 m 1
 8 1560.91503906 l 1
 8 1686.62792969 l 5
 735 1957.08496094 l 5
 735 1831.37207031 l 1
EndSplineSet
EndChar

StartChar: guillemotleft
Encoding: 171 171 283
GlifName: guillemotleft
Width: 1079
VWidth: 2316
Flags: HW
LayerCount: 2
Fore
SplineSet
760.409179688 9.83203125 m 2
 551.543945312 320.1171875 516.21484375 454.346679688 515 501.743164062 c 0
 515 556.298828125 552.580078125 673.483398438 761.3359375 936.435546875 c 2
 767.341796875 944 l 1
 777 944 l 1
 954 944 l 1
 995.310546875 944 l 1
 969.688476562 911.595703125 l 2
 766.147460938 654.17578125 725 538.806640625 725 501 c 0
 725 470.823242188 767.279296875 333.139648438 968.624023438 32.119140625 c 2
 989.439453125 1 l 1
 952 1 l 1
 777 1 l 1
 766.353515625 1 l 1
 760.409179688 9.83203125 l 2
350.409179688 9.83203125 m 2
 141.543945312 320.1171875 106.21484375 454.346679688 105 501.743164062 c 0
 105 556.298828125 142.580078125 673.483398438 351.3359375 936.435546875 c 2
 357.341796875 944 l 1
 367 944 l 1
 544 944 l 1
 585.310546875 944 l 1
 559.688476562 911.595703125 l 2
 356.147460938 654.17578125 315 538.806640625 315 501 c 0
 315 470.823242188 357.279296875 333.139648438 558.624023438 32.119140625 c 2
 579.439453125 1 l 1
 542 1 l 1
 367 1 l 1
 356.353515625 1 l 1
 350.409179688 9.83203125 l 2
EndSplineSet
EndChar

StartChar: guillemotright
Encoding: 187 187 284
GlifName: guillemotright
Width: 1079
VWidth: 2316
Flags: HW
LayerCount: 2
Fore
SplineSet
302 1 m 1
 127 1 l 1
 89.560546875 1 l 1
 110.375976562 32.119140625 l 2
 311.721679688 333.141601562 354 470.821289062 354 501 c 0
 354 538.806640625 312.852539062 654.17578125 109.311523438 911.595703125 c 2
 83.689453125 944 l 1
 125 944 l 1
 302 944 l 1
 311.658203125 944 l 1
 317.6640625 936.435546875 l 2
 526.418945312 673.484375 564 556.295898438 564 501.743164062 c 0
 562.784179688 454.341796875 527.458007812 320.119140625 318.590820312 9.83203125 c 2
 312.646484375 1 l 1
 302 1 l 1
712 1 m 1
 537 1 l 1
 499.560546875 1 l 1
 520.375976562 32.119140625 l 2
 721.721679688 333.141601562 764 470.821289062 764 501 c 0
 764 538.806640625 722.852539062 654.17578125 519.311523438 911.595703125 c 2
 493.689453125 944 l 1
 535 944 l 1
 712 944 l 1
 721.658203125 944 l 1
 727.6640625 936.435546875 l 2
 936.418945312 673.484375 974 556.295898438 974 501.743164062 c 0
 972.784179688 454.341796875 937.458007812 320.119140625 728.590820312 9.83203125 c 2
 722.646484375 1 l 1
 712 1 l 1
EndSplineSet
EndChar

StartChar: NameMe.302
Encoding: 65562 -1 293
GlifName: N_ameM_e.302
Width: 525
VWidth: 2950
Flags: HW
LayerCount: 2
Fore
SplineSet
271.137695312 103.638671875 m 1
 216.380859375 22.92578125 133.08203125 0 22 0 c 2
 -19 0 l 1
 -19 20 l 1
 -19 200 l 1
 -19 220 l 1
 24 220 l 2
 162.879882812 220 168 281 168 449 c 2
 168 1049 l 1
 168 1069 l 1
 188 1069 l 1
 357 1069 l 1
 377 1069 l 1
 377 1049 l 1
 377 449 l 2
 377 280 382.750976562 220 502 220 c 2
 544 220 l 5
 544 200 l 5
 544 20 l 5
 544 0 l 5
 505 0 l 2
 397.41796875 0 323.188476562 26.4501953125 271.137695312 103.638671875 c 1
EndSplineSet
EndChar

StartChar: NameMe.303
Encoding: 65563 -1 294
GlifName: N_ameM_e.303
Width: 487
VWidth: 2950
Flags: HW
LayerCount: 2
Fore
SplineSet
-19 20 m 5
 -19 200 l 5
 -19 220 l 5
 11 220 l 2
 127.40625 220 150 283 150 423 c 2
 150 1202 l 1
 150 1222 l 1
 170 1222 l 1
 339 1222 l 1
 359 1222 l 1
 359 1202 l 1
 359 425 l 2
 359 163 272.461914062 0 10 0 c 2
 -19 0 l 5
 -19 20 l 5
EndSplineSet
EndChar

StartChar: NameMe.65564
Encoding: 65564 -1 297
GlifName: N_ameM_e.65564
Width: 527
VWidth: 2950
Flags: HW
AnchorPoint: "Anchor-10" 232.697 1336.11 basechar 0
AnchorPoint: "Anchor-7" 292.078 -221.903 basechar 0
LayerCount: 2
Fore
SplineSet
522 0 m 2
 268.413085938 0 128 126 128 424 c 2
 128 1167 l 1
 128 1187 l 1
 148 1187 l 1
 317 1187 l 1
 337 1187 l 1
 337 1167 l 1
 337 424 l 2
 337 264 398.919921875 220 522 220 c 2
 546 220 l 5
 546 200 l 5
 546 20 l 5
 546 0 l 5
 522 0 l 2
EndSplineSet
EndChar

StartChar: NameMe.65565
Encoding: 65565 -1 298
GlifName: N_ameM_e.65565
Width: 716
VWidth: 2957
Flags: HW
LayerCount: 2
Fore
SplineSet
116.072036474 -272.116278284 m 2
 156.693648229 -281.03321745 197.367186556 -285 233 -285 c 0
 338.550432175 -285 410.429157316 -266.853599145 448.861237744 -236.107934803 c 0
 479.217341686 -211.627205817 493 -186.976927655 493 -162 c 0
 493 -151.635792308 486.81251963 -143.956499186 462.850074937 -142.998001399 c 2
 362.873458267 -140.998398462 l 2
 281.528526863 -138.93903311 239 -95.3049815488 239 -13 c 0
 239 163.392832507 417.269693214 250.993014308 619.950497476 252.999754944 c 2
 625.36181401 253.053332335 l 1
 624.988060652 247.654672724 l 1
 615.988060652 117.654672724 l 1
 615.671892929 113.087805611 l 1
 611.0949196 113.000901054 l 2
 456.221368777 110.060264013 385.768977638 71.525135866 373.70786589 -4.2060973812 c 1
 477.147230949 -8.00203738333 l 2
 569.133002109 -10.0461656314 625 -58.2784785463 625 -151 c 0
 625 -206.625065764 599.232324087 -260.774109057 551.697614984 -313.365702107 c 0
 484.335376393 -386.85178057 375.710551112 -423 226 -423 c 0
 184.675788923 -423 140.434890586 -418.97222633 95.2314649686 -411.940582345 c 2
 90.3360912279 -411.179079763 l 1
 91.0525617731 -406.276912875 l 1
 110.052561773 -276.276912875 l 1
 110.828868721 -270.965339021 l 1
 116.072036474 -272.116278284 l 2
EndSplineSet
EndChar

StartChar: uni060D
Encoding: 1549 1549 299
Width: 828
VWidth: 4036
Flags: HW
LayerCount: 2
Fore
SplineSet
575.666992188 1439.92675781 m 1
 757 1385.40039062 l 1
 210.6875 -215.69921875 l 1
 29.3544921875 -161.172851562 l 5
 575.666992188 1439.92675781 l 1
EndSplineSet
EndChar

StartChar: NameMe.65541
Encoding: 65541 -1 300
Width: 592
VWidth: 2950
Flags: HW
AnchorPoint: "Anchor-10" 261.384 1371 basechar 0
AnchorPoint: "Anchor-7" 253.422 -205.625 basechar 0
LayerCount: 2
Fore
SplineSet
465.166992188 764.712890625 m 2
 496.6953125 658.940429688 514 537.302734375 514 438 c 4
 514 163.12109375 372.649414062 0 99 0 c 2
 -19 0 l 1
 -19 20 l 1
 -19 200 l 1
 -19 220 l 1
 99 220 l 2
 243.046875 220 303 275.403320312 303 435 c 4
 303 510.703125 289.232421875 620.653320312 266.561523438 714.293945312 c 2
 261.890625 733.587890625 l 1
 281.149414062 738.403320312 l 1
 441.149414062 778.403320312 l 1
 459.703125 783.041015625 l 1
 465.166992188 764.712890625 l 2
EndSplineSet
EndChar

StartChar: NameMe.65542
Encoding: 65542 -1 301
Width: 667
VWidth: 2950
Flags: HW
AnchorPoint: "Anchor-10" 265.665 1315.09 basechar 0
AnchorPoint: "Anchor-7" 300.537 -159.742 basechar 0
LayerCount: 2
Fore
SplineSet
663 0 m 2
 535.1875 0 446.081054688 43.732421875 389.88671875 127.7421875 c 1
 318.328125 42.802734375 222.615234375 0 96 0 c 2
 -19 0 l 1
 -19 20 l 1
 -19 200 l 1
 -19 220 l 1
 91 220 l 2
 241.213867188 220 283 275.455078125 283 417 c 0
 283 477.95703125 278.040039062 545.686523438 275.024414062 607.017578125 c 2
 274.110351562 625.600585938 l 1
 292.579101562 627.852539062 l 1
 456.579101562 647.852539062 l 1
 477.583984375 650.415039062 l 1
 478.958007812 629.297851562 l 1
 494.956054688 383.319335938 l 2
 502.3984375 270.760742188 553.495117188 220 665 220 c 2
 686 220 l 5
 686 200 l 5
 686 20 l 5
 686 0 l 5
 663 0 l 2
EndSplineSet
EndChar

StartChar: uniFBFD.compact
Encoding: 65575 -1 321
Width: 1407
Flags: HW
AnchorPoint: "Anchor-7" 718.902 -678.086 basechar 0
AnchorPoint: "Anchor-10" 681.6 673.22 basechar 0
LayerCount: 2
Fore
SplineSet
1368.43457031 0 m 5
 1384.2890625 -42.3876953125 1386 -70.19921875 1386 -94 c 0
 1386 -344.822265625 1110.11523438 -519 720 -519 c 0
 295.646484375 -519 79 -316.411132812 79 81 c 0
 79 191.733398438 102.983398438 346.197265625 151.716796875 456.106445312 c 2
 159.591796875 473.8671875 l 1
 177.572265625 466.510742188 l 1
 331.572265625 403.510742188 l 1
 349.30859375 396.255859375 l 1
 342.817382812 378.225585938 l 2
 307.553710938 280.270507812 290 181.6796875 290 80 c 0
 290 -179.064453125 427.939453125 -307 719 -307 c 0
 958.166992188 -307 1184 -198.791015625 1184 -87 c 0
 1184 -43.9697265625 1142 0 1040 0 c 6
 907 0 l 6
 857 0 844.930664062 23.7900390625 835 66 c 6
 808 183 l 6
 801.888671875 209.482421875 814.53125 220 843 220 c 6
 1425 220 l 5
 1425 220 l 5
 1425 200 l 5
 1425 20 l 5
 1425 0 l 5
 1425 0 l 5
 1368.43457031 0 l 5
EndSplineSet
EndChar

StartChar: uniFECC.compact
Encoding: 65579 -1 324
Width: 1071
VWidth: 2970
Flags: HW
AnchorPoint: "Anchor-7" 574.511 -217.021 basechar 0
AnchorPoint: "Anchor-10" 598.107 1120.89 basechar 0
LayerCount: 2
Fore
SplineSet
784.34765625 252.104492188 m 1
 840.701171875 229.606445312 918.89453125 220 1045 220 c 2
 1089 220 l 1
 1089 200 l 1
 1089 20 l 1
 1089 0 l 1
 1045 0 l 2
 845.581054688 0 714.672851562 48.20703125 607.071289062 118.876953125 c 1
 501.073242188 48.8134765625 351.625976562 0 87 0 c 2
 -19 0 l 1
 -19 20 l 1
 -19 200 l 1
 -19 220 l 1
 90 220 l 2
 255.8984375 220 362.18359375 229.772460938 418.245117188 251.249023438 c 1
 251.564453125 354.08203125 147 453.1875 147 579 c 0
 147 759.274414062 402.340820312 816 607 816 c 0
 797.930664062 816 1060 759.338867188 1060 579 c 4
 1060 474.774414062 951.977539062 358.831054688 784.34765625 252.104492188 c 1
603.575195312 372.62890625 m 1
 699.016601562 425.849609375 842 524.38671875 842 556 c 0
 842 572.413085938 783.168945312 602 604 602 c 0
 425.537109375 602 365 574.365234375 365 556 c 0
 365 523.510742188 495.673828125 427.931640625 603.575195312 372.62890625 c 1
EndSplineSet
EndChar

